STARTFONT 2.1
FONT -FontForge-Noto Mono-Book-R-Normal--24-240-75-75-P-139-ISO8859-1
SIZE 24 75 75
FONTBOUNDINGBOX 18 32 -3 -6
COMMENT "Generated by fontforge, http://fontforge.sourceforge.net"
COMMENT "Copyright 2007 Google Inc. All Rights Reserved."
STARTPROPERTIES 41
FOUNDRY "FontForge"
FAMILY_NAME "Noto Mono"
WEIGHT_NAME "Book"
SLANT "R"
SETWIDTH_NAME "Normal"
ADD_STYLE_NAME ""
PIXEL_SIZE 24
POINT_SIZE 240
RESOLUTION_X 75
RESOLUTION_Y 75
SPACING "P"
AVERAGE_WIDTH 139
CHARSET_REGISTRY "ISO8859"
CHARSET_ENCODING "1"
FONTNAME_REGISTRY ""
CHARSET_COLLECTIONS "ISO8859-2 ISO8859-5 ISO8859-7 ISO8859-9 ISO8859-4 ISOLatin1Encoding"
FONT_NAME "NotoMono"
FACE_NAME "Noto Mono"
COPYRIGHT "Copyright 2007 Google Inc. All Rights Reserved."
FONT_VERSION "1.00"
FONT_ASCENT 19
FONT_DESCENT 5
UNDERLINE_POSITION -2
UNDERLINE_THICKNESS 2
X_HEIGHT 12
CAP_HEIGHT 16
DEFAULT_CHAR 1
RAW_ASCENT 799
RAW_DESCENT 200
NORM_SPACE 14
RELATIVE_WEIGHT 40
RELATIVE_SETWIDTH 50
SUPERSCRIPT_X 0
SUPERSCRIPT_Y 11
SUPERSCRIPT_SIZE 15
SUBSCRIPT_X 0
SUBSCRIPT_Y 3
SUBSCRIPT_SIZE 15
FIGURE_WIDTH 14
AVG_LOWERCASE_WIDTH 140
AVG_UPPERCASE_WIDTH 140
ENDPROPERTIES
CHARS 897
STARTCHAR uni0000
ENCODING 0
SWIDTH 0 0
DWIDTH 0 0
BBX 1 1 0 0
BITMAP
00
ENDCHAR
STARTCHAR uni000D
ENCODING 13
SWIDTH 600 0
DWIDTH 14 0
BBX 1 1 0 0
BITMAP
00
ENDCHAR
STARTCHAR space
ENCODING 32
SWIDTH 600 0
DWIDTH 14 0
BBX 1 1 0 0
BITMAP
00
ENDCHAR
STARTCHAR exclam
ENCODING 33
SWIDTH 600 0
DWIDTH 14 0
BBX 3 17 6 0
BITMAP
E0
E0
E0
E0
E0
E0
40
40
40
40
40
40
00
00
E0
E0
E0
ENDCHAR
STARTCHAR quotedbl
ENCODING 34
SWIDTH 600 0
DWIDTH 14 0
BBX 8 6 3 11
BITMAP
E7
E7
E7
E7
C6
C6
ENDCHAR
STARTCHAR numbersign
ENCODING 35
SWIDTH 600 0
DWIDTH 14 0
BBX 13 17 0 0
BITMAP
0C60
0C60
0C60
0860
0840
7FF8
7FF8
18C0
18C0
18C0
FFF0
FFF0
1080
3180
3180
3180
3180
ENDCHAR
STARTCHAR dollar
ENCODING 36
SWIDTH 600 0
DWIDTH 14 0
BBX 10 20 2 -2
BITMAP
0C00
0C00
3F80
7F80
EC00
CC00
CC00
EC00
7C00
3F00
0F80
0DC0
0CC0
0CC0
8DC0
FF80
7E00
0C00
0C00
0C00
ENDCHAR
STARTCHAR percent
ENCODING 37
SWIDTH 600 0
DWIDTH 14 0
BBX 13 17 0 0
BITMAP
3830
6C60
C660
C6C0
C6C0
C780
6D80
3B00
0200
06E0
0DB0
0F18
1B18
1B18
3318
31B0
60E0
ENDCHAR
STARTCHAR ampersand
ENCODING 38
SWIDTH 600 0
DWIDTH 14 0
BBX 13 17 1 0
BITMAP
1E00
3F00
7180
6180
6180
7380
3700
1E00
3C00
7E30
E730
C3E0
C1E0
C0C0
E1E0
7F70
3E38
ENDCHAR
STARTCHAR quotesingle
ENCODING 39
SWIDTH 600 0
DWIDTH 14 0
BBX 3 6 5 11
BITMAP
E0
E0
E0
E0
C0
C0
ENDCHAR
STARTCHAR parenleft
ENCODING 40
SWIDTH 600 0
DWIDTH 14 0
BBX 7 21 3 -4
BITMAP
06
0C
18
30
30
60
60
E0
C0
C0
C0
C0
C0
E0
60
60
30
30
18
0C
06
ENDCHAR
STARTCHAR parenright
ENCODING 41
SWIDTH 600 0
DWIDTH 14 0
BBX 7 21 4 -4
BITMAP
C0
60
30
38
18
0C
0C
0E
06
06
06
06
06
0E
0C
0C
18
18
30
60
C0
ENDCHAR
STARTCHAR asterisk
ENCODING 42
SWIDTH 600 0
DWIDTH 14 0
BBX 12 11 1 7
BITMAP
0600
0600
0600
0600
7FF0
FFF0
0F00
0F00
1980
39C0
1080
ENDCHAR
STARTCHAR plus
ENCODING 43
SWIDTH 600 0
DWIDTH 14 0
BBX 11 11 1 3
BITMAP
0600
0600
0600
0600
0600
FFE0
FFE0
0600
0600
0600
0600
ENDCHAR
STARTCHAR comma
ENCODING 44
SWIDTH 600 0
DWIDTH 14 0
BBX 4 6 4 -3
BITMAP
70
70
60
60
C0
C0
ENDCHAR
STARTCHAR hyphen
ENCODING 45
SWIDTH 600 0
DWIDTH 14 0
BBX 8 2 3 5
BITMAP
FF
FF
ENDCHAR
STARTCHAR period
ENCODING 46
SWIDTH 600 0
DWIDTH 14 0
BBX 3 3 5 0
BITMAP
E0
E0
E0
ENDCHAR
STARTCHAR slash
ENCODING 47
SWIDTH 600 0
DWIDTH 14 0
BBX 10 17 2 0
BITMAP
00C0
0180
0180
0300
0300
0600
0600
0E00
0C00
1C00
1800
1800
3000
3000
6000
6000
C000
ENDCHAR
STARTCHAR zero
ENCODING 48
SWIDTH 600 0
DWIDTH 14 0
BBX 11 17 1 0
BITMAP
1F00
3F80
71C0
60C0
E0E0
C060
C060
C060
C060
C060
C060
C060
E0E0
60C0
71C0
3F80
1F00
ENDCHAR
STARTCHAR one
ENCODING 49
SWIDTH 600 0
DWIDTH 14 0
BBX 6 17 3 0
BITMAP
0C
3C
7C
EC
4C
0C
0C
0C
0C
0C
0C
0C
0C
0C
0C
0C
0C
ENDCHAR
STARTCHAR two
ENCODING 50
SWIDTH 600 0
DWIDTH 14 0
BBX 11 17 2 0
BITMAP
1F00
7F80
61C0
00C0
00C0
00C0
01C0
0180
0380
0700
0E00
0C00
1800
3000
6000
FFE0
FFE0
ENDCHAR
STARTCHAR three
ENCODING 51
SWIDTH 600 0
DWIDTH 14 0
BBX 10 17 2 0
BITMAP
3E00
FF00
4380
0180
0180
0380
0700
3E00
3F00
0180
00C0
00C0
00C0
01C0
8180
FF80
7E00
ENDCHAR
STARTCHAR four
ENCODING 52
SWIDTH 600 0
DWIDTH 14 0
BBX 12 17 1 0
BITMAP
0380
0380
0780
0580
0D80
1980
1980
3180
3180
6180
C180
FFF0
FFF0
0180
0180
0180
0180
ENDCHAR
STARTCHAR five
ENCODING 53
SWIDTH 600 0
DWIDTH 14 0
BBX 10 17 2 0
BITMAP
7F80
7F80
C000
C000
C000
C000
FE00
FF80
0180
01C0
00C0
00C0
00C0
01C0
8180
FF00
7E00
ENDCHAR
STARTCHAR six
ENCODING 54
SWIDTH 600 0
DWIDTH 14 0
BBX 11 17 1 0
BITMAP
07C0
1FC0
3800
7000
6000
E000
CF00
DFC0
E0C0
E060
C060
C060
C060
60E0
70C0
3FC0
1F00
ENDCHAR
STARTCHAR seven
ENCODING 55
SWIDTH 600 0
DWIDTH 14 0
BBX 11 17 1 0
BITMAP
FFE0
FFE0
00E0
00C0
00C0
0180
0180
0300
0300
0700
0600
0E00
0C00
0C00
1800
1800
3800
ENDCHAR
STARTCHAR eight
ENCODING 56
SWIDTH 600 0
DWIDTH 14 0
BBX 11 17 1 0
BITMAP
1F00
3F80
71C0
60C0
60C0
71C0
3980
1F00
1F00
71C0
60C0
C060
C060
C060
E0E0
7FC0
1F00
ENDCHAR
STARTCHAR nine
ENCODING 57
SWIDTH 600 0
DWIDTH 14 0
BBX 11 17 1 0
BITMAP
1F00
7F80
61C0
E0C0
C060
C060
C060
C0E0
60E0
7F60
3E60
00E0
00C0
01C0
0380
7F00
7C00
ENDCHAR
STARTCHAR colon
ENCODING 58
SWIDTH 600 0
DWIDTH 14 0
BBX 3 13 5 0
BITMAP
E0
E0
E0
00
00
00
00
00
00
00
E0
E0
E0
ENDCHAR
STARTCHAR semicolon
ENCODING 59
SWIDTH 600 0
DWIDTH 14 0
BBX 4 16 4 -3
BITMAP
70
70
70
00
00
00
00
00
00
00
70
70
60
60
C0
C0
ENDCHAR
STARTCHAR less
ENCODING 60
SWIDTH 600 0
DWIDTH 14 0
BBX 10 12 2 2
BITMAP
0040
01C0
0780
1E00
3800
E000
E000
3800
1E00
0780
01C0
0040
ENDCHAR
STARTCHAR equal
ENCODING 61
SWIDTH 600 0
DWIDTH 14 0
BBX 10 7 2 5
BITMAP
FFC0
FFC0
0000
0000
0000
FFC0
FFC0
ENDCHAR
STARTCHAR greater
ENCODING 62
SWIDTH 600 0
DWIDTH 14 0
BBX 10 12 2 2
BITMAP
8000
E000
7800
1E00
0700
01C0
01C0
0700
1C00
7800
E000
8000
ENDCHAR
STARTCHAR question
ENCODING 63
SWIDTH 600 0
DWIDTH 14 0
BBX 10 17 2 0
BITMAP
3F00
FF80
41C0
00C0
00C0
00C0
0180
0380
0600
0C00
0C00
1800
0000
0000
1C00
1C00
1C00
ENDCHAR
STARTCHAR at
ENCODING 64
SWIDTH 600 0
DWIDTH 14 0
BBX 14 19 0 -2
BITMAP
07C0
1FF0
3030
6018
6008
47CC
CFCC
D8CC
D8CC
D8CC
D8CC
D8CC
CFF8
CF30
6000
6000
3000
1FF0
07E0
ENDCHAR
STARTCHAR A
ENCODING 65
SWIDTH 600 0
DWIDTH 14 0
BBX 14 17 0 0
BITMAP
0300
0780
0780
0780
0CC0
0CC0
0CC0
1860
1860
1860
3FF0
3FF0
3030
6018
6018
6018
C00C
ENDCHAR
STARTCHAR B
ENCODING 66
SWIDTH 600 0
DWIDTH 14 0
BBX 12 17 1 0
BITMAP
FF80
FFE0
C070
C030
C030
C070
C0E0
FF80
FFC0
C0E0
C070
C030
C030
C070
C0E0
FFE0
FF80
ENDCHAR
STARTCHAR C
ENCODING 67
SWIDTH 600 0
DWIDTH 14 0
BBX 12 17 1 0
BITMAP
07E0
1FF0
3820
7000
6000
E000
C000
C000
C000
C000
C000
E000
6000
7000
3800
1FF0
0FE0
ENDCHAR
STARTCHAR D
ENCODING 68
SWIDTH 600 0
DWIDTH 14 0
BBX 12 17 1 0
BITMAP
FE00
FF80
C1C0
C0E0
C060
C070
C030
C030
C030
C030
C070
C070
C060
C0E0
C1C0
FF80
FE00
ENDCHAR
STARTCHAR E
ENCODING 69
SWIDTH 600 0
DWIDTH 14 0
BBX 10 17 2 0
BITMAP
FFC0
FFC0
C000
C000
C000
C000
C000
FFC0
FFC0
C000
C000
C000
C000
C000
C000
FFC0
FFC0
ENDCHAR
STARTCHAR F
ENCODING 70
SWIDTH 600 0
DWIDTH 14 0
BBX 10 17 2 0
BITMAP
FFC0
FFC0
C000
C000
C000
C000
C000
FFC0
FFC0
C000
C000
C000
C000
C000
C000
C000
C000
ENDCHAR
STARTCHAR G
ENCODING 71
SWIDTH 600 0
DWIDTH 14 0
BBX 11 17 1 0
BITMAP
0FC0
1FE0
3840
7000
6000
E000
C000
C3E0
C3E0
C060
C060
E060
6060
6060
7060
3FE0
0FC0
ENDCHAR
STARTCHAR H
ENCODING 72
SWIDTH 600 0
DWIDTH 14 0
BBX 11 17 1 0
BITMAP
C060
C060
C060
C060
C060
C060
C060
FFE0
FFE0
C060
C060
C060
C060
C060
C060
C060
C060
ENDCHAR
STARTCHAR I
ENCODING 73
SWIDTH 600 0
DWIDTH 14 0
BBX 9 17 3 0
BITMAP
FF80
FF80
1800
1800
1800
1800
1800
1800
1800
1800
1800
1800
1800
1800
1800
FF80
FF80
ENDCHAR
STARTCHAR J
ENCODING 74
SWIDTH 600 0
DWIDTH 14 0
BBX 10 17 1 0
BITMAP
00C0
00C0
00C0
00C0
00C0
00C0
00C0
00C0
00C0
00C0
00C0
00C0
00C0
01C0
0380
FF00
FE00
ENDCHAR
STARTCHAR K
ENCODING 75
SWIDTH 600 0
DWIDTH 14 0
BBX 11 17 2 0
BITMAP
C060
C0C0
C180
C300
C600
CE00
CC00
D800
FC00
EC00
C600
C700
C300
C180
C1C0
C0C0
C060
ENDCHAR
STARTCHAR L
ENCODING 76
SWIDTH 600 0
DWIDTH 14 0
BBX 10 17 2 0
BITMAP
C000
C000
C000
C000
C000
C000
C000
C000
C000
C000
C000
C000
C000
C000
C000
FFC0
FFC0
ENDCHAR
STARTCHAR M
ENCODING 77
SWIDTH 600 0
DWIDTH 14 0
BBX 11 17 1 0
BITMAP
E0E0
E0E0
E0E0
E0E0
E160
D160
D160
D160
D160
D360
CA60
CA60
CA60
CA60
CE60
C460
C460
ENDCHAR
STARTCHAR N
ENCODING 78
SWIDTH 600 0
DWIDTH 14 0
BBX 11 17 1 0
BITMAP
E060
E060
F060
F060
D860
D860
C860
CC60
C460
C660
C260
C360
C160
C1E0
C1E0
C0E0
C0E0
ENDCHAR
STARTCHAR O
ENCODING 79
SWIDTH 600 0
DWIDTH 14 0
BBX 12 17 1 0
BITMAP
1F00
3FC0
70E0
6060
E060
E070
C030
C030
C030
C030
C030
E070
E060
6060
70E0
3FC0
1F00
ENDCHAR
STARTCHAR P
ENCODING 80
SWIDTH 600 0
DWIDTH 14 0
BBX 11 17 2 0
BITMAP
FF00
FFC0
C1C0
C0E0
C060
C060
C060
C0E0
C1C0
FF80
FE00
C000
C000
C000
C000
C000
C000
ENDCHAR
STARTCHAR Q
ENCODING 81
SWIDTH 600 0
DWIDTH 14 0
BBX 12 22 1 -5
BITMAP
1F00
3FC0
70E0
6060
E060
E070
C030
C030
C030
C030
C030
E070
E070
6060
70E0
3FC0
1F80
0180
00C0
00E0
0070
0020
ENDCHAR
STARTCHAR R
ENCODING 82
SWIDTH 600 0
DWIDTH 14 0
BBX 11 17 2 0
BITMAP
FE00
FF80
C1C0
C1C0
C0C0
C0C0
C1C0
C380
FF00
FE00
C600
C300
C380
C180
C1C0
C0C0
C060
ENDCHAR
STARTCHAR S
ENCODING 83
SWIDTH 600 0
DWIDTH 14 0
BBX 10 17 2 0
BITMAP
1F80
7FC0
E080
C000
C000
C000
E000
7C00
1F00
0780
01C0
00C0
00C0
00C0
81C0
FF80
7E00
ENDCHAR
STARTCHAR T
ENCODING 84
SWIDTH 600 0
DWIDTH 14 0
BBX 12 17 1 0
BITMAP
FFF0
FFF0
0600
0600
0600
0600
0600
0600
0600
0600
0600
0600
0600
0600
0600
0600
0600
ENDCHAR
STARTCHAR U
ENCODING 85
SWIDTH 600 0
DWIDTH 14 0
BBX 11 17 1 0
BITMAP
C060
C060
C060
C060
C060
C060
C060
C060
C060
C060
C060
C060
C060
E0E0
71C0
7FC0
1F00
ENDCHAR
STARTCHAR V
ENCODING 86
SWIDTH 600 0
DWIDTH 14 0
BBX 14 17 0 0
BITMAP
C01C
6018
6018
6018
3030
3030
3030
1860
1860
1860
0CC0
0CC0
0CC0
0780
0780
0780
0300
ENDCHAR
STARTCHAR W
ENCODING 87
SWIDTH 600 0
DWIDTH 14 0
BBX 14 17 0 0
BITMAP
C00C
C00C
C00C
C00C
6008
6318
6318
6798
6798
6498
6C98
6CD8
2CD0
2850
2870
3870
3030
ENDCHAR
STARTCHAR X
ENCODING 88
SWIDTH 600 0
DWIDTH 14 0
BBX 12 17 1 0
BITMAP
E070
6060
70E0
30C0
1980
1980
0F00
0F00
0600
0F00
0F00
1980
39C0
30C0
70E0
6060
E070
ENDCHAR
STARTCHAR Y
ENCODING 89
SWIDTH 600 0
DWIDTH 14 0
BBX 12 17 1 0
BITMAP
C030
6060
6060
30C0
30C0
1980
1980
0F00
0F00
0600
0600
0600
0600
0600
0600
0600
0600
ENDCHAR
STARTCHAR Z
ENCODING 90
SWIDTH 600 0
DWIDTH 14 0
BBX 12 17 1 0
BITMAP
FFF0
FFF0
0060
00E0
00C0
0180
0380
0300
0600
0C00
1C00
1800
3000
7000
6000
FFF0
FFF0
ENDCHAR
STARTCHAR bracketleft
ENCODING 91
SWIDTH 600 0
DWIDTH 14 0
BBX 6 21 5 -4
BITMAP
FC
FC
C0
C0
C0
C0
C0
C0
C0
C0
C0
C0
C0
C0
C0
C0
C0
C0
C0
FC
FC
ENDCHAR
STARTCHAR backslash
ENCODING 92
SWIDTH 600 0
DWIDTH 14 0
BBX 10 17 2 0
BITMAP
C000
6000
6000
3000
3000
1800
1800
1C00
0C00
0E00
0600
0600
0300
0300
0180
0180
00C0
ENDCHAR
STARTCHAR bracketright
ENCODING 93
SWIDTH 600 0
DWIDTH 14 0
BBX 6 21 2 -4
BITMAP
FC
FC
0C
0C
0C
0C
0C
0C
0C
0C
0C
0C
0C
0C
0C
0C
0C
0C
0C
FC
FC
ENDCHAR
STARTCHAR asciicircum
ENCODING 94
SWIDTH 600 0
DWIDTH 14 0
BBX 12 11 1 6
BITMAP
0600
0600
0F00
0900
1980
1080
30C0
30C0
6060
6060
C030
ENDCHAR
STARTCHAR underscore
ENCODING 95
SWIDTH 600 0
DWIDTH 14 0
BBX 14 1 0 -3
BITMAP
FFFC
ENDCHAR
STARTCHAR grave
ENCODING 96
SWIDTH 600 0
DWIDTH 14 0
BBX 5 4 4 15
BITMAP
E0
60
30
18
ENDCHAR
STARTCHAR a
ENCODING 97
SWIDTH 600 0
DWIDTH 14 0
BBX 10 13 2 0
BITMAP
3F00
7F80
01C0
00C0
00C0
1FC0
7EC0
E0C0
C0C0
C1C0
E1C0
7FC0
3CC0
ENDCHAR
STARTCHAR b
ENCODING 98
SWIDTH 600 0
DWIDTH 14 0
BBX 11 18 2 0
BITMAP
C000
C000
C000
C000
C000
CF00
FF80
E0C0
E0E0
C060
C060
C060
C060
C060
E0E0
E0C0
FF80
CF00
ENDCHAR
STARTCHAR c
ENCODING 99
SWIDTH 600 0
DWIDTH 14 0
BBX 10 13 2 0
BITMAP
1F80
3FC0
7000
E000
C000
C000
C000
C000
C000
E000
7000
3FC0
1FC0
ENDCHAR
STARTCHAR d
ENCODING 100
SWIDTH 600 0
DWIDTH 14 0
BBX 11 18 1 0
BITMAP
0060
0060
0060
0060
0060
1E60
3FE0
60E0
E0E0
C060
C060
C060
C060
C060
E0E0
60E0
3FE0
1E60
ENDCHAR
STARTCHAR e
ENCODING 101
SWIDTH 600 0
DWIDTH 14 0
BBX 12 13 1 0
BITMAP
0F80
3FC0
7060
6030
C030
FFF0
FFF0
C000
C000
6000
7000
3FE0
0FC0
ENDCHAR
STARTCHAR f
ENCODING 102
SWIDTH 600 0
DWIDTH 14 0
BBX 12 18 1 0
BITMAP
03F0
07F0
0E00
0C00
0C00
FFE0
FFE0
0C00
0C00
0C00
0C00
0C00
0C00
0C00
0C00
0C00
0C00
0C00
ENDCHAR
STARTCHAR g
ENCODING 103
SWIDTH 600 0
DWIDTH 14 0
BBX 13 19 1 -6
BITMAP
1FF8
3FE0
70E0
6060
6060
6060
3FC0
1F80
3000
3000
3000
3FC0
3FE0
6030
C030
C030
E070
7FE0
3F80
ENDCHAR
STARTCHAR h
ENCODING 104
SWIDTH 600 0
DWIDTH 14 0
BBX 10 18 2 0
BITMAP
C000
C000
C000
C000
C000
CF00
FF80
E1C0
E0C0
C0C0
C0C0
C0C0
C0C0
C0C0
C0C0
C0C0
C0C0
C0C0
ENDCHAR
STARTCHAR i
ENCODING 105
SWIDTH 600 0
DWIDTH 14 0
BBX 10 18 2 0
BITMAP
0C00
0C00
0C00
0000
0000
7C00
3C00
0C00
0C00
0C00
0C00
0C00
0C00
0C00
0C00
0C00
7FC0
FFC0
ENDCHAR
STARTCHAR j
ENCODING 106
SWIDTH 600 0
DWIDTH 14 0
BBX 8 24 2 -6
BITMAP
03
07
03
00
00
7F
3F
03
03
03
03
03
03
03
03
03
03
03
03
03
03
07
FE
FC
ENDCHAR
STARTCHAR k
ENCODING 107
SWIDTH 600 0
DWIDTH 14 0
BBX 10 18 3 0
BITMAP
C000
C000
C000
C000
C000
C1C0
C380
C700
CE00
CC00
D800
F800
EC00
C600
C600
C300
C380
C1C0
ENDCHAR
STARTCHAR l
ENCODING 108
SWIDTH 600 0
DWIDTH 14 0
BBX 10 18 2 0
BITMAP
7C00
3C00
0C00
0C00
0C00
0C00
0C00
0C00
0C00
0C00
0C00
0C00
0C00
0C00
0C00
0C00
7FC0
FFC0
ENDCHAR
STARTCHAR m
ENCODING 109
SWIDTH 600 0
DWIDTH 14 0
BBX 12 13 1 0
BITMAP
DCE0
FFF0
E730
C630
C630
C630
C630
C630
C630
C630
C630
C630
C630
ENDCHAR
STARTCHAR n
ENCODING 110
SWIDTH 600 0
DWIDTH 14 0
BBX 10 13 2 0
BITMAP
CF00
FF80
E1C0
E0C0
C0C0
C0C0
C0C0
C0C0
C0C0
C0C0
C0C0
C0C0
C0C0
ENDCHAR
STARTCHAR o
ENCODING 111
SWIDTH 600 0
DWIDTH 14 0
BBX 12 13 1 0
BITMAP
1F80
3FC0
70E0
E060
C030
C030
C030
C030
C030
6060
70E0
3FC0
1F80
ENDCHAR
STARTCHAR p
ENCODING 112
SWIDTH 600 0
DWIDTH 14 0
BBX 11 19 2 -6
BITMAP
CF00
FF80
E0C0
E0E0
C060
C060
C060
C060
C060
E0E0
E0C0
FF80
CF00
C000
C000
C000
C000
C000
C000
ENDCHAR
STARTCHAR q
ENCODING 113
SWIDTH 600 0
DWIDTH 14 0
BBX 11 19 1 -6
BITMAP
1E60
3F60
60E0
E0E0
C060
C060
C060
C060
C060
E0E0
60E0
3FE0
1E60
0060
0060
0060
0060
0060
0060
ENDCHAR
STARTCHAR r
ENCODING 114
SWIDTH 600 0
DWIDTH 14 0
BBX 9 13 3 0
BITMAP
CF80
DF80
F000
E000
C000
C000
C000
C000
C000
C000
C000
C000
C000
ENDCHAR
STARTCHAR s
ENCODING 115
SWIDTH 600 0
DWIDTH 14 0
BBX 10 13 2 0
BITMAP
3F80
7FC0
C000
C000
E000
7C00
1F00
0380
01C0
00C0
81C0
FF80
7F00
ENDCHAR
STARTCHAR t
ENCODING 116
SWIDTH 600 0
DWIDTH 14 0
BBX 10 16 2 0
BITMAP
0800
1800
1800
FFC0
FFC0
1800
1800
1800
1800
1800
1800
1800
1800
1C00
0FC0
07C0
ENDCHAR
STARTCHAR u
ENCODING 117
SWIDTH 600 0
DWIDTH 14 0
BBX 10 13 2 0
BITMAP
C0C0
C0C0
C0C0
C0C0
C0C0
C0C0
C0C0
C0C0
C0C0
C1C0
E1C0
7FC0
3CC0
ENDCHAR
STARTCHAR v
ENCODING 118
SWIDTH 600 0
DWIDTH 14 0
BBX 12 13 1 0
BITMAP
C030
6060
6060
6060
30C0
30C0
30C0
1980
1980
0980
0F00
0F00
0600
ENDCHAR
STARTCHAR w
ENCODING 119
SWIDTH 600 0
DWIDTH 14 0
BBX 14 13 0 0
BITMAP
C30C
C30C
C788
4788
6598
6498
6CD8
2CD0
2CD0
2850
2850
3870
1060
ENDCHAR
STARTCHAR x
ENCODING 120
SWIDTH 600 0
DWIDTH 14 0
BBX 12 13 1 0
BITMAP
6060
70E0
30C0
1980
1F80
0F00
0600
0F00
1F80
1980
30C0
6060
E070
ENDCHAR
STARTCHAR y
ENCODING 121
SWIDTH 600 0
DWIDTH 14 0
BBX 12 19 1 -6
BITMAP
C030
6060
6060
6060
30C0
30C0
19C0
1980
1980
0F80
0F00
0F00
0600
0600
0E00
0C00
1C00
F800
F000
ENDCHAR
STARTCHAR z
ENCODING 122
SWIDTH 600 0
DWIDTH 14 0
BBX 10 13 2 0
BITMAP
FFC0
FFC0
0180
0380
0300
0600
0C00
1800
3800
3000
6000
FFC0
FFC0
ENDCHAR
STARTCHAR braceleft
ENCODING 123
SWIDTH 600 0
DWIDTH 14 0
BBX 9 21 2 -4
BITMAP
0380
0780
0C00
0C00
0C00
0C00
0C00
0C00
1C00
F800
F800
1C00
0C00
0C00
0C00
0C00
0C00
0C00
0E00
0780
0380
ENDCHAR
STARTCHAR bar
ENCODING 124
SWIDTH 600 0
DWIDTH 14 0
BBX 2 24 6 -6
BITMAP
C0
C0
C0
C0
C0
C0
C0
C0
C0
C0
C0
C0
C0
C0
C0
C0
C0
C0
C0
C0
C0
C0
C0
C0
ENDCHAR
STARTCHAR braceright
ENCODING 125
SWIDTH 600 0
DWIDTH 14 0
BBX 9 21 3 -4
BITMAP
E000
F000
3800
1800
1800
1800
1800
1800
1C00
0F80
0F80
1C00
1800
1800
1800
1800
1800
1800
3800
F000
E000
ENDCHAR
STARTCHAR asciitilde
ENCODING 126
SWIDTH 600 0
DWIDTH 14 0
BBX 10 3 2 7
BITMAP
7840
FFC0
8780
ENDCHAR
STARTCHAR uni00A0
ENCODING 160
SWIDTH 600 0
DWIDTH 14 0
BBX 1 1 0 0
BITMAP
00
ENDCHAR
STARTCHAR exclamdown
ENCODING 161
SWIDTH 600 0
DWIDTH 14 0
BBX 3 17 6 -4
BITMAP
E0
E0
E0
00
00
40
40
40
40
40
40
E0
E0
E0
E0
E0
E0
ENDCHAR
STARTCHAR cent
ENCODING 162
SWIDTH 600 0
DWIDTH 14 0
BBX 11 17 1 0
BITMAP
0600
0600
1FE0
3FE0
7000
E000
E000
C000
C000
C000
C000
E000
7000
3FE0
1FC0
0600
0600
ENDCHAR
STARTCHAR sterling
ENCODING 163
SWIDTH 600 0
DWIDTH 14 0
BBX 12 17 1 0
BITMAP
0FC0
1FE0
3820
3000
3000
3000
3000
3000
FF80
FF80
3000
3000
3000
3000
6000
FFF0
FFF0
ENDCHAR
STARTCHAR currency
ENCODING 164
SWIDTH 600 0
DWIDTH 14 0
BBX 11 11 1 3
BITMAP
4040
FEE0
7FC0
71C0
60C0
60C0
60C0
71C0
7FC0
FFE0
4040
ENDCHAR
STARTCHAR yen
ENCODING 165
SWIDTH 600 0
DWIDTH 14 0
BBX 12 17 1 0
BITMAP
C030
6060
6060
30C0
30C0
1980
1980
0980
0F00
3FC0
3FC0
0600
3FC0
3FC0
0600
0600
0600
ENDCHAR
STARTCHAR brokenbar
ENCODING 166
SWIDTH 600 0
DWIDTH 14 0
BBX 2 24 6 -6
BITMAP
C0
C0
C0
C0
C0
C0
C0
C0
C0
00
00
00
00
00
00
C0
C0
C0
C0
C0
C0
C0
C0
C0
ENDCHAR
STARTCHAR section
ENCODING 167
SWIDTH 600 0
DWIDTH 14 0
BBX 8 18 3 0
BITMAP
3E
FF
C0
C0
E0
78
7E
C7
C3
C3
F3
3E
1E
07
03
03
FE
FC
ENDCHAR
STARTCHAR dieresis
ENCODING 168
SWIDTH 600 0
DWIDTH 14 0
BBX 7 3 3 15
BITMAP
C6
C6
C6
ENDCHAR
STARTCHAR copyright
ENCODING 169
SWIDTH 600 0
DWIDTH 14 0
BBX 14 17 0 0
BITMAP
0FC0
1CE0
2010
67D8
4FC8
CC0C
9804
9804
9804
9804
9804
CC0C
4FC8
67D8
2010
1CE0
0FC0
ENDCHAR
STARTCHAR ordfeminine
ENCODING 170
SWIDTH 600 0
DWIDTH 14 0
BBX 7 8 3 9
BITMAP
7C
4E
06
7E
E6
C6
CE
72
ENDCHAR
STARTCHAR guillemotleft
ENCODING 171
SWIDTH 600 0
DWIDTH 14 0
BBX 10 11 2 1
BITMAP
1080
18C0
3180
6300
6300
C600
6300
6300
3180
18C0
1080
ENDCHAR
STARTCHAR logicalnot
ENCODING 172
SWIDTH 600 0
DWIDTH 14 0
BBX 11 6 1 3
BITMAP
FFE0
FFE0
0060
0060
0060
0060
ENDCHAR
STARTCHAR uni00AD
ENCODING 173
SWIDTH 600 0
DWIDTH 14 0
BBX 8 2 3 5
BITMAP
FF
FF
ENDCHAR
STARTCHAR registered
ENCODING 174
SWIDTH 600 0
DWIDTH 14 0
BBX 14 17 0 0
BITMAP
0FC0
1CE0
2010
6F98
4FC8
CCCC
8CC4
8CC4
8F84
8F04
8D84
CDCC
4CC8
6C78
2010
1CE0
0FC0
ENDCHAR
STARTCHAR macron
ENCODING 175
SWIDTH 600 0
DWIDTH 14 0
BBX 15 1 0 18
BITMAP
FFFE
ENDCHAR
STARTCHAR degree
ENCODING 176
SWIDTH 600 0
DWIDTH 14 0
BBX 8 8 3 9
BITMAP
3C
7E
C3
C3
C3
C3
7E
3C
ENDCHAR
STARTCHAR plusminus
ENCODING 177
SWIDTH 600 0
DWIDTH 14 0
BBX 11 14 1 0
BITMAP
0600
0600
0600
0600
0600
FFE0
FFE0
0600
0600
0600
0600
0000
FFE0
FFE0
ENDCHAR
STARTCHAR uni00B2
ENCODING 178
SWIDTH 600 0
DWIDTH 14 0
BBX 6 9 4 8
BITMAP
78
DC
0C
0C
18
30
60
C0
FC
ENDCHAR
STARTCHAR uni00B3
ENCODING 179
SWIDTH 600 0
DWIDTH 14 0
BBX 6 9 4 8
BITMAP
78
CC
0C
18
38
0C
0C
DC
F8
ENDCHAR
STARTCHAR acute
ENCODING 180
SWIDTH 600 0
DWIDTH 14 0
BBX 5 4 4 15
BITMAP
38
30
60
C0
ENDCHAR
STARTCHAR mu
ENCODING 181
SWIDTH 600 0
DWIDTH 14 0
BBX 10 19 2 -6
BITMAP
C0C0
C0C0
C0C0
C0C0
C0C0
C0C0
C0C0
C0C0
C0C0
C1C0
E1C0
FFC0
DCC0
C000
C000
C000
C000
C000
C000
ENDCHAR
STARTCHAR paragraph
ENCODING 182
SWIDTH 600 0
DWIDTH 14 0
BBX 11 21 1 -3
BITMAP
3FE0
7FE0
7C20
FC20
FC20
FC20
FC20
FC20
FC20
FC20
7C20
3C20
0420
0420
0420
0420
0420
0420
0420
0420
0420
ENDCHAR
STARTCHAR periodcentered
ENCODING 183
SWIDTH 600 0
DWIDTH 14 0
BBX 3 3 5 7
BITMAP
E0
E0
E0
ENDCHAR
STARTCHAR cedilla
ENCODING 184
SWIDTH 600 0
DWIDTH 14 0
BBX 4 6 5 -6
BITMAP
60
40
70
30
30
E0
ENDCHAR
STARTCHAR uni00B9
ENCODING 185
SWIDTH 600 0
DWIDTH 14 0
BBX 4 9 5 8
BITMAP
30
F0
B0
30
30
30
30
30
30
ENDCHAR
STARTCHAR ordmasculine
ENCODING 186
SWIDTH 600 0
DWIDTH 14 0
BBX 8 8 3 9
BITMAP
3C
66
C3
C3
C3
C3
66
3C
ENDCHAR
STARTCHAR guillemotright
ENCODING 187
SWIDTH 600 0
DWIDTH 14 0
BBX 10 11 2 1
BITMAP
4200
C600
6300
3180
3180
18C0
3180
3180
6300
C600
4200
ENDCHAR
STARTCHAR onequarter
ENCODING 188
SWIDTH 600 0
DWIDTH 14 0
BBX 14 17 0 0
BITMAP
3030
F060
B060
30C0
30C0
3180
3180
3100
3318
0238
0678
0658
0CD8
0D98
19FC
1818
3018
ENDCHAR
STARTCHAR onehalf
ENCODING 189
SWIDTH 600 0
DWIDTH 14 0
BBX 13 17 0 0
BITMAP
3060
F0C0
B0C0
3180
3180
3300
3300
3200
36F0
05B8
0C18
0C18
1830
1860
30C0
3180
61F8
ENDCHAR
STARTCHAR threequarters
ENCODING 190
SWIDTH 600 0
DWIDTH 14 0
BBX 14 17 0 0
BITMAP
7830
CC30
0C60
1860
38C0
0CC0
0C80
DD80
F918
0338
0278
0658
06D8
0D98
0DFC
1818
1818
ENDCHAR
STARTCHAR questiondown
ENCODING 191
SWIDTH 600 0
DWIDTH 14 0
BBX 10 18 2 -5
BITMAP
0E00
0E00
0E00
0000
0000
0600
0C00
0C00
1C00
3800
7000
E000
C000
C000
C000
E080
7FC0
3F00
ENDCHAR
STARTCHAR Agrave
ENCODING 192
SWIDTH 600 0
DWIDTH 14 0
BBX 14 23 0 0
BITMAP
0E00
0600
0300
0180
0000
0000
0300
0780
0780
0780
0CC0
0CC0
0CC0
1860
1860
1860
3FF0
3FF0
3030
6018
6018
6018
C00C
ENDCHAR
STARTCHAR Aacute
ENCODING 193
SWIDTH 600 0
DWIDTH 14 0
BBX 14 23 0 0
BITMAP
00E0
00C0
0180
0300
0000
0000
0300
0780
0780
0780
0CC0
0CC0
0CC0
1860
1860
1860
3FF0
3FF0
3030
6018
6018
6018
C00C
ENDCHAR
STARTCHAR Acircumflex
ENCODING 194
SWIDTH 600 0
DWIDTH 14 0
BBX 14 23 0 0
BITMAP
0380
0380
06C0
0C60
0000
0000
0300
0780
0780
0780
0CC0
0CC0
0CC0
1860
1860
1860
3FF0
3FF0
3030
6018
6018
6018
C00C
ENDCHAR
STARTCHAR Atilde
ENCODING 195
SWIDTH 600 0
DWIDTH 14 0
BBX 14 23 0 0
BITMAP
0C20
1F60
19C0
10C0
0000
0000
0300
0780
0780
0780
0CC0
0CC0
0CC0
1860
1860
1860
3FF0
3FF0
3030
6018
6018
6018
C00C
ENDCHAR
STARTCHAR Adieresis
ENCODING 196
SWIDTH 600 0
DWIDTH 14 0
BBX 14 22 0 0
BITMAP
0C60
0C60
0C60
0000
0000
0300
0780
0780
0780
0CC0
0CC0
0CC0
1860
1860
1860
3FF0
3FF0
3030
6018
6018
6018
C00C
ENDCHAR
STARTCHAR Aring
ENCODING 197
SWIDTH 600 0
DWIDTH 14 0
BBX 14 21 0 0
BITMAP
0380
0440
0440
0440
0380
0780
0780
0780
0CC0
0CC0
0CC0
1860
1860
1860
3FF0
3FF0
3030
6018
6018
6018
C00C
ENDCHAR
STARTCHAR AE
ENCODING 198
SWIDTH 600 0
DWIDTH 14 0
BBX 13 17 0 0
BITMAP
0FF8
0FF8
1980
1980
1980
1980
3180
31F8
31F8
3180
3F80
7F80
6180
6180
6180
C1F8
C1F8
ENDCHAR
STARTCHAR Ccedilla
ENCODING 199
SWIDTH 600 0
DWIDTH 14 0
BBX 12 23 1 -6
BITMAP
07E0
1FF0
3820
7000
6000
E000
C000
C000
C000
C000
C000
E000
6000
7000
3800
1FF0
0FE0
0300
0200
0380
0180
0180
0700
ENDCHAR
STARTCHAR Egrave
ENCODING 200
SWIDTH 600 0
DWIDTH 14 0
BBX 10 23 2 0
BITMAP
3800
1800
0C00
0600
0000
0000
FFC0
FFC0
C000
C000
C000
C000
C000
FFC0
FFC0
C000
C000
C000
C000
C000
C000
FFC0
FFC0
ENDCHAR
STARTCHAR Eacute
ENCODING 201
SWIDTH 600 0
DWIDTH 14 0
BBX 10 23 2 0
BITMAP
0700
0600
0C00
1800
0000
0000
FFC0
FFC0
C000
C000
C000
C000
C000
FFC0
FFC0
C000
C000
C000
C000
C000
C000
FFC0
FFC0
ENDCHAR
STARTCHAR Ecircumflex
ENCODING 202
SWIDTH 600 0
DWIDTH 14 0
BBX 10 23 2 0
BITMAP
0E00
0E00
1B00
3180
0000
0000
FFC0
FFC0
C000
C000
C000
C000
C000
FFC0
FFC0
C000
C000
C000
C000
C000
C000
FFC0
FFC0
ENDCHAR
STARTCHAR Edieresis
ENCODING 203
SWIDTH 600 0
DWIDTH 14 0
BBX 10 22 2 0
BITMAP
3180
3180
3180
0000
0000
FFC0
FFC0
C000
C000
C000
C000
C000
FFC0
FFC0
C000
C000
C000
C000
C000
C000
FFC0
FFC0
ENDCHAR
STARTCHAR Igrave
ENCODING 204
SWIDTH 600 0
DWIDTH 14 0
BBX 9 23 3 0
BITMAP
7000
3000
1800
0C00
0000
0000
FF80
FF80
1800
1800
1800
1800
1800
1800
1800
1800
1800
1800
1800
1800
1800
FF80
FF80
ENDCHAR
STARTCHAR Iacute
ENCODING 205
SWIDTH 600 0
DWIDTH 14 0
BBX 9 23 3 0
BITMAP
0700
0600
0C00
1800
0000
0000
FF80
FF80
1800
1800
1800
1800
1800
1800
1800
1800
1800
1800
1800
1800
1800
FF80
FF80
ENDCHAR
STARTCHAR Icircumflex
ENCODING 206
SWIDTH 600 0
DWIDTH 14 0
BBX 9 23 3 0
BITMAP
1C00
1C00
3600
6300
0000
0000
FF80
FF80
1800
1800
1800
1800
1800
1800
1800
1800
1800
1800
1800
1800
1800
FF80
FF80
ENDCHAR
STARTCHAR Idieresis
ENCODING 207
SWIDTH 600 0
DWIDTH 14 0
BBX 9 22 3 0
BITMAP
6300
6300
6300
0000
0000
FF80
FF80
1800
1800
1800
1800
1800
1800
1800
1800
1800
1800
1800
1800
1800
FF80
FF80
ENDCHAR
STARTCHAR Eth
ENCODING 208
SWIDTH 600 0
DWIDTH 14 0
BBX 14 17 -1 0
BITMAP
3F80
3FE0
3070
3038
3018
301C
300C
FF8C
FF8C
300C
301C
301C
3018
3038
3070
3FE0
3F80
ENDCHAR
STARTCHAR Ntilde
ENCODING 209
SWIDTH 600 0
DWIDTH 14 0
BBX 11 23 1 0
BITMAP
1840
3EC0
3380
2180
0000
0000
E060
E060
F060
F060
D860
D860
C860
CC60
C460
C660
C260
C360
C160
C1E0
C1E0
C0E0
C0E0
ENDCHAR
STARTCHAR Ograve
ENCODING 210
SWIDTH 600 0
DWIDTH 14 0
BBX 12 23 1 0
BITMAP
1C00
0C00
0600
0300
0000
0000
1F00
3FC0
70E0
6060
E060
E070
C030
C030
C030
C030
C030
E070
E060
6060
70E0
3FC0
1F00
ENDCHAR
STARTCHAR Oacute
ENCODING 211
SWIDTH 600 0
DWIDTH 14 0
BBX 12 23 1 0
BITMAP
01C0
0180
0300
0600
0000
0000
1F00
3FC0
70E0
6060
E060
E070
C030
C030
C030
C030
C030
E070
E060
6060
70E0
3FC0
1F00
ENDCHAR
STARTCHAR Ocircumflex
ENCODING 212
SWIDTH 600 0
DWIDTH 14 0
BBX 12 23 1 0
BITMAP
0700
0700
0D80
18C0
0000
0000
1F00
3FC0
70E0
6060
E060
E070
C030
C030
C030
C030
C030
E070
E060
6060
70E0
3FC0
1F00
ENDCHAR
STARTCHAR Otilde
ENCODING 213
SWIDTH 600 0
DWIDTH 14 0
BBX 12 23 1 0
BITMAP
1840
3EC0
3380
2180
0000
0000
1F00
3FC0
70E0
6060
E060
E070
C030
C030
C030
C030
C030
E070
E060
6060
70E0
3FC0
1F00
ENDCHAR
STARTCHAR Odieresis
ENCODING 214
SWIDTH 600 0
DWIDTH 14 0
BBX 12 22 1 0
BITMAP
18C0
18C0
18C0
0000
0000
1F00
3FC0
70E0
6060
E060
E070
C030
C030
C030
C030
C030
E070
E060
6060
70E0
3FC0
1F00
ENDCHAR
STARTCHAR multiply
ENCODING 215
SWIDTH 600 0
DWIDTH 14 0
BBX 9 9 2 4
BITMAP
C180
E380
7700
3E00
1C00
3E00
7700
E380
C180
ENDCHAR
STARTCHAR Oslash
ENCODING 216
SWIDTH 600 0
DWIDTH 14 0
BBX 12 18 1 -1
BITMAP
1F30
3FE0
70E0
60E0
E1F0
E1F0
C330
C330
C630
CC30
CC30
F870
F860
7060
70E0
7FC0
DF00
4000
ENDCHAR
STARTCHAR Ugrave
ENCODING 217
SWIDTH 600 0
DWIDTH 14 0
BBX 11 23 1 0
BITMAP
3800
1800
0C00
0600
0000
0000
C060
C060
C060
C060
C060
C060
C060
C060
C060
C060
C060
C060
C060
E0E0
71C0
7FC0
1F00
ENDCHAR
STARTCHAR Uacute
ENCODING 218
SWIDTH 600 0
DWIDTH 14 0
BBX 11 23 1 0
BITMAP
0380
0300
0600
0C00
0000
0000
C060
C060
C060
C060
C060
C060
C060
C060
C060
C060
C060
C060
C060
E0E0
71C0
7FC0
1F00
ENDCHAR
STARTCHAR Ucircumflex
ENCODING 219
SWIDTH 600 0
DWIDTH 14 0
BBX 11 23 1 0
BITMAP
0E00
0E00
1B00
3180
0000
0000
C060
C060
C060
C060
C060
C060
C060
C060
C060
C060
C060
C060
C060
E0E0
71C0
7FC0
1F00
ENDCHAR
STARTCHAR Udieresis
ENCODING 220
SWIDTH 600 0
DWIDTH 14 0
BBX 11 22 1 0
BITMAP
3180
3180
3180
0000
0000
C060
C060
C060
C060
C060
C060
C060
C060
C060
C060
C060
C060
C060
E0E0
71C0
7FC0
1F00
ENDCHAR
STARTCHAR Yacute
ENCODING 221
SWIDTH 600 0
DWIDTH 14 0
BBX 12 23 1 0
BITMAP
01C0
0180
0300
0600
0000
0000
C030
6060
6060
30C0
30C0
1980
1980
0F00
0F00
0600
0600
0600
0600
0600
0600
0600
0600
ENDCHAR
STARTCHAR Thorn
ENCODING 222
SWIDTH 600 0
DWIDTH 14 0
BBX 11 17 2 0
BITMAP
C000
C000
C000
FF00
FFC0
C1E0
C0E0
C060
C060
C0E0
C1C0
FF80
FF00
C000
C000
C000
C000
ENDCHAR
STARTCHAR germandbls
ENCODING 223
SWIDTH 600 0
DWIDTH 14 0
BBX 11 18 2 0
BITMAP
3E00
7F00
E380
C180
C180
C300
C600
CC00
CC00
CE00
C780
C3C0
C0E0
C060
C060
C060
CFC0
CF80
ENDCHAR
STARTCHAR agrave
ENCODING 224
SWIDTH 600 0
DWIDTH 14 0
BBX 10 19 2 0
BITMAP
3800
1800
0C00
0600
0000
0000
3F00
7F80
01C0
00C0
00C0
1FC0
7EC0
E0C0
C0C0
C1C0
E1C0
7FC0
3CC0
ENDCHAR
STARTCHAR aacute
ENCODING 225
SWIDTH 600 0
DWIDTH 14 0
BBX 10 19 2 0
BITMAP
0380
0300
0600
0C00
0000
0000
3F00
7F80
01C0
00C0
00C0
1FC0
7EC0
E0C0
C0C0
C1C0
E1C0
7FC0
3CC0
ENDCHAR
STARTCHAR acircumflex
ENCODING 226
SWIDTH 600 0
DWIDTH 14 0
BBX 10 19 2 0
BITMAP
0E00
0E00
1B00
3180
0000
0000
3F00
7F80
01C0
00C0
00C0
1FC0
7EC0
E0C0
C0C0
C1C0
E1C0
7FC0
3CC0
ENDCHAR
STARTCHAR atilde
ENCODING 227
SWIDTH 600 0
DWIDTH 14 0
BBX 10 19 2 0
BITMAP
1840
3EC0
3380
2180
0000
0000
3F00
7F80
01C0
00C0
00C0
1FC0
7EC0
E0C0
C0C0
C1C0
E1C0
7FC0
3CC0
ENDCHAR
STARTCHAR adieresis
ENCODING 228
SWIDTH 600 0
DWIDTH 14 0
BBX 10 18 2 0
BITMAP
3180
3180
3180
0000
0000
3F00
7F80
01C0
00C0
00C0
1FC0
7EC0
E0C0
C0C0
C1C0
E1C0
7FC0
3CC0
ENDCHAR
STARTCHAR aring
ENCODING 229
SWIDTH 600 0
DWIDTH 14 0
BBX 10 20 2 0
BITMAP
0E00
1100
1100
1100
0E00
0000
0000
3F00
7F80
01C0
00C0
00C0
1FC0
7EC0
E0C0
C0C0
C1C0
E1C0
7FC0
3CC0
ENDCHAR
STARTCHAR ae
ENCODING 230
SWIDTH 600 0
DWIDTH 14 0
BBX 13 13 0 0
BITMAP
38E0
7DF0
4730
0618
0618
3FF8
7FF8
E600
C600
C700
CF08
F9F8
70F0
ENDCHAR
STARTCHAR ccedilla
ENCODING 231
SWIDTH 600 0
DWIDTH 14 0
BBX 10 19 2 -6
BITMAP
1F80
3FC0
7000
E000
C000
C000
C000
C000
C000
E000
7000
3FC0
1FC0
0600
0400
0700
0300
0300
0E00
ENDCHAR
STARTCHAR egrave
ENCODING 232
SWIDTH 600 0
DWIDTH 14 0
BBX 12 19 1 0
BITMAP
1C00
0C00
0600
0300
0000
0000
0F80
3FC0
7060
6030
C030
FFF0
FFF0
C000
C000
6000
7000
3FE0
0FC0
ENDCHAR
STARTCHAR eacute
ENCODING 233
SWIDTH 600 0
DWIDTH 14 0
BBX 12 19 1 0
BITMAP
01C0
0180
0300
0600
0000
0000
0F80
3FC0
7060
6030
C030
FFF0
FFF0
C000
C000
6000
7000
3FE0
0FC0
ENDCHAR
STARTCHAR ecircumflex
ENCODING 234
SWIDTH 600 0
DWIDTH 14 0
BBX 12 19 1 0
BITMAP
0700
0700
0D80
18C0
0000
0000
0F80
3FC0
7060
6030
C030
FFF0
FFF0
C000
C000
6000
7000
3FE0
0FC0
ENDCHAR
STARTCHAR edieresis
ENCODING 235
SWIDTH 600 0
DWIDTH 14 0
BBX 12 18 1 0
BITMAP
18C0
18C0
18C0
0000
0000
0F80
3FC0
7060
6030
C030
FFF0
FFF0
C000
C000
6000
7000
3FE0
0FC0
ENDCHAR
STARTCHAR igrave
ENCODING 236
SWIDTH 600 0
DWIDTH 14 0
BBX 10 19 2 0
BITMAP
3800
1800
0C00
0600
0000
0000
7C00
3C00
0C00
0C00
0C00
0C00
0C00
0C00
0C00
0C00
0C00
7FC0
FFC0
ENDCHAR
STARTCHAR iacute
ENCODING 237
SWIDTH 600 0
DWIDTH 14 0
BBX 10 19 2 0
BITMAP
0380
0300
0600
0C00
0000
0000
7C00
3C00
0C00
0C00
0C00
0C00
0C00
0C00
0C00
0C00
0C00
7FC0
FFC0
ENDCHAR
STARTCHAR icircumflex
ENCODING 238
SWIDTH 600 0
DWIDTH 14 0
BBX 10 19 2 0
BITMAP
0E00
0E00
1B00
3180
0000
0000
7C00
3C00
0C00
0C00
0C00
0C00
0C00
0C00
0C00
0C00
0C00
7FC0
FFC0
ENDCHAR
STARTCHAR idieresis
ENCODING 239
SWIDTH 600 0
DWIDTH 14 0
BBX 10 18 2 0
BITMAP
3180
3180
3180
0000
0000
7C00
3C00
0C00
0C00
0C00
0C00
0C00
0C00
0C00
0C00
0C00
7FC0
FFC0
ENDCHAR
STARTCHAR eth
ENCODING 240
SWIDTH 600 0
DWIDTH 14 0
BBX 12 18 1 0
BITMAP
1840
1FE0
0700
3D80
10C0
0060
0060
1F60
7FF0
6070
E070
C030
C030
C030
E060
6060
3FC0
1F80
ENDCHAR
STARTCHAR ntilde
ENCODING 241
SWIDTH 600 0
DWIDTH 14 0
BBX 10 19 2 0
BITMAP
3080
7D80
6700
4300
0000
0000
CF00
FF80
E1C0
E0C0
C0C0
C0C0
C0C0
C0C0
C0C0
C0C0
C0C0
C0C0
C0C0
ENDCHAR
STARTCHAR ograve
ENCODING 242
SWIDTH 600 0
DWIDTH 14 0
BBX 12 19 1 0
BITMAP
1C00
0C00
0600
0300
0000
0000
1F80
3FC0
70E0
E060
C030
C030
C030
C030
C030
6060
70E0
3FC0
1F80
ENDCHAR
STARTCHAR oacute
ENCODING 243
SWIDTH 600 0
DWIDTH 14 0
BBX 12 19 1 0
BITMAP
01C0
0180
0300
0600
0000
0000
1F80
3FC0
70E0
E060
C030
C030
C030
C030
C030
6060
70E0
3FC0
1F80
ENDCHAR
STARTCHAR ocircumflex
ENCODING 244
SWIDTH 600 0
DWIDTH 14 0
BBX 12 19 1 0
BITMAP
0700
0700
0D80
18C0
0000
0000
1F80
3FC0
70E0
E060
C030
C030
C030
C030
C030
6060
70E0
3FC0
1F80
ENDCHAR
STARTCHAR otilde
ENCODING 245
SWIDTH 600 0
DWIDTH 14 0
BBX 12 19 1 0
BITMAP
1840
3EC0
3380
2180
0000
0000
1F80
3FC0
70E0
E060
C030
C030
C030
C030
C030
6060
70E0
3FC0
1F80
ENDCHAR
STARTCHAR odieresis
ENCODING 246
SWIDTH 600 0
DWIDTH 14 0
BBX 12 18 1 0
BITMAP
18C0
18C0
18C0
0000
0000
1F80
3FC0
70E0
E060
C030
C030
C030
C030
C030
6060
70E0
3FC0
1F80
ENDCHAR
STARTCHAR divide
ENCODING 247
SWIDTH 600 0
DWIDTH 14 0
BBX 12 12 1 2
BITMAP
0600
0600
0200
0000
0000
FFF0
FFF0
0000
0000
0200
0600
0600
ENDCHAR
STARTCHAR oslash
ENCODING 248
SWIDTH 600 0
DWIDTH 14 0
BBX 12 13 1 0
BITMAP
1FE0
3FE0
70E0
E1E0
C330
C330
C630
CC30
CC30
F860
70E0
3FC0
7F80
ENDCHAR
STARTCHAR ugrave
ENCODING 249
SWIDTH 600 0
DWIDTH 14 0
BBX 10 19 2 0
BITMAP
3800
1800
0C00
0600
0000
0000
C0C0
C0C0
C0C0
C0C0
C0C0
C0C0
C0C0
C0C0
C0C0
C1C0
E1C0
7FC0
3CC0
ENDCHAR
STARTCHAR uacute
ENCODING 250
SWIDTH 600 0
DWIDTH 14 0
BBX 10 19 2 0
BITMAP
0380
0300
0600
0C00
0000
0000
C0C0
C0C0
C0C0
C0C0
C0C0
C0C0
C0C0
C0C0
C0C0
C1C0
E1C0
7FC0
3CC0
ENDCHAR
STARTCHAR ucircumflex
ENCODING 251
SWIDTH 600 0
DWIDTH 14 0
BBX 10 19 2 0
BITMAP
0E00
0E00
1B00
3180
0000
0000
C0C0
C0C0
C0C0
C0C0
C0C0
C0C0
C0C0
C0C0
C0C0
C1C0
E1C0
7FC0
3CC0
ENDCHAR
STARTCHAR udieresis
ENCODING 252
SWIDTH 600 0
DWIDTH 14 0
BBX 10 18 2 0
BITMAP
3180
3180
3180
0000
0000
C0C0
C0C0
C0C0
C0C0
C0C0
C0C0
C0C0
C0C0
C0C0
C1C0
E1C0
7FC0
3CC0
ENDCHAR
STARTCHAR yacute
ENCODING 253
SWIDTH 600 0
DWIDTH 14 0
BBX 12 25 1 -6
BITMAP
01C0
0180
0300
0600
0000
0000
C030
6060
6060
6060
30C0
30C0
19C0
1980
1980
0F80
0F00
0F00
0600
0600
0E00
0C00
1C00
F800
F000
ENDCHAR
STARTCHAR thorn
ENCODING 254
SWIDTH 600 0
DWIDTH 14 0
BBX 11 24 2 -6
BITMAP
C000
C000
C000
C000
C000
CF00
FF80
E0C0
E0E0
C060
C060
C060
C060
C060
E0E0
E0C0
FF80
CF00
C000
C000
C000
C000
C000
C000
ENDCHAR
STARTCHAR ydieresis
ENCODING 255
SWIDTH 600 0
DWIDTH 14 0
BBX 12 24 1 -6
BITMAP
18C0
18C0
18C0
0000
0000
C030
6060
6060
6060
30C0
30C0
19C0
1980
1980
0F80
0F00
0F00
0600
0600
0E00
0C00
1C00
F800
F000
ENDCHAR
STARTCHAR .notdef
ENCODING -1
SWIDTH 600 0
DWIDTH 14 0
BBX 10 17 2 0
BITMAP
FFC0
8040
8040
8040
8040
8040
8040
8040
8040
8040
8040
8040
8040
8040
8040
8040
FFC0
ENDCHAR
STARTCHAR Amacron
ENCODING -1
SWIDTH 600 0
DWIDTH 14 0
BBX 14 22 0 0
BITMAP
1FE0
1FE0
0000
0000
0000
0300
0780
0780
0780
0CC0
0CC0
0CC0
1860
1860
1860
3FF0
3FF0
3030
6018
6018
6018
C00C
ENDCHAR
STARTCHAR amacron
ENCODING -1
SWIDTH 600 0
DWIDTH 14 0
BBX 10 18 2 0
BITMAP
3FC0
3FC0
0000
0000
0000
3F00
7F80
01C0
00C0
00C0
1FC0
7EC0
E0C0
C0C0
C1C0
E1C0
7FC0
3CC0
ENDCHAR
STARTCHAR Abreve
ENCODING -1
SWIDTH 600 0
DWIDTH 14 0
BBX 14 23 0 0
BITMAP
1020
1860
0FC0
0780
0000
0000
0300
0780
0780
0780
0CC0
0CC0
0CC0
1860
1860
1860
3FF0
3FF0
3030
6018
6018
6018
C00C
ENDCHAR
STARTCHAR abreve
ENCODING -1
SWIDTH 600 0
DWIDTH 14 0
BBX 10 19 2 0
BITMAP
2040
30C0
1F80
0F00
0000
0000
3F00
7F80
01C0
00C0
00C0
1FC0
7EC0
E0C0
C0C0
C1C0
E1C0
7FC0
3CC0
ENDCHAR
STARTCHAR Aogonek
ENCODING -1
SWIDTH 600 0
DWIDTH 14 0
BBX 15 22 0 -5
BITMAP
0300
0780
0780
0780
0CC0
0CC0
0CC0
1860
1860
1860
3FF0
3FF0
3030
6018
6018
6018
C00C
0018
0030
0030
003A
001E
ENDCHAR
STARTCHAR aogonek
ENCODING -1
SWIDTH 600 0
DWIDTH 14 0
BBX 11 18 2 -5
BITMAP
3F00
7F80
01C0
00C0
00C0
1FC0
7EC0
E0C0
C0C0
C1C0
E1C0
7FC0
3CC0
0180
0300
0300
03A0
01E0
ENDCHAR
STARTCHAR Cacute
ENCODING -1
SWIDTH 600 0
DWIDTH 14 0
BBX 12 23 1 0
BITMAP
00E0
00C0
0180
0300
0000
0000
07E0
1FF0
3820
7000
6000
E000
C000
C000
C000
C000
C000
E000
6000
7000
3800
1FF0
0FE0
ENDCHAR
STARTCHAR cacute
ENCODING -1
SWIDTH 600 0
DWIDTH 14 0
BBX 10 19 2 0
BITMAP
01C0
0180
0300
0600
0000
0000
1F80
3FC0
7000
E000
C000
C000
C000
C000
C000
E000
7000
3FC0
1FC0
ENDCHAR
STARTCHAR Ccircumflex
ENCODING -1
SWIDTH 600 0
DWIDTH 14 0
BBX 12 23 1 0
BITMAP
0380
0380
06C0
0C60
0000
0000
07E0
1FF0
3820
7000
6000
E000
C000
C000
C000
C000
C000
E000
6000
7000
3800
1FF0
0FE0
ENDCHAR
STARTCHAR ccircumflex
ENCODING -1
SWIDTH 600 0
DWIDTH 14 0
BBX 10 19 2 0
BITMAP
0700
0700
0D80
18C0
0000
0000
1F80
3FC0
7000
E000
C000
C000
C000
C000
C000
E000
7000
3FC0
1FC0
ENDCHAR
STARTCHAR Cdotaccent
ENCODING -1
SWIDTH 600 0
DWIDTH 14 0
BBX 12 22 1 0
BITMAP
0180
0180
0180
0000
0000
07E0
1FF0
3820
7000
6000
E000
C000
C000
C000
C000
C000
E000
6000
7000
3800
1FF0
0FE0
ENDCHAR
STARTCHAR cdotaccent
ENCODING -1
SWIDTH 600 0
DWIDTH 14 0
BBX 10 18 2 0
BITMAP
0600
0600
0600
0000
0000
1F80
3FC0
7000
E000
C000
C000
C000
C000
C000
E000
7000
3FC0
1FC0
ENDCHAR
STARTCHAR Ccaron
ENCODING -1
SWIDTH 600 0
DWIDTH 14 0
BBX 12 23 1 0
BITMAP
0C60
06C0
0380
0380
0000
0000
07E0
1FF0
3820
7000
6000
E000
C000
C000
C000
C000
C000
E000
6000
7000
3800
1FF0
0FE0
ENDCHAR
STARTCHAR ccaron
ENCODING -1
SWIDTH 600 0
DWIDTH 14 0
BBX 10 19 2 0
BITMAP
18C0
0D80
0700
0700
0000
0000
1F80
3FC0
7000
E000
C000
C000
C000
C000
C000
E000
7000
3FC0
1FC0
ENDCHAR
STARTCHAR Dcaron
ENCODING -1
SWIDTH 600 0
DWIDTH 14 0
BBX 12 23 1 0
BITMAP
3180
1B00
0E00
0E00
0000
0000
FE00
FF80
C1C0
C0E0
C060
C070
C030
C030
C030
C030
C070
C070
C060
C0E0
C1C0
FF80
FE00
ENDCHAR
STARTCHAR dcaron
ENCODING -1
SWIDTH 600 0
DWIDTH 14 0
BBX 15 18 0 0
BITMAP
0066
006E
006C
006C
0060
1E60
3FE0
60E0
E0E0
C060
C060
C060
C060
C060
E0E0
60E0
3FE0
1E60
ENDCHAR
STARTCHAR Dcroat
ENCODING -1
SWIDTH 600 0
DWIDTH 14 0
BBX 14 17 -1 0
BITMAP
3F80
3FE0
3070
3038
3018
301C
300C
FF8C
FF8C
300C
301C
301C
3018
3038
3070
3FE0
3F80
ENDCHAR
STARTCHAR dcroat
ENCODING -1
SWIDTH 600 0
DWIDTH 14 0
BBX 13 18 1 0
BITMAP
0060
0060
0FF8
0FF8
0060
1E60
3FE0
60E0
E0E0
C060
C060
C060
C060
C060
E0E0
60E0
3FE0
1E60
ENDCHAR
STARTCHAR Emacron
ENCODING -1
SWIDTH 600 0
DWIDTH 14 0
BBX 10 22 2 0
BITMAP
7F80
7F80
0000
0000
0000
FFC0
FFC0
C000
C000
C000
C000
C000
FFC0
FFC0
C000
C000
C000
C000
C000
C000
FFC0
FFC0
ENDCHAR
STARTCHAR emacron
ENCODING -1
SWIDTH 600 0
DWIDTH 14 0
BBX 12 18 1 0
BITMAP
3FC0
3FC0
0000
0000
0000
0F80
3FC0
7060
6030
C030
FFF0
FFF0
C000
C000
6000
7000
3FE0
0FC0
ENDCHAR
STARTCHAR Ebreve
ENCODING -1
SWIDTH 600 0
DWIDTH 14 0
BBX 10 23 2 0
BITMAP
4080
6180
3F00
1E00
0000
0000
FFC0
FFC0
C000
C000
C000
C000
C000
FFC0
FFC0
C000
C000
C000
C000
C000
C000
FFC0
FFC0
ENDCHAR
STARTCHAR ebreve
ENCODING -1
SWIDTH 600 0
DWIDTH 14 0
BBX 12 19 1 0
BITMAP
2040
30C0
1F80
0F00
0000
0000
0F80
3FC0
7060
6030
C030
FFF0
FFF0
C000
C000
6000
7000
3FE0
0FC0
ENDCHAR
STARTCHAR Edotaccent
ENCODING -1
SWIDTH 600 0
DWIDTH 14 0
BBX 10 22 2 0
BITMAP
0C00
0C00
0C00
0000
0000
FFC0
FFC0
C000
C000
C000
C000
C000
FFC0
FFC0
C000
C000
C000
C000
C000
C000
FFC0
FFC0
ENDCHAR
STARTCHAR edotaccent
ENCODING -1
SWIDTH 600 0
DWIDTH 14 0
BBX 12 18 1 0
BITMAP
0300
0300
0300
0000
0000
0F80
3FC0
7060
6030
C030
FFF0
FFF0
C000
C000
6000
7000
3FE0
0FC0
ENDCHAR
STARTCHAR Eogonek
ENCODING -1
SWIDTH 600 0
DWIDTH 14 0
BBX 10 22 2 -5
BITMAP
FFC0
FFC0
C000
C000
C000
C000
C000
FFC0
FFC0
C000
C000
C000
C000
C000
C000
FFC0
FFC0
0300
0600
0600
0740
03C0
ENDCHAR
STARTCHAR eogonek
ENCODING -1
SWIDTH 600 0
DWIDTH 14 0
BBX 12 18 1 -5
BITMAP
0F80
3FC0
7060
6030
C030
FFF0
FFF0
C000
C000
6000
7000
3FE0
0FC0
0180
0300
0300
03A0
01E0
ENDCHAR
STARTCHAR Ecaron
ENCODING -1
SWIDTH 600 0
DWIDTH 14 0
BBX 10 23 2 0
BITMAP
3180
1B00
0E00
0E00
0000
0000
FFC0
FFC0
C000
C000
C000
C000
C000
FFC0
FFC0
C000
C000
C000
C000
C000
C000
FFC0
FFC0
ENDCHAR
STARTCHAR ecaron
ENCODING -1
SWIDTH 600 0
DWIDTH 14 0
BBX 12 19 1 0
BITMAP
18C0
0D80
0700
0700
0000
0000
0F80
3FC0
7060
6030
C030
FFF0
FFF0
C000
C000
6000
7000
3FE0
0FC0
ENDCHAR
STARTCHAR Gcircumflex
ENCODING -1
SWIDTH 600 0
DWIDTH 14 0
BBX 11 23 1 0
BITMAP
0700
0700
0D80
18C0
0000
0000
0FC0
1FE0
3840
7000
6000
E000
C000
C3E0
C3E0
C060
C060
E060
6060
6060
7060
3FE0
0FC0
ENDCHAR
STARTCHAR gcircumflex
ENCODING -1
SWIDTH 600 0
DWIDTH 14 0
BBX 13 25 1 -6
BITMAP
0700
0700
0D80
18C0
0000
0000
1FF8
3FE0
70E0
6060
6060
6060
3FC0
1F80
3000
3000
3000
3FC0
3FE0
6030
C030
C030
E070
7FE0
3F80
ENDCHAR
STARTCHAR Gbreve
ENCODING -1
SWIDTH 600 0
DWIDTH 14 0
BBX 11 23 1 0
BITMAP
1020
1860
0FC0
0780
0000
0000
0FC0
1FE0
3840
7000
6000
E000
C000
C3E0
C3E0
C060
C060
E060
6060
6060
7060
3FE0
0FC0
ENDCHAR
STARTCHAR gbreve
ENCODING -1
SWIDTH 600 0
DWIDTH 14 0
BBX 13 25 1 -6
BITMAP
2040
30C0
1F80
0F00
0000
0000
1FF8
3FE0
70E0
6060
6060
6060
3FC0
1F80
3000
3000
3000
3FC0
3FE0
6030
C030
C030
E070
7FE0
3F80
ENDCHAR
STARTCHAR Gdotaccent
ENCODING -1
SWIDTH 600 0
DWIDTH 14 0
BBX 11 22 1 0
BITMAP
0300
0300
0300
0000
0000
0FC0
1FE0
3840
7000
6000
E000
C000
C3E0
C3E0
C060
C060
E060
6060
6060
7060
3FE0
0FC0
ENDCHAR
STARTCHAR gdotaccent
ENCODING -1
SWIDTH 600 0
DWIDTH 14 0
BBX 13 24 1 -6
BITMAP
0300
0300
0300
0000
0000
1FF8
3FE0
70E0
6060
6060
6060
3FC0
1F80
3000
3000
3000
3FC0
3FE0
6030
C030
C030
E070
7FE0
3F80
ENDCHAR
STARTCHAR uni0122
ENCODING -1
SWIDTH 600 0
DWIDTH 14 0
BBX 11 22 1 -5
BITMAP
0FC0
1FE0
3840
7000
6000
E000
C000
C3E0
C3E0
C060
C060
E060
6060
6060
7060
3FE0
0FC0
0000
0300
0300
0600
0600
ENDCHAR
STARTCHAR uni0123
ENCODING -1
SWIDTH 600 0
DWIDTH 14 0
BBX 13 25 1 -6
BITMAP
0180
0180
0300
0300
0000
0000
1FF8
3FE0
70E0
6060
6060
6060
3FC0
1F80
3000
3000
3000
3FC0
3FE0
6030
C030
C030
E070
7FE0
3F80
ENDCHAR
STARTCHAR Hcircumflex
ENCODING -1
SWIDTH 600 0
DWIDTH 14 0
BBX 11 23 1 0
BITMAP
0E00
0E00
1B00
3180
0000
0000
C060
C060
C060
C060
C060
C060
C060
FFE0
FFE0
C060
C060
C060
C060
C060
C060
C060
C060
ENDCHAR
STARTCHAR hcircumflex
ENCODING -1
SWIDTH 600 0
DWIDTH 14 0
BBX 10 24 2 0
BITMAP
0E00
0E00
1B00
3180
0000
0000
C000
C000
C000
C000
C000
CF00
FF80
E1C0
E0C0
C0C0
C0C0
C0C0
C0C0
C0C0
C0C0
C0C0
C0C0
C0C0
ENDCHAR
STARTCHAR Hbar
ENCODING -1
SWIDTH 600 0
DWIDTH 14 0
BBX 15 17 -1 0
BITMAP
3018
3018
3018
FFFE
FFFE
3018
3018
3FF8
3FF8
3018
3018
3018
3018
3018
3018
3018
3018
ENDCHAR
STARTCHAR hbar
ENCODING -1
SWIDTH 600 0
DWIDTH 14 0
BBX 12 18 0 0
BITMAP
3000
3000
FF80
FF80
3000
3000
33C0
3FE0
3870
3830
3030
3030
3030
3030
3030
3030
3030
3030
ENDCHAR
STARTCHAR Itilde
ENCODING -1
SWIDTH 600 0
DWIDTH 14 0
BBX 9 23 3 0
BITMAP
6100
FB00
CE00
8600
0000
0000
FF80
FF80
1800
1800
1800
1800
1800
1800
1800
1800
1800
1800
1800
1800
1800
FF80
FF80
ENDCHAR
STARTCHAR itilde
ENCODING -1
SWIDTH 600 0
DWIDTH 14 0
BBX 10 19 2 0
BITMAP
3080
7D80
6700
4300
0000
0000
7C00
3C00
0C00
0C00
0C00
0C00
0C00
0C00
0C00
0C00
0C00
7FC0
FFC0
ENDCHAR
STARTCHAR Imacron
ENCODING -1
SWIDTH 600 0
DWIDTH 14 0
BBX 9 22 3 0
BITMAP
FF00
FF00
0000
0000
0000
FF80
FF80
1800
1800
1800
1800
1800
1800
1800
1800
1800
1800
1800
1800
1800
FF80
FF80
ENDCHAR
STARTCHAR imacron
ENCODING -1
SWIDTH 600 0
DWIDTH 14 0
BBX 10 18 2 0
BITMAP
7F80
7F80
0000
0000
0000
7C00
3C00
0C00
0C00
0C00
0C00
0C00
0C00
0C00
0C00
0C00
7FC0
FFC0
ENDCHAR
STARTCHAR Ibreve
ENCODING -1
SWIDTH 600 0
DWIDTH 14 0
BBX 9 23 3 0
BITMAP
8100
C300
7E00
3C00
0000
0000
FF80
FF80
1800
1800
1800
1800
1800
1800
1800
1800
1800
1800
1800
1800
1800
FF80
FF80
ENDCHAR
STARTCHAR ibreve
ENCODING -1
SWIDTH 600 0
DWIDTH 14 0
BBX 10 19 2 0
BITMAP
2040
30C0
1F80
0F00
0000
0000
7C00
3C00
0C00
0C00
0C00
0C00
0C00
0C00
0C00
0C00
0C00
7FC0
FFC0
ENDCHAR
STARTCHAR Iogonek
ENCODING -1
SWIDTH 600 0
DWIDTH 14 0
BBX 9 22 3 -5
BITMAP
FF80
FF80
1800
1800
1800
1800
1800
1800
1800
1800
1800
1800
1800
1800
1800
FF80
FF80
1800
3000
3000
3A00
1E00
ENDCHAR
STARTCHAR iogonek
ENCODING -1
SWIDTH 600 0
DWIDTH 14 0
BBX 10 23 2 -5
BITMAP
0C00
0C00
0C00
0000
0000
7C00
3C00
0C00
0C00
0C00
0C00
0C00
0C00
0C00
0C00
0C00
7FC0
FFC0
0C00
1800
1800
1D00
0F00
ENDCHAR
STARTCHAR Idotaccent
ENCODING -1
SWIDTH 600 0
DWIDTH 14 0
BBX 9 22 3 0
BITMAP
1800
1800
1800
0000
0000
FF80
FF80
1800
1800
1800
1800
1800
1800
1800
1800
1800
1800
1800
1800
1800
FF80
FF80
ENDCHAR
STARTCHAR dotlessi
ENCODING -1
SWIDTH 600 0
DWIDTH 14 0
BBX 10 13 2 0
BITMAP
7C00
3C00
0C00
0C00
0C00
0C00
0C00
0C00
0C00
0C00
0C00
7FC0
FFC0
ENDCHAR
STARTCHAR IJ
ENCODING -1
SWIDTH 600 0
DWIDTH 14 0
BBX 11 17 1 0
BITMAP
C060
C060
C060
C060
C060
C060
C060
C060
C060
C060
C060
C060
C060
C060
C0E0
C7C0
C780
ENDCHAR
STARTCHAR ij
ENCODING -1
SWIDTH 600 0
DWIDTH 14 0
BBX 10 24 2 -6
BITMAP
C0C0
C1C0
C0C0
0000
0000
C7C0
C3C0
C0C0
C0C0
C0C0
C0C0
C0C0
C0C0
C0C0
C0C0
C0C0
C0C0
C0C0
00C0
00C0
00C0
01C0
0F80
0F00
ENDCHAR
STARTCHAR Jcircumflex
ENCODING -1
SWIDTH 600 0
DWIDTH 14 0
BBX 13 23 1 0
BITMAP
00E0
00E0
01B0
0318
0000
0000
00C0
00C0
00C0
00C0
00C0
00C0
00C0
00C0
00C0
00C0
00C0
00C0
00C0
01C0
0380
FF00
FE00
ENDCHAR
STARTCHAR jcircumflex
ENCODING -1
SWIDTH 600 0
DWIDTH 14 0
BBX 9 25 2 -6
BITMAP
0E00
0E00
1B00
3180
0000
0000
7F00
3F00
0300
0300
0300
0300
0300
0300
0300
0300
0300
0300
0300
0300
0300
0300
0700
FE00
FC00
ENDCHAR
STARTCHAR uni0136
ENCODING -1
SWIDTH 600 0
DWIDTH 14 0
BBX 11 22 2 -5
BITMAP
C060
C0C0
C180
C300
C600
CE00
CC00
D800
FC00
EC00
C600
C700
C300
C180
C1C0
C0C0
C060
0000
0600
0600
0C00
0C00
ENDCHAR
STARTCHAR uni0137
ENCODING -1
SWIDTH 600 0
DWIDTH 14 0
BBX 10 23 3 -5
BITMAP
C000
C000
C000
C000
C000
C1C0
C380
C700
CE00
CC00
D800
F800
EC00
C600
C600
C300
C380
C1C0
0000
0C00
0C00
1800
1800
ENDCHAR
STARTCHAR kgreenlandic
ENCODING -1
SWIDTH 600 0
DWIDTH 14 0
BBX 10 13 3 0
BITMAP
C1C0
C380
C700
C600
CC00
D800
F800
FC00
CE00
C600
C300
C380
C1C0
ENDCHAR
STARTCHAR Lacute
ENCODING -1
SWIDTH 600 0
DWIDTH 14 0
BBX 10 23 2 0
BITMAP
1C00
1800
3000
6000
0000
0000
C000
C000
C000
C000
C000
C000
C000
C000
C000
C000
C000
C000
C000
C000
C000
FFC0
FFC0
ENDCHAR
STARTCHAR lacute
ENCODING -1
SWIDTH 600 0
DWIDTH 14 0
BBX 10 24 2 0
BITMAP
0380
0300
0600
0C00
0000
0000
7C00
3C00
0C00
0C00
0C00
0C00
0C00
0C00
0C00
0C00
0C00
0C00
0C00
0C00
0C00
0C00
7FC0
FFC0
ENDCHAR
STARTCHAR uni013B
ENCODING -1
SWIDTH 600 0
DWIDTH 14 0
BBX 10 22 2 -5
BITMAP
C000
C000
C000
C000
C000
C000
C000
C000
C000
C000
C000
C000
C000
C000
C000
FFC0
FFC0
0000
0C00
0C00
1800
1800
ENDCHAR
STARTCHAR uni013C
ENCODING -1
SWIDTH 600 0
DWIDTH 14 0
BBX 10 23 2 -5
BITMAP
7C00
3C00
0C00
0C00
0C00
0C00
0C00
0C00
0C00
0C00
0C00
0C00
0C00
0C00
0C00
0C00
7FC0
FFC0
0000
0C00
0C00
1800
1800
ENDCHAR
STARTCHAR Lcaron
ENCODING -1
SWIDTH 600 0
DWIDTH 14 0
BBX 10 17 2 0
BITMAP
C180
C380
C300
C300
C000
C000
C000
C000
C000
C000
C000
C000
C000
C000
C000
FFC0
FFC0
ENDCHAR
STARTCHAR lcaron
ENCODING -1
SWIDTH 600 0
DWIDTH 14 0
BBX 11 18 2 0
BITMAP
7C60
3CE0
0CC0
0CC0
0C00
0C00
0C00
0C00
0C00
0C00
0C00
0C00
0C00
0C00
0C00
0C00
7FC0
FFC0
ENDCHAR
STARTCHAR Ldot
ENCODING -1
SWIDTH 600 0
DWIDTH 14 0
BBX 10 17 2 0
BITMAP
C000
C000
C000
C000
C000
C000
C180
C180
C180
C000
C000
C000
C000
C000
C000
FFC0
FFC0
ENDCHAR
STARTCHAR ldot
ENCODING -1
SWIDTH 600 0
DWIDTH 14 0
BBX 10 18 2 0
BITMAP
7C00
3C00
0C00
0C00
0C00
0C00
0C00
0C00
0CC0
0CC0
0CC0
0C00
0C00
0C00
0C00
0C00
7FC0
FFC0
ENDCHAR
STARTCHAR Lslash
ENCODING -1
SWIDTH 600 0
DWIDTH 14 0
BBX 11 17 1 0
BITMAP
3000
3000
3000
3000
3000
3000
3300
3700
3C00
3800
F000
F000
3000
3000
3000
3FE0
3FE0
ENDCHAR
STARTCHAR lslash
ENCODING -1
SWIDTH 600 0
DWIDTH 14 0
BBX 10 18 2 0
BITMAP
7C00
3C00
0C00
0C00
0C00
0C00
0C00
0D00
0F80
1E00
7C00
2C00
0C00
0C00
0C00
0C00
7FC0
FFC0
ENDCHAR
STARTCHAR Nacute
ENCODING -1
SWIDTH 600 0
DWIDTH 14 0
BBX 11 23 1 0
BITMAP
0380
0300
0600
0C00
0000
0000
E060
E060
F060
F060
D860
D860
C860
CC60
C460
C660
C260
C360
C160
C1E0
C1E0
C0E0
C0E0
ENDCHAR
STARTCHAR nacute
ENCODING -1
SWIDTH 600 0
DWIDTH 14 0
BBX 10 19 2 0
BITMAP
0380
0300
0600
0C00
0000
0000
CF00
FF80
E1C0
E0C0
C0C0
C0C0
C0C0
C0C0
C0C0
C0C0
C0C0
C0C0
C0C0
ENDCHAR
STARTCHAR uni0145
ENCODING -1
SWIDTH 600 0
DWIDTH 14 0
BBX 11 22 1 -5
BITMAP
E060
E060
F060
F060
D860
D860
C860
CC60
C460
C660
C260
C360
C160
C1E0
C1E0
C0E0
C0E0
0000
0600
0600
0C00
0C00
ENDCHAR
STARTCHAR uni0146
ENCODING -1
SWIDTH 600 0
DWIDTH 14 0
BBX 10 18 2 -5
BITMAP
CF00
FF80
E1C0
E0C0
C0C0
C0C0
C0C0
C0C0
C0C0
C0C0
C0C0
C0C0
C0C0
0000
0C00
0C00
1800
1800
ENDCHAR
STARTCHAR Ncaron
ENCODING -1
SWIDTH 600 0
DWIDTH 14 0
BBX 11 23 1 0
BITMAP
3180
1B00
0E00
0E00
0000
0000
E060
E060
F060
F060
D860
D860
C860
CC60
C460
C660
C260
C360
C160
C1E0
C1E0
C0E0
C0E0
ENDCHAR
STARTCHAR ncaron
ENCODING -1
SWIDTH 600 0
DWIDTH 14 0
BBX 10 19 2 0
BITMAP
3180
1B00
0E00
0E00
0000
0000
CF00
FF80
E1C0
E0C0
C0C0
C0C0
C0C0
C0C0
C0C0
C0C0
C0C0
C0C0
C0C0
ENDCHAR
STARTCHAR napostrophe
ENCODING -1
SWIDTH 600 0
DWIDTH 14 0
BBX 13 18 0 0
BITMAP
7000
7000
6000
6000
C000
D9E0
1FF0
1C38
1C18
1818
1818
1818
1818
1818
1818
1818
1818
1818
ENDCHAR
STARTCHAR Eng
ENCODING -1
SWIDTH 600 0
DWIDTH 14 0
BBX 11 22 1 -5
BITMAP
E060
E060
F060
F060
D860
D860
CC60
CC60
C660
C660
C360
C360
C1E0
C1E0
C0E0
C0E0
C060
0060
0060
00E0
07C0
0780
ENDCHAR
STARTCHAR eng
ENCODING -1
SWIDTH 600 0
DWIDTH 14 0
BBX 10 19 2 -6
BITMAP
CF00
FF80
E1C0
E0C0
C0C0
C0C0
C0C0
C0C0
C0C0
C0C0
C0C0
C0C0
C0C0
00C0
00C0
00C0
00C0
07C0
0780
ENDCHAR
STARTCHAR Omacron
ENCODING -1
SWIDTH 600 0
DWIDTH 14 0
BBX 12 22 1 0
BITMAP
3FC0
3FC0
0000
0000
0000
1F00
3FC0
70E0
6060
E060
E070
C030
C030
C030
C030
C030
E070
E060
6060
70E0
3FC0
1F00
ENDCHAR
STARTCHAR omacron
ENCODING -1
SWIDTH 600 0
DWIDTH 14 0
BBX 12 18 1 0
BITMAP
3FC0
3FC0
0000
0000
0000
1F80
3FC0
70E0
E060
C030
C030
C030
C030
C030
6060
70E0
3FC0
1F80
ENDCHAR
STARTCHAR Obreve
ENCODING -1
SWIDTH 600 0
DWIDTH 14 0
BBX 12 23 1 0
BITMAP
2040
30C0
1F80
0F00
0000
0000
1F00
3FC0
70E0
6060
E060
E070
C030
C030
C030
C030
C030
E070
E060
6060
70E0
3FC0
1F00
ENDCHAR
STARTCHAR obreve
ENCODING -1
SWIDTH 600 0
DWIDTH 14 0
BBX 12 19 1 0
BITMAP
2040
30C0
1F80
0F00
0000
0000
1F80
3FC0
70E0
E060
C030
C030
C030
C030
C030
6060
70E0
3FC0
1F80
ENDCHAR
STARTCHAR Ohungarumlaut
ENCODING -1
SWIDTH 600 0
DWIDTH 14 0
BBX 12 23 1 0
BITMAP
0770
0660
0CC0
1980
0000
0000
1F00
3FC0
70E0
6060
E060
E070
C030
C030
C030
C030
C030
E070
E060
6060
70E0
3FC0
1F00
ENDCHAR
STARTCHAR ohungarumlaut
ENCODING -1
SWIDTH 600 0
DWIDTH 14 0
BBX 12 19 1 0
BITMAP
0770
0660
0CC0
1980
0000
0000
1F80
3FC0
70E0
E060
C030
C030
C030
C030
C030
6060
70E0
3FC0
1F80
ENDCHAR
STARTCHAR OE
ENCODING -1
SWIDTH 600 0
DWIDTH 14 0
BBX 13 17 0 0
BITMAP
1FF8
3FF8
7180
6180
E180
C180
C180
C1F8
C1F8
C180
C180
C180
E180
6180
7180
3FF8
1FF8
ENDCHAR
STARTCHAR oe
ENCODING -1
SWIDTH 600 0
DWIDTH 14 0
BBX 13 13 0 0
BITMAP
38E0
7DF0
6798
C318
C318
C3F8
C3F8
C300
C300
C300
6780
7EF0
38F0
ENDCHAR
STARTCHAR Racute
ENCODING -1
SWIDTH 600 0
DWIDTH 14 0
BBX 11 23 2 0
BITMAP
0700
0600
0C00
1800
0000
0000
FE00
FF80
C1C0
C1C0
C0C0
C0C0
C1C0
C380
FF00
FE00
C600
C300
C380
C180
C1C0
C0C0
C060
ENDCHAR
STARTCHAR racute
ENCODING -1
SWIDTH 600 0
DWIDTH 14 0
BBX 9 19 3 0
BITMAP
0700
0600
0C00
1800
0000
0000
CF80
DF80
F000
E000
C000
C000
C000
C000
C000
C000
C000
C000
C000
ENDCHAR
STARTCHAR uni0156
ENCODING -1
SWIDTH 600 0
DWIDTH 14 0
BBX 11 22 2 -5
BITMAP
FE00
FF80
C1C0
C1C0
C0C0
C0C0
C1C0
C380
FF00
FE00
C600
C300
C380
C180
C1C0
C0C0
C060
0000
0600
0600
0C00
0C00
ENDCHAR
STARTCHAR uni0157
ENCODING -1
SWIDTH 600 0
DWIDTH 14 0
BBX 10 18 2 -5
BITMAP
67C0
6FC0
7800
7000
6000
6000
6000
6000
6000
6000
6000
6000
6000
0000
6000
6000
C000
C000
ENDCHAR
STARTCHAR Rcaron
ENCODING -1
SWIDTH 600 0
DWIDTH 14 0
BBX 11 23 2 0
BITMAP
6300
3600
1C00
1C00
0000
0000
FE00
FF80
C1C0
C1C0
C0C0
C0C0
C1C0
C380
FF00
FE00
C600
C300
C380
C180
C1C0
C0C0
C060
ENDCHAR
STARTCHAR rcaron
ENCODING -1
SWIDTH 600 0
DWIDTH 14 0
BBX 9 19 3 0
BITMAP
6300
3600
1C00
1C00
0000
0000
CF80
DF80
F000
E000
C000
C000
C000
C000
C000
C000
C000
C000
C000
ENDCHAR
STARTCHAR Sacute
ENCODING -1
SWIDTH 600 0
DWIDTH 14 0
BBX 10 23 2 0
BITMAP
0380
0300
0600
0C00
0000
0000
1F80
7FC0
E080
C000
C000
C000
E000
7C00
1F00
0780
01C0
00C0
00C0
00C0
81C0
FF80
7E00
ENDCHAR
STARTCHAR sacute
ENCODING -1
SWIDTH 600 0
DWIDTH 14 0
BBX 10 19 2 0
BITMAP
0380
0300
0600
0C00
0000
0000
3F80
7FC0
C000
C000
E000
7C00
1F00
0380
01C0
00C0
81C0
FF80
7F00
ENDCHAR
STARTCHAR Scircumflex
ENCODING -1
SWIDTH 600 0
DWIDTH 14 0
BBX 10 23 2 0
BITMAP
0E00
0E00
1B00
3180
0000
0000
1F80
7FC0
E080
C000
C000
C000
E000
7C00
1F00
0780
01C0
00C0
00C0
00C0
81C0
FF80
7E00
ENDCHAR
STARTCHAR scircumflex
ENCODING -1
SWIDTH 600 0
DWIDTH 14 0
BBX 10 19 2 0
BITMAP
0E00
0E00
1B00
3180
0000
0000
3F80
7FC0
C000
C000
E000
7C00
1F00
0380
01C0
00C0
81C0
FF80
7F00
ENDCHAR
STARTCHAR Scedilla
ENCODING -1
SWIDTH 600 0
DWIDTH 14 0
BBX 10 23 2 -6
BITMAP
1F80
7FC0
E080
C000
C000
C000
E000
7C00
1F00
0780
01C0
00C0
00C0
00C0
81C0
FF80
7E00
0C00
0800
0E00
0600
0600
1C00
ENDCHAR
STARTCHAR scedilla
ENCODING -1
SWIDTH 600 0
DWIDTH 14 0
BBX 10 19 2 -6
BITMAP
3F80
7FC0
C000
C000
E000
7C00
1F00
0380
01C0
00C0
81C0
FF80
7F00
0C00
0800
0E00
0600
0600
1C00
ENDCHAR
STARTCHAR Scaron
ENCODING -1
SWIDTH 600 0
DWIDTH 14 0
BBX 10 23 2 0
BITMAP
3180
1B00
0E00
0E00
0000
0000
1F80
7FC0
E080
C000
C000
C000
E000
7C00
1F00
0780
01C0
00C0
00C0
00C0
81C0
FF80
7E00
ENDCHAR
STARTCHAR scaron
ENCODING -1
SWIDTH 600 0
DWIDTH 14 0
BBX 10 19 2 0
BITMAP
3180
1B00
0E00
0E00
0000
0000
3F80
7FC0
C000
C000
E000
7C00
1F00
0380
01C0
00C0
81C0
FF80
7F00
ENDCHAR
STARTCHAR uni021A
ENCODING -1
SWIDTH 600 0
DWIDTH 14 0
BBX 12 22 1 -5
BITMAP
FFF0
FFF0
0600
0600
0600
0600
0600
0600
0600
0600
0600
0600
0600
0600
0600
0600
0600
0000
0600
0600
0C00
0C00
ENDCHAR
STARTCHAR uni021B
ENCODING -1
SWIDTH 600 0
DWIDTH 14 0
BBX 10 21 2 -5
BITMAP
0800
1800
1800
FFC0
FFC0
1800
1800
1800
1800
1800
1800
1800
1800
1C00
0FC0
07C0
0000
0600
0600
0C00
0C00
ENDCHAR
STARTCHAR Tcaron
ENCODING -1
SWIDTH 600 0
DWIDTH 14 0
BBX 12 23 1 0
BITMAP
18C0
0D80
0700
0700
0000
0000
FFF0
FFF0
0600
0600
0600
0600
0600
0600
0600
0600
0600
0600
0600
0600
0600
0600
0600
ENDCHAR
STARTCHAR tcaron
ENCODING -1
SWIDTH 600 0
DWIDTH 14 0
BBX 11 18 2 0
BITMAP
0060
00E0
08C0
18C0
1800
FFC0
FFC0
1800
1800
1800
1800
1800
1800
1800
1800
1C00
0FC0
07C0
ENDCHAR
STARTCHAR Tbar
ENCODING -1
SWIDTH 600 0
DWIDTH 14 0
BBX 12 17 1 0
BITMAP
FFF0
FFF0
0600
0600
0600
0600
0600
7FE0
7FE0
0600
0600
0600
0600
0600
0600
0600
0600
ENDCHAR
STARTCHAR tbar
ENCODING -1
SWIDTH 600 0
DWIDTH 14 0
BBX 10 16 2 0
BITMAP
0800
1800
1800
FFC0
FFC0
1800
1800
7F80
7F80
1800
1800
1800
1800
1C00
0FC0
07C0
ENDCHAR
STARTCHAR Utilde
ENCODING -1
SWIDTH 600 0
DWIDTH 14 0
BBX 11 23 1 0
BITMAP
1840
3EC0
3380
2180
0000
0000
C060
C060
C060
C060
C060
C060
C060
C060
C060
C060
C060
C060
C060
E0E0
71C0
7FC0
1F00
ENDCHAR
STARTCHAR utilde
ENCODING -1
SWIDTH 600 0
DWIDTH 14 0
BBX 10 19 2 0
BITMAP
3080
7D80
6700
4300
0000
0000
C0C0
C0C0
C0C0
C0C0
C0C0
C0C0
C0C0
C0C0
C0C0
C1C0
E1C0
7FC0
3CC0
ENDCHAR
STARTCHAR Umacron
ENCODING -1
SWIDTH 600 0
DWIDTH 14 0
BBX 11 22 1 0
BITMAP
3FC0
3FC0
0000
0000
0000
C060
C060
C060
C060
C060
C060
C060
C060
C060
C060
C060
C060
C060
E0E0
71C0
7FC0
1F00
ENDCHAR
STARTCHAR umacron
ENCODING -1
SWIDTH 600 0
DWIDTH 14 0
BBX 10 18 2 0
BITMAP
7F80
7F80
0000
0000
0000
C0C0
C0C0
C0C0
C0C0
C0C0
C0C0
C0C0
C0C0
C0C0
C1C0
E1C0
7FC0
3CC0
ENDCHAR
STARTCHAR Ubreve
ENCODING -1
SWIDTH 600 0
DWIDTH 14 0
BBX 11 23 1 0
BITMAP
2040
30C0
1F80
0F00
0000
0000
C060
C060
C060
C060
C060
C060
C060
C060
C060
C060
C060
C060
C060
E0E0
71C0
7FC0
1F00
ENDCHAR
STARTCHAR ubreve
ENCODING -1
SWIDTH 600 0
DWIDTH 14 0
BBX 10 19 2 0
BITMAP
4080
6180
3F00
1E00
0000
0000
C0C0
C0C0
C0C0
C0C0
C0C0
C0C0
C0C0
C0C0
C0C0
C1C0
E1C0
7FC0
3CC0
ENDCHAR
STARTCHAR Uring
ENCODING -1
SWIDTH 600 0
DWIDTH 14 0
BBX 11 24 1 0
BITMAP
0E00
1100
1100
1100
0E00
0000
0000
C060
C060
C060
C060
C060
C060
C060
C060
C060
C060
C060
C060
C060
E0E0
71C0
7FC0
1F00
ENDCHAR
STARTCHAR uring
ENCODING -1
SWIDTH 600 0
DWIDTH 14 0
BBX 10 20 2 0
BITMAP
0E00
1100
1100
1100
0E00
0000
0000
C0C0
C0C0
C0C0
C0C0
C0C0
C0C0
C0C0
C0C0
C0C0
C1C0
E1C0
7FC0
3CC0
ENDCHAR
STARTCHAR Uhungarumlaut
ENCODING -1
SWIDTH 600 0
DWIDTH 14 0
BBX 11 23 1 0
BITMAP
0EE0
0CC0
1980
3300
0000
0000
C060
C060
C060
C060
C060
C060
C060
C060
C060
C060
C060
C060
C060
E0E0
71C0
7FC0
1F00
ENDCHAR
STARTCHAR uhungarumlaut
ENCODING -1
SWIDTH 600 0
DWIDTH 14 0
BBX 11 19 2 0
BITMAP
0EE0
0CC0
1980
3300
0000
0000
C0C0
C0C0
C0C0
C0C0
C0C0
C0C0
C0C0
C0C0
C0C0
C1C0
E1C0
7FC0
3CC0
ENDCHAR
STARTCHAR Uogonek
ENCODING -1
SWIDTH 600 0
DWIDTH 14 0
BBX 11 22 1 -5
BITMAP
C060
C060
C060
C060
C060
C060
C060
C060
C060
C060
C060
C060
C060
E0E0
71C0
7FC0
1F00
0600
0C00
0C00
0E80
0780
ENDCHAR
STARTCHAR uogonek
ENCODING -1
SWIDTH 600 0
DWIDTH 14 0
BBX 11 18 2 -5
BITMAP
C0C0
C0C0
C0C0
C0C0
C0C0
C0C0
C0C0
C0C0
C0C0
C1C0
E1C0
7FC0
3CC0
0180
0300
0300
03A0
01E0
ENDCHAR
STARTCHAR Wcircumflex
ENCODING -1
SWIDTH 600 0
DWIDTH 14 0
BBX 14 23 0 0
BITMAP
0380
0380
06C0
0C60
0000
0000
C00C
C00C
C00C
C00C
6008
6318
6318
6798
6798
6498
6C98
6CD8
2CD0
2850
2870
3870
3030
ENDCHAR
STARTCHAR wcircumflex
ENCODING -1
SWIDTH 600 0
DWIDTH 14 0
BBX 14 19 0 0
BITMAP
0380
0380
06C0
0C60
0000
0000
C30C
C30C
C788
4788
6598
6498
6CD8
2CD0
2CD0
2850
2850
3870
1060
ENDCHAR
STARTCHAR Ycircumflex
ENCODING -1
SWIDTH 600 0
DWIDTH 14 0
BBX 12 23 1 0
BITMAP
0700
0700
0D80
18C0
0000
0000
C030
6060
6060
30C0
30C0
1980
1980
0F00
0F00
0600
0600
0600
0600
0600
0600
0600
0600
ENDCHAR
STARTCHAR ycircumflex
ENCODING -1
SWIDTH 600 0
DWIDTH 14 0
BBX 12 25 1 -6
BITMAP
0700
0700
0D80
18C0
0000
0000
C030
6060
6060
6060
30C0
30C0
19C0
1980
1980
0F80
0F00
0F00
0600
0600
0E00
0C00
1C00
F800
F000
ENDCHAR
STARTCHAR Ydieresis
ENCODING -1
SWIDTH 600 0
DWIDTH 14 0
BBX 12 22 1 0
BITMAP
18C0
18C0
18C0
0000
0000
C030
6060
6060
30C0
30C0
1980
1980
0F00
0F00
0600
0600
0600
0600
0600
0600
0600
0600
ENDCHAR
STARTCHAR Zacute
ENCODING -1
SWIDTH 600 0
DWIDTH 14 0
BBX 12 23 1 0
BITMAP
0380
0300
0600
0C00
0000
0000
FFF0
FFF0
0060
00E0
00C0
0180
0380
0300
0600
0C00
1C00
1800
3000
7000
6000
FFF0
FFF0
ENDCHAR
STARTCHAR zacute
ENCODING -1
SWIDTH 600 0
DWIDTH 14 0
BBX 10 19 2 0
BITMAP
0380
0300
0600
0C00
0000
0000
FFC0
FFC0
0180
0380
0300
0600
0C00
1800
3800
3000
6000
FFC0
FFC0
ENDCHAR
STARTCHAR Zdotaccent
ENCODING -1
SWIDTH 600 0
DWIDTH 14 0
BBX 12 22 1 0
BITMAP
0600
0600
0600
0000
0000
FFF0
FFF0
0060
00E0
00C0
0180
0380
0300
0600
0C00
1C00
1800
3000
7000
6000
FFF0
FFF0
ENDCHAR
STARTCHAR zdotaccent
ENCODING -1
SWIDTH 600 0
DWIDTH 14 0
BBX 10 18 2 0
BITMAP
0C00
0C00
0C00
0000
0000
FFC0
FFC0
0180
0380
0300
0600
0C00
1800
3800
3000
6000
FFC0
FFC0
ENDCHAR
STARTCHAR Zcaron
ENCODING -1
SWIDTH 600 0
DWIDTH 14 0
BBX 12 23 1 0
BITMAP
18C0
0D80
0700
0700
0000
0000
FFF0
FFF0
0060
00E0
00C0
0180
0380
0300
0600
0C00
1C00
1800
3000
7000
6000
FFF0
FFF0
ENDCHAR
STARTCHAR zcaron
ENCODING -1
SWIDTH 600 0
DWIDTH 14 0
BBX 10 19 2 0
BITMAP
3180
1B00
0E00
0E00
0000
0000
FFC0
FFC0
0180
0380
0300
0600
0C00
1800
3800
3000
6000
FFC0
FFC0
ENDCHAR
STARTCHAR longs
ENCODING -1
SWIDTH 600 0
DWIDTH 14 0
BBX 7 18 5 0
BITMAP
3E
7E
C0
C0
C0
C0
C0
C0
C0
C0
C0
C0
C0
C0
C0
C0
C0
C0
ENDCHAR
STARTCHAR florin
ENCODING -1
SWIDTH 600 0
DWIDTH 14 0
BBX 9 23 3 -6
BITMAP
0780
0F80
1C00
1800
1800
1800
3F00
7F00
1800
1800
1800
1800
1800
1800
1800
1800
1800
1800
1800
1800
1800
F800
F000
ENDCHAR
STARTCHAR Aringacute
ENCODING -1
SWIDTH 600 0
DWIDTH 14 0
BBX 14 25 0 0
BITMAP
00E0
00C0
0180
0300
0380
0440
0440
0440
0380
0780
0780
0780
0CC0
0CC0
0CC0
1860
1860
1860
3FF0
3FF0
3030
6018
6018
6018
C00C
ENDCHAR
STARTCHAR aringacute
ENCODING -1
SWIDTH 600 0
DWIDTH 14 0
BBX 10 24 2 0
BITMAP
0380
0300
0600
0C00
0000
0E00
1100
1100
1100
0E00
0000
3F00
7F80
01C0
00C0
00C0
1FC0
7EC0
E0C0
C0C0
C1C0
E1C0
7FC0
3CC0
ENDCHAR
STARTCHAR AEacute
ENCODING -1
SWIDTH 600 0
DWIDTH 14 0
BBX 13 23 0 0
BITMAP
0070
0060
00C0
0180
0000
0000
0FF8
0FF8
1980
1980
1980
1980
3180
31F8
31F8
3180
3F80
7F80
6180
6180
6180
C1F8
C1F8
ENDCHAR
STARTCHAR aeacute
ENCODING -1
SWIDTH 600 0
DWIDTH 14 0
BBX 13 19 0 0
BITMAP
00E0
00C0
0180
0300
0000
0000
38E0
7DF0
4730
0618
0618
3FF8
7FF8
E600
C600
C700
CF08
F9F8
70F0
ENDCHAR
STARTCHAR Oslashacute
ENCODING -1
SWIDTH 600 0
DWIDTH 14 0
BBX 12 24 1 -1
BITMAP
0380
0300
0600
0C00
0000
0000
1F30
3FE0
70E0
60E0
E1F0
E1F0
C330
C330
C630
CC30
CC30
F870
F860
7060
70E0
7FC0
DF00
4000
ENDCHAR
STARTCHAR oslashacute
ENCODING -1
SWIDTH 600 0
DWIDTH 14 0
BBX 12 19 1 0
BITMAP
01C0
0180
0300
0600
0000
0000
1FE0
3FE0
70E0
E1E0
C330
C330
C630
CC30
CC30
F860
70E0
3FC0
7F80
ENDCHAR
STARTCHAR uni0218
ENCODING -1
SWIDTH 600 0
DWIDTH 14 0
BBX 10 22 2 -5
BITMAP
1F80
7FC0
E080
C000
C000
C000
E000
7C00
1F00
0780
01C0
00C0
00C0
00C0
81C0
FF80
7E00
0000
0600
0600
0C00
0C00
ENDCHAR
STARTCHAR uni0219
ENCODING -1
SWIDTH 600 0
DWIDTH 14 0
BBX 10 18 2 -5
BITMAP
3F80
7FC0
C000
C000
E000
7C00
1F00
0380
01C0
00C0
81C0
FF80
7F00
0000
0C00
0C00
1800
1800
ENDCHAR
STARTCHAR circumflex
ENCODING -1
SWIDTH 600 0
DWIDTH 14 0
BBX 7 4 4 15
BITMAP
38
38
6C
C6
ENDCHAR
STARTCHAR caron
ENCODING -1
SWIDTH 600 0
DWIDTH 14 0
BBX 7 4 4 15
BITMAP
C6
6C
38
38
ENDCHAR
STARTCHAR uni02C9
ENCODING -1
SWIDTH 600 0
DWIDTH 14 0
BBX 8 2 3 16
BITMAP
FF
FF
ENDCHAR
STARTCHAR breve
ENCODING -1
SWIDTH 600 0
DWIDTH 14 0
BBX 8 4 3 15
BITMAP
81
C3
7E
3C
ENDCHAR
STARTCHAR dotaccent
ENCODING -1
SWIDTH 600 0
DWIDTH 14 0
BBX 2 3 6 15
BITMAP
C0
C0
C0
ENDCHAR
STARTCHAR ring
ENCODING -1
SWIDTH 600 0
DWIDTH 14 0
BBX 5 5 4 15
BITMAP
70
88
88
88
70
ENDCHAR
STARTCHAR ogonek
ENCODING -1
SWIDTH 600 0
DWIDTH 14 0
BBX 5 5 4 -5
BITMAP
60
C0
C0
E8
78
ENDCHAR
STARTCHAR tilde
ENCODING -1
SWIDTH 600 0
DWIDTH 14 0
BBX 8 4 3 15
BITMAP
61
FB
CE
86
ENDCHAR
STARTCHAR hungarumlaut
ENCODING -1
SWIDTH 600 0
DWIDTH 14 0
BBX 9 4 2 15
BITMAP
3B80
3300
6600
CC00
ENDCHAR
STARTCHAR tonos
ENCODING -1
SWIDTH 600 0
DWIDTH 14 0
BBX 3 4 5 15
BITMAP
60
60
C0
C0
ENDCHAR
STARTCHAR dieresistonos
ENCODING -1
SWIDTH 600 0
DWIDTH 14 0
BBX 8 5 3 15
BITMAP
0E
0C
CB
D3
C3
ENDCHAR
STARTCHAR Alphatonos
ENCODING -1
SWIDTH 600 0
DWIDTH 14 0
BBX 14 17 0 0
BITMAP
3300
3780
6780
6780
0CC0
0CC0
0CC0
1860
1860
1860
3FF0
3FF0
3030
6018
6018
6018
C00C
ENDCHAR
STARTCHAR anoteleia
ENCODING -1
SWIDTH 600 0
DWIDTH 14 0
BBX 3 3 5 7
BITMAP
E0
E0
E0
ENDCHAR
STARTCHAR Epsilontonos
ENCODING -1
SWIDTH 600 0
DWIDTH 14 0
BBX 13 17 -1 0
BITMAP
7FF8
7FF8
D800
D800
1800
1800
1800
1FF8
1FF8
1800
1800
1800
1800
1800
1800
1FF8
1FF8
ENDCHAR
STARTCHAR Etatonos
ENCODING -1
SWIDTH 600 0
DWIDTH 14 0
BBX 14 17 -2 0
BITMAP
780C
780C
D80C
D80C
180C
180C
180C
1FFC
1FFC
180C
180C
180C
180C
180C
180C
180C
180C
ENDCHAR
STARTCHAR Iotatonos
ENCODING -1
SWIDTH 600 0
DWIDTH 14 0
BBX 13 17 -1 0
BITMAP
6FF8
6FF8
C180
C180
0180
0180
0180
0180
0180
0180
0180
0180
0180
0180
0180
0FF8
0FF8
ENDCHAR
STARTCHAR Omicrontonos
ENCODING -1
SWIDTH 600 0
DWIDTH 14 0
BBX 14 17 -1 0
BITMAP
67C0
6FF0
DC38
D818
3818
381C
300C
300C
300C
300C
300C
381C
3818
1818
1C38
0FF0
07C0
ENDCHAR
STARTCHAR Upsilontonos
ENCODING -1
SWIDTH 600 0
DWIDTH 14 0
BBX 16 17 -3 0
BITMAP
6C03
6606
C606
C30C
030C
0198
0198
00F0
00F0
0060
0060
0060
0060
0060
0060
0060
0060
ENDCHAR
STARTCHAR Omegatonos
ENCODING -1
SWIDTH 600 0
DWIDTH 14 0
BBX 14 17 -1 0
BITMAP
67E0
6FF0
DC38
D818
381C
300C
300C
300C
300C
300C
381C
1818
1818
1C38
0C30
3E7C
3E7C
ENDCHAR
STARTCHAR iotadieresistonos
ENCODING -1
SWIDTH 600 0
DWIDTH 14 0
BBX 9 20 2 0
BITMAP
0E00
0C00
CB00
D300
C300
0000
0000
1800
1800
1800
1800
1800
1800
1800
1800
1800
1800
1800
0F80
0780
ENDCHAR
STARTCHAR Alpha
ENCODING -1
SWIDTH 600 0
DWIDTH 14 0
BBX 14 17 0 0
BITMAP
0300
0780
0780
0780
0CC0
0CC0
0CC0
1860
1860
1860
3FF0
3FF0
3030
6018
6018
6018
C00C
ENDCHAR
STARTCHAR Beta
ENCODING -1
SWIDTH 600 0
DWIDTH 14 0
BBX 12 17 1 0
BITMAP
FF80
FFE0
C070
C030
C030
C070
C0E0
FF80
FFC0
C0E0
C070
C030
C030
C070
C0E0
FFE0
FF80
ENDCHAR
STARTCHAR Gamma
ENCODING -1
SWIDTH 600 0
DWIDTH 14 0
BBX 10 17 2 0
BITMAP
FFC0
FFC0
C000
C000
C000
C000
C000
C000
C000
C000
C000
C000
C000
C000
C000
C000
C000
ENDCHAR
STARTCHAR uni0394
ENCODING -1
SWIDTH 600 0
DWIDTH 14 0
BBX 12 17 1 0
BITMAP
0600
0F00
0F00
0F00
1F80
1980
1980
1980
30C0
30C0
30C0
6060
6060
6060
C030
FFF0
FFF0
ENDCHAR
STARTCHAR Epsilon
ENCODING -1
SWIDTH 600 0
DWIDTH 14 0
BBX 10 17 2 0
BITMAP
FFC0
FFC0
C000
C000
C000
C000
C000
FFC0
FFC0
C000
C000
C000
C000
C000
C000
FFC0
FFC0
ENDCHAR
STARTCHAR Zeta
ENCODING -1
SWIDTH 600 0
DWIDTH 14 0
BBX 12 17 1 0
BITMAP
FFF0
FFF0
0060
00E0
00C0
0180
0380
0300
0600
0C00
1C00
1800
3000
7000
6000
FFF0
FFF0
ENDCHAR
STARTCHAR Eta
ENCODING -1
SWIDTH 600 0
DWIDTH 14 0
BBX 11 17 1 0
BITMAP
C060
C060
C060
C060
C060
C060
C060
FFE0
FFE0
C060
C060
C060
C060
C060
C060
C060
C060
ENDCHAR
STARTCHAR Theta
ENCODING -1
SWIDTH 600 0
DWIDTH 14 0
BBX 12 17 1 0
BITMAP
1F00
3FC0
70E0
6060
E060
E070
C030
CF30
CF30
C030
C030
E070
E060
6060
70E0
3FC0
1F00
ENDCHAR
STARTCHAR Iota
ENCODING -1
SWIDTH 600 0
DWIDTH 14 0
BBX 9 17 3 0
BITMAP
FF80
FF80
1800
1800
1800
1800
1800
1800
1800
1800
1800
1800
1800
1800
1800
FF80
FF80
ENDCHAR
STARTCHAR Kappa
ENCODING -1
SWIDTH 600 0
DWIDTH 14 0
BBX 11 17 2 0
BITMAP
C060
C0C0
C180
C300
C600
CE00
CC00
D800
FC00
EC00
C600
C700
C300
C180
C1C0
C0C0
C060
ENDCHAR
STARTCHAR Lambda
ENCODING -1
SWIDTH 600 0
DWIDTH 14 0
BBX 14 17 0 0
BITMAP
0300
0780
0780
0780
0CC0
0CC0
0CC0
1860
1860
1860
3030
3030
3030
6018
6018
6018
C00C
ENDCHAR
STARTCHAR Mu
ENCODING -1
SWIDTH 600 0
DWIDTH 14 0
BBX 11 17 1 0
BITMAP
E0E0
E0E0
E0E0
E0E0
E160
D160
D160
D160
D160
D360
CA60
CA60
CA60
CA60
CE60
C460
C460
ENDCHAR
STARTCHAR Nu
ENCODING -1
SWIDTH 600 0
DWIDTH 14 0
BBX 11 17 1 0
BITMAP
E060
E060
F060
F060
D860
D860
C860
CC60
C460
C660
C260
C360
C160
C1E0
C1E0
C0E0
C0E0
ENDCHAR
STARTCHAR Xi
ENCODING -1
SWIDTH 600 0
DWIDTH 14 0
BBX 12 17 1 0
BITMAP
FFF0
FFF0
0000
0000
0000
0000
0000
7FE0
7FE0
0000
0000
0000
0000
0000
0000
FFF0
FFF0
ENDCHAR
STARTCHAR Omicron
ENCODING -1
SWIDTH 600 0
DWIDTH 14 0
BBX 12 17 1 0
BITMAP
1F00
3FC0
70E0
6060
E060
E070
C030
C030
C030
C030
C030
E070
E060
6060
70E0
3FC0
1F00
ENDCHAR
STARTCHAR Pi
ENCODING -1
SWIDTH 600 0
DWIDTH 14 0
BBX 11 17 1 0
BITMAP
FFE0
FFE0
C060
C060
C060
C060
C060
C060
C060
C060
C060
C060
C060
C060
C060
C060
C060
ENDCHAR
STARTCHAR Rho
ENCODING -1
SWIDTH 600 0
DWIDTH 14 0
BBX 11 17 2 0
BITMAP
FF00
FFC0
C1C0
C0E0
C060
C060
C060
C0E0
C1C0
FF80
FE00
C000
C000
C000
C000
C000
C000
ENDCHAR
STARTCHAR Sigma
ENCODING -1
SWIDTH 600 0
DWIDTH 14 0
BBX 12 17 1 0
BITMAP
FFE0
FFE0
6000
3000
3800
1800
0C00
0600
0600
0C00
1C00
1800
3000
6000
6000
FFF0
FFF0
ENDCHAR
STARTCHAR Tau
ENCODING -1
SWIDTH 600 0
DWIDTH 14 0
BBX 12 17 1 0
BITMAP
FFF0
FFF0
0600
0600
0600
0600
0600
0600
0600
0600
0600
0600
0600
0600
0600
0600
0600
ENDCHAR
STARTCHAR Upsilon
ENCODING -1
SWIDTH 600 0
DWIDTH 14 0
BBX 12 17 1 0
BITMAP
C030
6060
6060
30C0
30C0
1980
1980
0F00
0F00
0600
0600
0600
0600
0600
0600
0600
0600
ENDCHAR
STARTCHAR Phi
ENCODING -1
SWIDTH 600 0
DWIDTH 14 0
BBX 14 17 0 0
BITMAP
0300
0300
1FE0
3FF0
7338
E318
C30C
C30C
C30C
C30C
C30C
6318
7338
3FF0
1FE0
0300
0300
ENDCHAR
STARTCHAR Chi
ENCODING -1
SWIDTH 600 0
DWIDTH 14 0
BBX 12 17 1 0
BITMAP
E070
6060
70E0
30C0
1980
1980
0F00
0F00
0600
0F00
0F00
1980
39C0
30C0
70E0
6060
E070
ENDCHAR
STARTCHAR Psi
ENCODING -1
SWIDTH 600 0
DWIDTH 14 0
BBX 12 17 1 0
BITMAP
C630
C630
C630
C630
C630
C630
C630
C630
C630
6660
7FE0
3FC0
0600
0600
0600
0600
0600
ENDCHAR
STARTCHAR uni03A9
ENCODING -1
SWIDTH 600 0
DWIDTH 14 0
BBX 12 17 1 0
BITMAP
1F80
3FC0
70E0
6060
E070
C030
C030
C030
C030
C030
E070
6060
6060
70E0
30C0
F9F0
F9F0
ENDCHAR
STARTCHAR Iotadieresis
ENCODING -1
SWIDTH 600 0
DWIDTH 14 0
BBX 9 22 3 0
BITMAP
6300
6300
6300
0000
0000
FF80
FF80
1800
1800
1800
1800
1800
1800
1800
1800
1800
1800
1800
1800
1800
FF80
FF80
ENDCHAR
STARTCHAR Upsilondieresis
ENCODING -1
SWIDTH 600 0
DWIDTH 14 0
BBX 12 22 1 0
BITMAP
18C0
18C0
18C0
0000
0000
C030
6060
6060
30C0
30C0
1980
1980
0F00
0F00
0600
0600
0600
0600
0600
0600
0600
0600
ENDCHAR
STARTCHAR alphatonos
ENCODING -1
SWIDTH 600 0
DWIDTH 14 0
BBX 13 19 1 0
BITMAP
0300
0300
0600
0600
0000
0000
1E20
3FE0
60E0
E0E0
C060
C060
C060
C060
C060
E0E0
60E0
7FF8
1E38
ENDCHAR
STARTCHAR epsilontonos
ENCODING -1
SWIDTH 600 0
DWIDTH 14 0
BBX 10 19 2 0
BITMAP
0300
0300
0600
0600
0000
0000
3F80
7FC0
E000
C000
E000
3F00
7F00
E000
C000
C000
E040
7FC0
3F80
ENDCHAR
STARTCHAR etatonos
ENCODING -1
SWIDTH 600 0
DWIDTH 14 0
BBX 10 25 2 -6
BITMAP
0300
0300
0600
0600
0000
0000
CF00
FF80
E1C0
E0C0
C0C0
C0C0
C0C0
C0C0
C0C0
C0C0
C0C0
C0C0
C0C0
00C0
00C0
00C0
00C0
00C0
00C0
ENDCHAR
STARTCHAR iotatonos
ENCODING -1
SWIDTH 600 0
DWIDTH 14 0
BBX 6 19 5 0
BITMAP
30
30
60
60
00
00
C0
C0
C0
C0
C0
C0
C0
C0
C0
C0
C0
7C
3C
ENDCHAR
STARTCHAR upsilondieresistonos
ENCODING -1
SWIDTH 600 0
DWIDTH 14 0
BBX 10 20 2 0
BITMAP
0700
0600
6580
6980
6180
0000
0000
C180
C180
C180
C0C0
C0C0
C0C0
C0C0
C0C0
C0C0
E1C0
6180
7F80
1E00
ENDCHAR
STARTCHAR alpha
ENCODING -1
SWIDTH 600 0
DWIDTH 14 0
BBX 13 13 1 0
BITMAP
1E20
3FE0
60E0
E0E0
C060
C060
C060
C060
C060
E0E0
60E0
7FF8
1E38
ENDCHAR
STARTCHAR beta
ENCODING -1
SWIDTH 600 0
DWIDTH 14 0
BBX 11 24 2 -6
BITMAP
1E00
7F80
61C0
C0C0
C0C0
C0C0
C1C0
C180
CE00
CF80
C0C0
C0E0
C060
C060
C060
E0E0
FFC0
DF00
C000
C000
C000
C000
C000
C000
ENDCHAR
STARTCHAR gamma
ENCODING -1
SWIDTH 600 0
DWIDTH 14 0
BBX 12 19 1 -6
BITMAP
C030
6070
6060
7060
30E0
38C0
18C0
19C0
0D80
0D80
0D80
0700
0700
0600
0600
0600
0600
0E00
0E00
ENDCHAR
STARTCHAR delta
ENCODING -1
SWIDTH 600 0
DWIDTH 14 0
BBX 12 18 1 0
BITMAP
0F80
3FE0
3060
3000
3800
1C00
0F00
0F80
3CE0
7060
E070
C030
C030
C030
E070
6060
3FC0
1F80
ENDCHAR
STARTCHAR epsilon
ENCODING -1
SWIDTH 600 0
DWIDTH 14 0
BBX 10 13 2 0
BITMAP
3F80
7FC0
E000
C000
E000
3F00
7F00
E000
C000
C000
E040
7FC0
3F80
ENDCHAR
STARTCHAR zeta
ENCODING -1
SWIDTH 600 0
DWIDTH 14 0
BBX 10 23 2 -5
BITMAP
7FC0
7FC0
0380
0700
0E00
1C00
3800
3000
6000
6000
C000
C000
C000
C000
E000
7000
7E00
3F80
03C0
00C0
00C0
0180
0180
ENDCHAR
STARTCHAR eta
ENCODING -1
SWIDTH 600 0
DWIDTH 14 0
BBX 10 19 2 -6
BITMAP
CF00
FF80
E1C0
E0C0
C0C0
C0C0
C0C0
C0C0
C0C0
C0C0
C0C0
C0C0
C0C0
00C0
00C0
00C0
00C0
00C0
00C0
ENDCHAR
STARTCHAR theta
ENCODING -1
SWIDTH 600 0
DWIDTH 14 0
BBX 10 17 2 0
BITMAP
1E00
3F00
6180
6180
C0C0
C0C0
C0C0
FFC0
FFC0
C0C0
C0C0
C0C0
E1C0
6180
6180
3F00
1E00
ENDCHAR
STARTCHAR iota
ENCODING -1
SWIDTH 600 0
DWIDTH 14 0
BBX 6 13 5 0
BITMAP
C0
C0
C0
C0
C0
C0
C0
C0
C0
C0
C0
7C
3C
ENDCHAR
STARTCHAR kappa
ENCODING -1
SWIDTH 600 0
DWIDTH 14 0
BBX 10 13 3 0
BITMAP
C1C0
C380
C700
C600
CC00
D800
F800
FC00
CE00
C600
C300
C380
C1C0
ENDCHAR
STARTCHAR lambda
ENCODING -1
SWIDTH 600 0
DWIDTH 14 0
BBX 12 18 1 0
BITMAP
3800
3C00
0E00
0600
0600
0300
0700
0700
0D80
0D80
1980
18C0
38C0
30C0
30E0
6060
6070
C030
ENDCHAR
STARTCHAR uni03BC
ENCODING -1
SWIDTH 600 0
DWIDTH 14 0
BBX 10 19 2 -6
BITMAP
C0C0
C0C0
C0C0
C0C0
C0C0
C0C0
C0C0
C0C0
C0C0
C1C0
E1C0
FFC0
DEC0
C000
C000
C000
C000
C000
C000
ENDCHAR
STARTCHAR nu
ENCODING -1
SWIDTH 600 0
DWIDTH 14 0
BBX 11 13 1 0
BITMAP
C060
C060
6060
6060
6060
30C0
30C0
30C0
1980
1980
1B00
0F00
0E00
ENDCHAR
STARTCHAR xi
ENCODING -1
SWIDTH 600 0
DWIDTH 14 0
BBX 10 23 2 -5
BITMAP
7F80
7F80
1800
3000
6000
6000
6000
3000
1F80
3F80
6000
E000
C000
C000
C000
E000
7E00
1F80
01C0
00C0
00C0
0180
0180
ENDCHAR
STARTCHAR omicron
ENCODING -1
SWIDTH 600 0
DWIDTH 14 0
BBX 12 13 1 0
BITMAP
1F80
3FC0
70E0
E060
C030
C030
C030
C030
C030
6060
70E0
3FC0
1F80
ENDCHAR
STARTCHAR pi
ENCODING -1
SWIDTH 600 0
DWIDTH 14 0
BBX 13 13 0 0
BITMAP
7FF8
FFF8
1860
1860
1860
1860
1860
1860
1860
1860
1860
1878
1838
ENDCHAR
STARTCHAR rho
ENCODING -1
SWIDTH 600 0
DWIDTH 14 0
BBX 11 19 2 -6
BITMAP
1F00
3F80
60C0
60E0
C060
C060
C060
C060
C060
C0E0
E0C0
FF80
DF00
C000
C000
C000
C000
C000
C000
ENDCHAR
STARTCHAR sigma1
ENCODING -1
SWIDTH 600 0
DWIDTH 14 0
BBX 10 18 2 -5
BITMAP
1F80
3FC0
7000
6000
E000
C000
C000
C000
C000
E000
7000
7E00
1F80
03C0
00C0
00C0
0180
0180
ENDCHAR
STARTCHAR sigma
ENCODING -1
SWIDTH 600 0
DWIDTH 14 0
BBX 13 13 1 0
BITMAP
0FF8
3FF8
70E0
6060
C070
C030
C030
C030
C030
E070
70E0
3FC0
1F80
ENDCHAR
STARTCHAR tau
ENCODING -1
SWIDTH 600 0
DWIDTH 14 0
BBX 10 13 2 0
BITMAP
7FC0
FFC0
0C00
0C00
0C00
0C00
0C00
0C00
0C00
0C00
0C00
0F80
0780
ENDCHAR
STARTCHAR upsilon
ENCODING -1
SWIDTH 600 0
DWIDTH 14 0
BBX 10 13 2 0
BITMAP
C180
C180
C180
C0C0
C0C0
C0C0
C0C0
C0C0
C0C0
E1C0
6180
7F80
1E00
ENDCHAR
STARTCHAR phi
ENCODING -1
SWIDTH 600 0
DWIDTH 14 0
BBX 12 19 1 -6
BITMAP
23C0
63E0
6660
C630
C630
C630
C630
C630
C630
E670
6660
7FC0
1F80
0600
0600
0600
0600
0600
0600
ENDCHAR
STARTCHAR chi
ENCODING -1
SWIDTH 600 0
DWIDTH 14 0
BBX 13 19 0 -6
BITMAP
7018
7830
1870
1C60
0CC0
0CC0
0F80
0780
0700
0700
0700
0F80
0D80
1980
18C0
30C0
70E0
6078
E038
ENDCHAR
STARTCHAR psi
ENCODING -1
SWIDTH 600 0
DWIDTH 14 0
BBX 12 24 1 -6
BITMAP
0600
0600
0600
0600
0600
C660
C660
C660
C630
C630
C630
C630
C630
C630
E670
6660
7FE0
1F80
0600
0600
0600
0600
0600
0600
ENDCHAR
STARTCHAR omega
ENCODING -1
SWIDTH 600 0
DWIDTH 14 0
BBX 12 13 1 0
BITMAP
6060
6060
6060
C030
C030
C630
C630
C630
C630
C630
E770
7FE0
39C0
ENDCHAR
STARTCHAR iotadieresis
ENCODING -1
SWIDTH 600 0
DWIDTH 14 0
BBX 8 18 3 0
BITMAP
C6
C6
C6
00
00
30
30
30
30
30
30
30
30
30
30
30
1F
0F
ENDCHAR
STARTCHAR upsilondieresis
ENCODING -1
SWIDTH 600 0
DWIDTH 14 0
BBX 10 18 2 0
BITMAP
3180
3180
3180
0000
0000
C180
C180
C180
C0C0
C0C0
C0C0
C0C0
C0C0
C0C0
E1C0
6180
7F80
1E00
ENDCHAR
STARTCHAR omicrontonos
ENCODING -1
SWIDTH 600 0
DWIDTH 14 0
BBX 12 19 1 0
BITMAP
0180
0180
0300
0300
0000
0000
1F80
3FC0
70E0
E060
C030
C030
C030
C030
C030
6060
70E0
3FC0
1F80
ENDCHAR
STARTCHAR upsilontonos
ENCODING -1
SWIDTH 600 0
DWIDTH 14 0
BBX 10 19 2 0
BITMAP
0600
0600
0C00
0C00
0000
0000
C180
C180
C180
C0C0
C0C0
C0C0
C0C0
C0C0
C0C0
E1C0
6180
7F80
1E00
ENDCHAR
STARTCHAR omegatonos
ENCODING -1
SWIDTH 600 0
DWIDTH 14 0
BBX 12 19 1 0
BITMAP
0300
0300
0600
0600
0000
0000
6060
6060
6060
C030
C030
C630
C630
C630
C630
C630
E770
7FE0
39C0
ENDCHAR
STARTCHAR uni0401
ENCODING -1
SWIDTH 600 0
DWIDTH 14 0
BBX 10 22 2 0
BITMAP
3180
3180
3180
0000
0000
FFC0
FFC0
C000
C000
C000
C000
C000
FFC0
FFC0
C000
C000
C000
C000
C000
C000
FFC0
FFC0
ENDCHAR
STARTCHAR uni0402
ENCODING -1
SWIDTH 600 0
DWIDTH 14 0
BBX 13 17 0 0
BITMAP
FF00
FF00
1800
1800
1800
1800
1800
1FE0
1FF0
1838
1818
1818
1818
1818
1838
19F0
19E0
ENDCHAR
STARTCHAR uni0403
ENCODING -1
SWIDTH 600 0
DWIDTH 14 0
BBX 10 23 2 0
BITMAP
0700
0600
0C00
1800
0000
0000
FFC0
FFC0
C000
C000
C000
C000
C000
C000
C000
C000
C000
C000
C000
C000
C000
C000
C000
ENDCHAR
STARTCHAR uni0404
ENCODING -1
SWIDTH 600 0
DWIDTH 14 0
BBX 12 17 1 0
BITMAP
07E0
1FF0
3820
7000
6000
E000
C000
FFC0
FFC0
C000
C000
E000
6000
7000
3800
1FF0
0FF0
ENDCHAR
STARTCHAR uni0405
ENCODING -1
SWIDTH 600 0
DWIDTH 14 0
BBX 10 17 2 0
BITMAP
1F80
7FC0
E080
C000
C000
C000
E000
7C00
1F00
0780
01C0
00C0
00C0
00C0
81C0
FF80
7E00
ENDCHAR
STARTCHAR uni0406
ENCODING -1
SWIDTH 600 0
DWIDTH 14 0
BBX 9 17 3 0
BITMAP
FF80
FF80
1800
1800
1800
1800
1800
1800
1800
1800
1800
1800
1800
1800
1800
FF80
FF80
ENDCHAR
STARTCHAR uni0407
ENCODING -1
SWIDTH 600 0
DWIDTH 14 0
BBX 9 22 3 0
BITMAP
6300
6300
6300
0000
0000
FF80
FF80
1800
1800
1800
1800
1800
1800
1800
1800
1800
1800
1800
1800
1800
FF80
FF80
ENDCHAR
STARTCHAR uni0408
ENCODING -1
SWIDTH 600 0
DWIDTH 14 0
BBX 10 17 1 0
BITMAP
00C0
00C0
00C0
00C0
00C0
00C0
00C0
00C0
00C0
00C0
00C0
00C0
00C0
01C0
0380
FF00
FE00
ENDCHAR
STARTCHAR uni0409
ENCODING -1
SWIDTH 600 0
DWIDTH 14 0
BBX 14 17 0 0
BITMAP
3F00
3F00
3300
3300
3300
3300
3300
33E0
33F8
331C
330C
330C
330C
730C
6318
E3F8
C3E0
ENDCHAR
STARTCHAR uni040A
ENCODING -1
SWIDTH 600 0
DWIDTH 14 0
BBX 13 17 1 0
BITMAP
C600
C600
C600
C600
C600
C600
C600
FFC0
FFF0
C638
C618
C618
C618
C618
C630
C7F0
C7C0
ENDCHAR
STARTCHAR uni040B
ENCODING -1
SWIDTH 600 0
DWIDTH 14 0
BBX 13 17 0 0
BITMAP
FF00
FF00
1800
1800
1800
1800
1800
1FE0
1FF0
1838
1818
1818
1818
1818
1818
1818
1818
ENDCHAR
STARTCHAR uni040C
ENCODING -1
SWIDTH 600 0
DWIDTH 14 0
BBX 11 23 2 0
BITMAP
0380
0300
0600
0C00
0000
0000
C060
C0C0
C180
C300
C700
C600
CC00
D800
F800
DC00
CC00
C600
C300
C380
C180
C0C0
C060
ENDCHAR
STARTCHAR uni040E
ENCODING -1
SWIDTH 600 0
DWIDTH 14 0
BBX 14 23 0 0
BITMAP
1830
1830
0FE0
07C0
0000
0000
E01C
6018
7018
3030
3030
1860
1860
0CC0
0CC0
0FC0
0780
0780
0300
0700
0600
7C00
7800
ENDCHAR
STARTCHAR uni040F
ENCODING -1
SWIDTH 600 0
DWIDTH 14 0
BBX 11 22 1 -5
BITMAP
C060
C060
C060
C060
C060
C060
C060
C060
C060
C060
C060
C060
C060
C060
C060
FFE0
FFE0
0C00
0C00
0C00
0C00
0C00
ENDCHAR
STARTCHAR uni0410
ENCODING -1
SWIDTH 600 0
DWIDTH 14 0
BBX 14 17 0 0
BITMAP
0300
0780
0780
0780
0CC0
0CC0
0CC0
1860
1860
1860
3FF0
3FF0
3030
6018
6018
6018
C00C
ENDCHAR
STARTCHAR uni0411
ENCODING -1
SWIDTH 600 0
DWIDTH 14 0
BBX 12 17 1 0
BITMAP
FFE0
FFE0
C000
C000
C000
C000
C000
FF80
FFE0
C0E0
C070
C030
C030
C070
C0E0
FFE0
FF80
ENDCHAR
STARTCHAR uni0412
ENCODING -1
SWIDTH 600 0
DWIDTH 14 0
BBX 12 17 1 0
BITMAP
FF80
FFE0
C070
C030
C030
C070
C0E0
FF80
FFC0
C0E0
C070
C030
C030
C070
C0E0
FFE0
FF80
ENDCHAR
STARTCHAR uni0413
ENCODING -1
SWIDTH 600 0
DWIDTH 14 0
BBX 10 17 2 0
BITMAP
FFC0
FFC0
C000
C000
C000
C000
C000
C000
C000
C000
C000
C000
C000
C000
C000
C000
C000
ENDCHAR
STARTCHAR uni0414
ENCODING -1
SWIDTH 600 0
DWIDTH 14 0
BBX 14 22 0 -5
BITMAP
0FF0
0FF0
0C30
0C30
0C30
0C30
0C30
0C30
1830
1830
1830
1830
3030
3030
6030
FFFC
FFFC
C00C
C00C
C00C
C00C
C00C
ENDCHAR
STARTCHAR uni0415
ENCODING -1
SWIDTH 600 0
DWIDTH 14 0
BBX 10 17 2 0
BITMAP
FFC0
FFC0
C000
C000
C000
C000
C000
FFC0
FFC0
C000
C000
C000
C000
C000
C000
FFC0
FFC0
ENDCHAR
STARTCHAR uni0416
ENCODING -1
SWIDTH 600 0
DWIDTH 14 0
BBX 14 17 0 0
BITMAP
C30C
6318
6318
3330
3330
1B60
1B60
0FC0
0FC0
1BE0
1B60
3B70
3330
7338
6318
E31C
C30C
ENDCHAR
STARTCHAR uni0417
ENCODING -1
SWIDTH 600 0
DWIDTH 14 0
BBX 10 17 2 0
BITMAP
3F00
FF80
41C0
00C0
00C0
01C0
0380
3E00
3F00
0180
01C0
00C0
00C0
01C0
8380
FF80
7E00
ENDCHAR
STARTCHAR uni0418
ENCODING -1
SWIDTH 600 0
DWIDTH 14 0
BBX 11 17 1 0
BITMAP
C0E0
C0E0
C1E0
C1E0
C360
C360
C260
C660
C460
CC60
C860
D860
D860
F060
F060
E060
E060
ENDCHAR
STARTCHAR uni0419
ENCODING -1
SWIDTH 600 0
DWIDTH 14 0
BBX 11 23 1 0
BITMAP
60C0
60C0
3F80
1F00
0000
0000
C0E0
C0E0
C1E0
C1E0
C360
C360
C260
C660
C460
CC60
C860
D860
D860
F060
F060
E060
E060
ENDCHAR
STARTCHAR uni041A
ENCODING -1
SWIDTH 600 0
DWIDTH 14 0
BBX 11 17 2 0
BITMAP
C060
C0C0
C180
C300
C700
C600
CC00
D800
F800
DC00
CC00
C600
C300
C380
C180
C0C0
C060
ENDCHAR
STARTCHAR uni041B
ENCODING -1
SWIDTH 600 0
DWIDTH 14 0
BBX 12 17 0 0
BITMAP
0FF0
0FF0
0C30
0C30
0C30
0C30
0C30
0C30
0C30
0830
1830
1830
1830
1830
3030
F030
E030
ENDCHAR
STARTCHAR uni041C
ENCODING -1
SWIDTH 600 0
DWIDTH 14 0
BBX 11 17 1 0
BITMAP
E0E0
E0E0
E0E0
E0E0
E160
D160
D160
D160
D160
D360
CA60
CA60
CA60
CA60
CE60
C460
C460
ENDCHAR
STARTCHAR uni041D
ENCODING -1
SWIDTH 600 0
DWIDTH 14 0
BBX 11 17 1 0
BITMAP
C060
C060
C060
C060
C060
C060
C060
FFE0
FFE0
C060
C060
C060
C060
C060
C060
C060
C060
ENDCHAR
STARTCHAR uni041E
ENCODING -1
SWIDTH 600 0
DWIDTH 14 0
BBX 12 17 1 0
BITMAP
1F00
3FC0
70E0
6060
E060
E070
C030
C030
C030
C030
C030
E070
E060
6060
70E0
3FC0
1F00
ENDCHAR
STARTCHAR uni041F
ENCODING -1
SWIDTH 600 0
DWIDTH 14 0
BBX 11 17 1 0
BITMAP
FFE0
FFE0
C060
C060
C060
C060
C060
C060
C060
C060
C060
C060
C060
C060
C060
C060
C060
ENDCHAR
STARTCHAR uni0420
ENCODING -1
SWIDTH 600 0
DWIDTH 14 0
BBX 11 17 2 0
BITMAP
FF00
FFC0
C1C0
C0E0
C060
C060
C060
C0E0
C1C0
FF80
FE00
C000
C000
C000
C000
C000
C000
ENDCHAR
STARTCHAR uni0421
ENCODING -1
SWIDTH 600 0
DWIDTH 14 0
BBX 12 17 1 0
BITMAP
07E0
1FF0
3820
7000
6000
E000
C000
C000
C000
C000
C000
E000
6000
7000
3800
1FF0
0FE0
ENDCHAR
STARTCHAR uni0422
ENCODING -1
SWIDTH 600 0
DWIDTH 14 0
BBX 12 17 1 0
BITMAP
FFF0
FFF0
0600
0600
0600
0600
0600
0600
0600
0600
0600
0600
0600
0600
0600
0600
0600
ENDCHAR
STARTCHAR uni0423
ENCODING -1
SWIDTH 600 0
DWIDTH 14 0
BBX 14 17 0 0
BITMAP
E01C
6018
7018
3030
3030
1860
1860
0CC0
0CC0
0FC0
0780
0780
0300
0700
0600
7C00
7800
ENDCHAR
STARTCHAR uni0424
ENCODING -1
SWIDTH 600 0
DWIDTH 14 0
BBX 14 17 0 0
BITMAP
0300
0300
1FE0
3FF0
7338
E318
C30C
C30C
C30C
C30C
C30C
6318
7338
3FF0
1FE0
0300
0300
ENDCHAR
STARTCHAR uni0425
ENCODING -1
SWIDTH 600 0
DWIDTH 14 0
BBX 12 17 1 0
BITMAP
E070
6060
70E0
30C0
1980
1980
0F00
0F00
0600
0F00
0F00
1980
39C0
30C0
70E0
6060
E070
ENDCHAR
STARTCHAR uni0426
ENCODING -1
SWIDTH 600 0
DWIDTH 14 0
BBX 13 22 1 -5
BITMAP
C060
C060
C060
C060
C060
C060
C060
C060
C060
C060
C060
C060
C060
C060
C060
FFF8
FFF8
0018
0018
0018
0018
0018
ENDCHAR
STARTCHAR uni0427
ENCODING -1
SWIDTH 600 0
DWIDTH 14 0
BBX 11 17 1 0
BITMAP
C060
C060
C060
C060
C060
C060
C060
C060
E0E0
7FE0
3E60
0060
0060
0060
0060
0060
0060
ENDCHAR
STARTCHAR uni0428
ENCODING -1
SWIDTH 600 0
DWIDTH 14 0
BBX 12 17 1 0
BITMAP
C630
C630
C630
C630
C630
C630
C630
C630
C630
C630
C630
C630
C630
C630
C630
FFF0
FFF0
ENDCHAR
STARTCHAR uni0429
ENCODING -1
SWIDTH 600 0
DWIDTH 14 0
BBX 13 22 1 -5
BITMAP
C630
C630
C630
C630
C630
C630
C630
C630
C630
C630
C630
C630
C630
C630
C630
FFF8
FFF8
0018
0018
0018
0018
0018
ENDCHAR
STARTCHAR uni042A
ENCODING -1
SWIDTH 600 0
DWIDTH 14 0
BBX 13 17 0 0
BITMAP
FC00
FC00
0C00
0C00
0C00
0C00
0C00
0FC0
0FF0
0C30
0C38
0C18
0C18
0C38
0C30
0FF0
0FC0
ENDCHAR
STARTCHAR uni042B
ENCODING -1
SWIDTH 600 0
DWIDTH 14 0
BBX 12 17 1 0
BITMAP
C030
C030
C030
C030
C030
C030
C030
F830
FE30
C730
C330
C330
C330
C330
C630
FE30
F830
ENDCHAR
STARTCHAR uni042C
ENCODING -1
SWIDTH 600 0
DWIDTH 14 0
BBX 11 17 2 0
BITMAP
C000
C000
C000
C000
C000
C000
C000
FF00
FFC0
C1C0
C0E0
C060
C060
C0E0
C1C0
FFC0
FF00
ENDCHAR
STARTCHAR uni042D
ENCODING -1
SWIDTH 600 0
DWIDTH 14 0
BBX 12 17 1 0
BITMAP
7E00
FF80
01C0
00E0
0060
0070
0030
3FF0
3FF0
0030
0030
0070
0060
00E0
01C0
FF80
FE00
ENDCHAR
STARTCHAR uni042E
ENCODING -1
SWIDTH 600 0
DWIDTH 14 0
BBX 12 17 1 0
BITMAP
C3C0
C7E0
C660
CE70
CC30
CC30
CC30
FC30
FC30
CC30
CC30
CC30
CC30
CC70
C660
C7E0
C3C0
ENDCHAR
STARTCHAR uni042F
ENCODING -1
SWIDTH 600 0
DWIDTH 14 0
BBX 11 17 1 0
BITMAP
0FE0
3FE0
7060
7060
6060
6060
7060
3860
1FE0
0FE0
1C60
1860
3860
3060
7060
6060
E060
ENDCHAR
STARTCHAR uni0430
ENCODING -1
SWIDTH 600 0
DWIDTH 14 0
BBX 10 13 2 0
BITMAP
3F00
7F80
01C0
00C0
00C0
1FC0
7EC0
E0C0
C0C0
C1C0
E1C0
7FC0
3CC0
ENDCHAR
STARTCHAR uni0431
ENCODING -1
SWIDTH 600 0
DWIDTH 14 0
BBX 12 18 1 0
BITMAP
0070
0FF0
3F00
3000
6000
6000
CF80
DFE0
F060
E070
C030
C030
C030
E030
6070
7060
3FC0
1F80
ENDCHAR
STARTCHAR uni0432
ENCODING -1
SWIDTH 600 0
DWIDTH 14 0
BBX 11 13 2 0
BITMAP
FF80
FFE0
C060
C060
C0E0
FF80
FFC0
C0E0
C060
C060
C0E0
FFC0
FF80
ENDCHAR
STARTCHAR uni0433
ENCODING -1
SWIDTH 600 0
DWIDTH 14 0
BBX 9 13 3 0
BITMAP
FF80
FF80
C000
C000
C000
C000
C000
C000
C000
C000
C000
C000
C000
ENDCHAR
STARTCHAR uni0434
ENCODING -1
SWIDTH 600 0
DWIDTH 14 0
BBX 13 17 0 -4
BITMAP
0FE0
0FE0
0C60
0C60
0C60
1860
1860
1860
3060
3060
6060
FFF8
FFF8
C018
C018
C018
C018
ENDCHAR
STARTCHAR uni0435
ENCODING -1
SWIDTH 600 0
DWIDTH 14 0
BBX 12 13 1 0
BITMAP
0F80
3FC0
7060
6030
C030
FFF0
FFF0
C000
C000
6000
7000
3FE0
0FC0
ENDCHAR
STARTCHAR uni0436
ENCODING -1
SWIDTH 600 0
DWIDTH 14 0
BBX 14 13 0 0
BITMAP
C30C
6318
7338
3330
1B60
1B60
0FC0
1B60
1B60
3330
7338
6318
C30C
ENDCHAR
STARTCHAR uni0437
ENCODING -1
SWIDTH 600 0
DWIDTH 14 0
BBX 10 13 2 0
BITMAP
7F00
FF80
00C0
00C0
01C0
3F00
3F80
01C0
00C0
00C0
81C0
FF80
7E00
ENDCHAR
STARTCHAR uni0438
ENCODING -1
SWIDTH 600 0
DWIDTH 14 0
BBX 10 13 2 0
BITMAP
C1C0
C1C0
C3C0
C2C0
C6C0
C4C0
CCC0
C8C0
D8C0
D0C0
F0C0
E0C0
E0C0
ENDCHAR
STARTCHAR uni0439
ENCODING -1
SWIDTH 600 0
DWIDTH 14 0
BBX 10 19 2 0
BITMAP
60C0
60C0
3F80
1F00
0000
0000
C1C0
C1C0
C3C0
C2C0
C6C0
C4C0
CCC0
C8C0
D8C0
D0C0
F0C0
E0C0
E0C0
ENDCHAR
STARTCHAR uni043A
ENCODING -1
SWIDTH 600 0
DWIDTH 14 0
BBX 11 13 2 0
BITMAP
C0C0
C180
C300
C600
CC00
D800
F800
DC00
CE00
C700
C380
C1C0
C0E0
ENDCHAR
STARTCHAR uni043B
ENCODING -1
SWIDTH 600 0
DWIDTH 14 0
BBX 12 13 0 0
BITMAP
0FF0
0FF0
0C30
0C30
0C30
0C30
0C30
0830
1830
1830
1030
F030
E030
ENDCHAR
STARTCHAR uni043C
ENCODING -1
SWIDTH 600 0
DWIDTH 14 0
BBX 12 13 1 0
BITMAP
E070
E070
E070
F0F0
D0B0
D0B0
D9B0
C930
C930
CF30
C630
C630
C630
ENDCHAR
STARTCHAR uni043D
ENCODING -1
SWIDTH 600 0
DWIDTH 14 0
BBX 10 13 2 0
BITMAP
C0C0
C0C0
C0C0
C0C0
C0C0
FFC0
FFC0
C0C0
C0C0
C0C0
C0C0
C0C0
C0C0
ENDCHAR
STARTCHAR uni043E
ENCODING -1
SWIDTH 600 0
DWIDTH 14 0
BBX 12 13 1 0
BITMAP
1F80
3FC0
70E0
E060
C030
C030
C030
C030
C030
6060
70E0
3FC0
1F80
ENDCHAR
STARTCHAR uni043F
ENCODING -1
SWIDTH 600 0
DWIDTH 14 0
BBX 10 13 2 0
BITMAP
FFC0
FFC0
C0C0
C0C0
C0C0
C0C0
C0C0
C0C0
C0C0
C0C0
C0C0
C0C0
C0C0
ENDCHAR
STARTCHAR uni0440
ENCODING -1
SWIDTH 600 0
DWIDTH 14 0
BBX 11 19 2 -6
BITMAP
CF00
FF80
E0C0
E0E0
C060
C060
C060
C060
C060
E0E0
E0C0
FF80
CF00
C000
C000
C000
C000
C000
C000
ENDCHAR
STARTCHAR uni0441
ENCODING -1
SWIDTH 600 0
DWIDTH 14 0
BBX 10 13 2 0
BITMAP
1F80
3FC0
7000
E000
C000
C000
C000
C000
C000
E000
7000
3FC0
1FC0
ENDCHAR
STARTCHAR uni0442
ENCODING -1
SWIDTH 600 0
DWIDTH 14 0
BBX 12 13 1 0
BITMAP
FFF0
FFF0
0600
0600
0600
0600
0600
0600
0600
0600
0600
0600
0600
ENDCHAR
STARTCHAR uni0443
ENCODING -1
SWIDTH 600 0
DWIDTH 14 0
BBX 12 19 1 -6
BITMAP
C030
6060
6060
6060
30C0
30C0
19C0
1980
1980
0F80
0F00
0F00
0600
0600
0E00
0C00
1C00
F800
F000
ENDCHAR
STARTCHAR uni0444
ENCODING -1
SWIDTH 600 0
DWIDTH 14 0
BBX 12 24 1 -6
BITMAP
0600
0600
0600
0600
0600
1F80
3FC0
6660
E670
C630
C630
C630
C630
C630
E670
6660
3FC0
1F80
0600
0600
0600
0600
0600
0600
ENDCHAR
STARTCHAR uni0445
ENCODING -1
SWIDTH 600 0
DWIDTH 14 0
BBX 12 13 1 0
BITMAP
6060
70E0
30C0
1980
1F80
0F00
0600
0F00
1F80
1980
30C0
6060
E070
ENDCHAR
STARTCHAR uni0446
ENCODING -1
SWIDTH 600 0
DWIDTH 14 0
BBX 12 17 2 -4
BITMAP
C0C0
C0C0
C0C0
C0C0
C0C0
C0C0
C0C0
C0C0
C0C0
C0C0
C0C0
FFF0
FFF0
0030
0030
0030
0030
ENDCHAR
STARTCHAR uni0447
ENCODING -1
SWIDTH 600 0
DWIDTH 14 0
BBX 10 13 2 0
BITMAP
C0C0
C0C0
C0C0
C0C0
C0C0
C0C0
E1C0
7FC0
3CC0
00C0
00C0
00C0
00C0
ENDCHAR
STARTCHAR uni0448
ENCODING -1
SWIDTH 600 0
DWIDTH 14 0
BBX 12 13 1 0
BITMAP
C630
C630
C630
C630
C630
C630
C630
C630
C630
C630
C630
FFF0
FFF0
ENDCHAR
STARTCHAR uni0449
ENCODING -1
SWIDTH 600 0
DWIDTH 14 0
BBX 13 17 1 -4
BITMAP
C630
C630
C630
C630
C630
C630
C630
C630
C630
C630
C630
FFF8
FFF8
0018
0018
0018
0018
ENDCHAR
STARTCHAR uni044A
ENCODING -1
SWIDTH 600 0
DWIDTH 14 0
BBX 12 13 1 0
BITMAP
FC00
FC00
0C00
0C00
0C00
0FC0
0FE0
0C70
0C30
0C30
0C70
0FE0
0FC0
ENDCHAR
STARTCHAR uni044B
ENCODING -1
SWIDTH 600 0
DWIDTH 14 0
BBX 12 13 1 0
BITMAP
C030
C030
C030
C030
C030
FC30
FE30
C730
C330
C330
C730
FE30
FC30
ENDCHAR
STARTCHAR uni044C
ENCODING -1
SWIDTH 600 0
DWIDTH 14 0
BBX 11 13 2 0
BITMAP
C000
C000
C000
C000
C000
FF80
FFC0
C0E0
C060
C060
C0E0
FFC0
FF80
ENDCHAR
STARTCHAR uni044D
ENCODING -1
SWIDTH 600 0
DWIDTH 14 0
BBX 10 13 2 0
BITMAP
FE00
FF00
0380
01C0
00C0
3FC0
3FC0
00C0
00C0
01C0
0380
FF00
7E00
ENDCHAR
STARTCHAR uni044E
ENCODING -1
SWIDTH 600 0
DWIDTH 14 0
BBX 12 13 1 0
BITMAP
C3C0
C7E0
CE60
CC30
CC30
FC30
FC30
CC30
CC30
CC30
C660
C7E0
C3C0
ENDCHAR
STARTCHAR uni044F
ENCODING -1
SWIDTH 600 0
DWIDTH 14 0
BBX 11 13 1 0
BITMAP
1FE0
3FE0
7060
6060
6060
7060
3FE0
0FE0
1860
3060
3060
6060
C060
ENDCHAR
STARTCHAR uni0451
ENCODING -1
SWIDTH 600 0
DWIDTH 14 0
BBX 12 18 1 0
BITMAP
18C0
18C0
18C0
0000
0000
0F80
3FC0
7060
6030
C030
FFF0
FFF0
C000
C000
6000
7000
3FE0
0FC0
ENDCHAR
STARTCHAR uni0452
ENCODING -1
SWIDTH 600 0
DWIDTH 14 0
BBX 12 24 0 -6
BITMAP
3000
3000
FF00
FF00
3000
3000
33C0
3FE0
3870
3830
3030
3030
3030
3030
3030
3030
3030
3030
0030
0030
0030
0070
01F0
01E0
ENDCHAR
STARTCHAR uni0453
ENCODING -1
SWIDTH 600 0
DWIDTH 14 0
BBX 9 19 3 0
BITMAP
0700
0600
0C00
1800
0000
0000
FF80
FF80
C000
C000
C000
C000
C000
C000
C000
C000
C000
C000
C000
ENDCHAR
STARTCHAR uni0454
ENCODING -1
SWIDTH 600 0
DWIDTH 14 0
BBX 10 13 2 0
BITMAP
1FC0
3FC0
7040
E000
C000
FF00
FF00
C000
C000
E000
7000
3FC0
1FC0
ENDCHAR
STARTCHAR uni0455
ENCODING -1
SWIDTH 600 0
DWIDTH 14 0
BBX 10 13 2 0
BITMAP
3F80
7FC0
C000
C000
E000
7C00
1F00
0380
01C0
00C0
81C0
FF80
7F00
ENDCHAR
STARTCHAR uni0456
ENCODING -1
SWIDTH 600 0
DWIDTH 14 0
BBX 10 18 2 0
BITMAP
0C00
0C00
0C00
0000
0000
7C00
3C00
0C00
0C00
0C00
0C00
0C00
0C00
0C00
0C00
0C00
7FC0
FFC0
ENDCHAR
STARTCHAR uni0457
ENCODING -1
SWIDTH 600 0
DWIDTH 14 0
BBX 10 18 2 0
BITMAP
3180
3180
3180
0000
0000
7C00
3C00
0C00
0C00
0C00
0C00
0C00
0C00
0C00
0C00
0C00
7FC0
FFC0
ENDCHAR
STARTCHAR uni0458
ENCODING -1
SWIDTH 600 0
DWIDTH 14 0
BBX 8 24 2 -6
BITMAP
03
07
03
00
00
7F
3F
03
03
03
03
03
03
03
03
03
03
03
03
03
03
07
FE
FC
ENDCHAR
STARTCHAR uni0459
ENCODING -1
SWIDTH 600 0
DWIDTH 14 0
BBX 13 13 0 0
BITMAP
3F00
3F00
3300
3300
3300
33E0
23F0
2318
2318
2318
6338
E3F0
C3E0
ENDCHAR
STARTCHAR uni045A
ENCODING -1
SWIDTH 600 0
DWIDTH 14 0
BBX 13 13 1 0
BITMAP
C600
C600
C600
C600
C600
FFE0
FFF0
C638
C618
C618
C638
C7F0
C7E0
ENDCHAR
STARTCHAR uni045B
ENCODING -1
SWIDTH 600 0
DWIDTH 14 0
BBX 12 18 0 0
BITMAP
3000
3000
FF80
FF80
3000
3000
33C0
3FE0
3870
3830
3030
3030
3030
3030
3030
3030
3030
3030
ENDCHAR
STARTCHAR uni045C
ENCODING -1
SWIDTH 600 0
DWIDTH 14 0
BBX 10 19 3 0
BITMAP
0700
0600
0C00
1800
0000
0000
C1C0
C380
C700
C600
CC00
D800
F800
FC00
CE00
C600
C300
C380
C1C0
ENDCHAR
STARTCHAR uni045E
ENCODING -1
SWIDTH 600 0
DWIDTH 14 0
BBX 12 25 1 -6
BITMAP
3060
3060
1FC0
0F80
0000
0000
C030
6060
6060
6060
30C0
30C0
19C0
1980
1980
0F80
0F00
0F00
0600
0600
0E00
0C00
1C00
F800
F000
ENDCHAR
STARTCHAR uni045F
ENCODING -1
SWIDTH 600 0
DWIDTH 14 0
BBX 10 17 2 -4
BITMAP
C0C0
C0C0
C0C0
C0C0
C0C0
C0C0
C0C0
C0C0
C0C0
C0C0
C0C0
FFC0
FFC0
0C00
0C00
0C00
0C00
ENDCHAR
STARTCHAR uni0490
ENCODING -1
SWIDTH 600 0
DWIDTH 14 0
BBX 10 21 2 0
BITMAP
00C0
00C0
00C0
00C0
FFC0
FFC0
C000
C000
C000
C000
C000
C000
C000
C000
C000
C000
C000
C000
C000
C000
C000
ENDCHAR
STARTCHAR uni0491
ENCODING -1
SWIDTH 600 0
DWIDTH 14 0
BBX 9 17 3 0
BITMAP
0180
0180
0180
0180
FF80
FF80
C000
C000
C000
C000
C000
C000
C000
C000
C000
C000
C000
ENDCHAR
STARTCHAR Wgrave
ENCODING -1
SWIDTH 600 0
DWIDTH 14 0
BBX 14 23 0 0
BITMAP
0E00
0600
0300
0180
0000
0000
C00C
C00C
C00C
C00C
6008
6318
6318
6798
6798
6498
6C98
6CD8
2CD0
2850
2870
3870
3030
ENDCHAR
STARTCHAR wgrave
ENCODING -1
SWIDTH 600 0
DWIDTH 14 0
BBX 14 19 0 0
BITMAP
1C00
0C00
0600
0300
0000
0000
C30C
C30C
C788
4788
6598
6498
6CD8
2CD0
2CD0
2850
2850
3870
1060
ENDCHAR
STARTCHAR Wacute
ENCODING -1
SWIDTH 600 0
DWIDTH 14 0
BBX 14 23 0 0
BITMAP
00E0
00C0
0180
0300
0000
0000
C00C
C00C
C00C
C00C
6008
6318
6318
6798
6798
6498
6C98
6CD8
2CD0
2850
2870
3870
3030
ENDCHAR
STARTCHAR wacute
ENCODING -1
SWIDTH 600 0
DWIDTH 14 0
BBX 14 19 0 0
BITMAP
00E0
00C0
0180
0300
0000
0000
C30C
C30C
C788
4788
6598
6498
6CD8
2CD0
2CD0
2850
2850
3870
1060
ENDCHAR
STARTCHAR Wdieresis
ENCODING -1
SWIDTH 600 0
DWIDTH 14 0
BBX 14 22 0 0
BITMAP
0C60
0C60
0C60
0000
0000
C00C
C00C
C00C
C00C
6008
6318
6318
6798
6798
6498
6C98
6CD8
2CD0
2850
2870
3870
3030
ENDCHAR
STARTCHAR wdieresis
ENCODING -1
SWIDTH 600 0
DWIDTH 14 0
BBX 14 18 0 0
BITMAP
0C60
0C60
0C60
0000
0000
C30C
C30C
C788
4788
6598
6498
6CD8
2CD0
2CD0
2850
2850
3870
1060
ENDCHAR
STARTCHAR Ygrave
ENCODING -1
SWIDTH 600 0
DWIDTH 14 0
BBX 12 23 1 0
BITMAP
3800
1800
0C00
0600
0000
0000
C030
6060
6060
30C0
30C0
1980
1980
0F00
0F00
0600
0600
0600
0600
0600
0600
0600
0600
ENDCHAR
STARTCHAR ygrave
ENCODING -1
SWIDTH 600 0
DWIDTH 14 0
BBX 12 25 1 -6
BITMAP
1C00
0C00
0600
0300
0000
0000
C030
6060
6060
6060
30C0
30C0
19C0
1980
1980
0F80
0F00
0F00
0600
0600
0E00
0C00
1C00
F800
F000
ENDCHAR
STARTCHAR endash
ENCODING -1
SWIDTH 600 0
DWIDTH 14 0
BBX 10 2 2 5
BITMAP
FFC0
FFC0
ENDCHAR
STARTCHAR emdash
ENCODING -1
SWIDTH 600 0
DWIDTH 14 0
BBX 14 2 0 5
BITMAP
FFFC
FFFC
ENDCHAR
STARTCHAR uni2015
ENCODING -1
SWIDTH 600 0
DWIDTH 14 0
BBX 14 2 0 5
BITMAP
FFFC
FFFC
ENDCHAR
STARTCHAR underscoredbl
ENCODING -1
SWIDTH 600 0
DWIDTH 14 0
BBX 14 5 0 -6
BITMAP
FFFC
0000
0000
0000
FFFC
ENDCHAR
STARTCHAR quoteleft
ENCODING -1
SWIDTH 600 0
DWIDTH 14 0
BBX 4 6 5 11
BITMAP
30
70
60
60
E0
E0
ENDCHAR
STARTCHAR quoteright
ENCODING -1
SWIDTH 600 0
DWIDTH 14 0
BBX 4 6 4 11
BITMAP
70
70
60
60
E0
C0
ENDCHAR
STARTCHAR quotesinglbase
ENCODING -1
SWIDTH 600 0
DWIDTH 14 0
BBX 4 6 4 -3
BITMAP
70
70
60
60
C0
C0
ENDCHAR
STARTCHAR quotereversed
ENCODING -1
SWIDTH 600 0
DWIDTH 14 0
BBX 4 6 5 11
BITMAP
E0
E0
60
60
70
30
ENDCHAR
STARTCHAR quotedblleft
ENCODING -1
SWIDTH 600 0
DWIDTH 14 0
BBX 9 6 2 11
BITMAP
3180
7380
6300
6300
E700
E700
ENDCHAR
STARTCHAR quotedblright
ENCODING -1
SWIDTH 600 0
DWIDTH 14 0
BBX 9 6 2 11
BITMAP
7380
7380
6300
6300
E700
C600
ENDCHAR
STARTCHAR quotedblbase
ENCODING -1
SWIDTH 600 0
DWIDTH 14 0
BBX 9 6 2 -3
BITMAP
7380
7380
6300
6300
C600
C600
ENDCHAR
STARTCHAR dagger
ENCODING -1
SWIDTH 600 0
DWIDTH 14 0
BBX 9 18 3 0
BITMAP
1800
1800
1800
0800
FF80
FF80
0800
0800
1800
1800
1800
1800
1800
1800
1800
1800
1800
1C00
ENDCHAR
STARTCHAR daggerdbl
ENCODING -1
SWIDTH 600 0
DWIDTH 14 0
BBX 9 18 3 0
BITMAP
1800
1800
1800
0800
FF80
FF80
0800
1800
1800
1800
1800
0800
FF80
FF80
0800
1800
1800
1800
ENDCHAR
STARTCHAR bullet
ENCODING -1
SWIDTH 600 0
DWIDTH 14 0
BBX 6 6 4 6
BITMAP
78
FC
FC
FC
FC
78
ENDCHAR
STARTCHAR ellipsis
ENCODING -1
SWIDTH 600 0
DWIDTH 14 0
BBX 13 3 0 0
BITMAP
E738
E738
E738
ENDCHAR
STARTCHAR perthousand
ENCODING -1
SWIDTH 600 0
DWIDTH 14 0
BBX 13 17 0 0
BITMAP
7800
FC00
CC00
CC00
CC00
FC00
7800
0700
7E00
E000
3CF0
7FF8
6798
6798
6798
7FF8
3CF0
ENDCHAR
STARTCHAR minute
ENCODING -1
SWIDTH 600 0
DWIDTH 14 0
BBX 3 6 5 11
BITMAP
E0
E0
E0
E0
C0
C0
ENDCHAR
STARTCHAR second
ENCODING -1
SWIDTH 600 0
DWIDTH 14 0
BBX 8 6 3 11
BITMAP
E7
E7
E7
E7
C6
C6
ENDCHAR
STARTCHAR guilsinglleft
ENCODING -1
SWIDTH 600 0
DWIDTH 14 0
BBX 5 11 5 1
BITMAP
10
18
30
60
60
C0
60
60
30
18
10
ENDCHAR
STARTCHAR guilsinglright
ENCODING -1
SWIDTH 600 0
DWIDTH 14 0
BBX 5 11 4 1
BITMAP
40
C0
60
30
30
18
30
30
60
C0
40
ENDCHAR
STARTCHAR exclamdbl
ENCODING -1
SWIDTH 600 0
DWIDTH 14 0
BBX 9 17 3 0
BITMAP
E380
E380
E380
E380
E380
E380
4100
4100
4100
4100
4100
4100
0000
0000
E380
E380
E380
ENDCHAR
STARTCHAR fraction
ENCODING -1
SWIDTH 600 0
DWIDTH 14 0
BBX 10 17 2 0
BITMAP
00C0
0180
0180
0300
0300
0600
0600
0400
0C00
0800
1800
1800
3000
3000
6000
6000
C000
ENDCHAR
STARTCHAR uni207F
ENCODING -1
SWIDTH 600 0
DWIDTH 14 0
BBX 7 8 3 9
BITMAP
DC
EE
C6
C6
C6
C6
C6
C6
ENDCHAR
STARTCHAR franc
ENCODING -1
SWIDTH 600 0
DWIDTH 14 0
BBX 11 17 1 0
BITMAP
3FE0
3FE0
3000
3000
3000
3000
3000
3FE0
3FE0
3000
3000
3000
FF00
FF00
3000
3000
3000
ENDCHAR
STARTCHAR lira
ENCODING -1
SWIDTH 600 0
DWIDTH 14 0
BBX 12 17 1 0
BITMAP
0FC0
1FE0
3820
3000
3000
3000
3000
FF80
FF80
3000
FF80
FF80
3000
3000
7000
FFF0
FFF0
ENDCHAR
STARTCHAR peseta
ENCODING -1
SWIDTH 600 0
DWIDTH 14 0
BBX 12 17 1 0
BITMAP
F800
FC00
CE00
C600
C600
C600
C600
C680
CE80
FFF0
F3F0
C180
C180
C180
C180
C0F0
C0F0
ENDCHAR
STARTCHAR Euro
ENCODING -1
SWIDTH 600 0
DWIDTH 14 0
BBX 11 17 1 0
BITMAP
03E0
0FE0
1C20
1800
3800
3000
FF80
FF80
3000
FF00
FF00
3800
1800
1800
1C00
0FE0
03E0
ENDCHAR
STARTCHAR uni2105
ENCODING -1
SWIDTH 600 0
DWIDTH 14 0
BBX 14 17 0 0
BITMAP
3C18
6430
C030
C060
C0C0
C0C0
6580
3D80
0300
0670
06D8
0D8C
0D8C
198C
318C
30D8
6070
ENDCHAR
STARTCHAR uni2113
ENCODING -1
SWIDTH 600 0
DWIDTH 14 0
BBX 8 17 3 0
BITMAP
1E
3F
33
33
33
33
32
36
3C
F0
F0
30
30
33
33
3E
1E
ENDCHAR
STARTCHAR uni2116
ENCODING -1
SWIDTH 600 0
DWIDTH 14 0
BBX 14 17 0 0
BITMAP
C600
C600
E600
E600
A600
A600
F678
D6F8
D6CC
DECC
DECC
CECC
CA7C
CE78
CE00
C6FC
C6FC
ENDCHAR
STARTCHAR trademark
ENCODING -1
SWIDTH 600 0
DWIDTH 14 0
BBX 13 8 0 9
BITMAP
FB18
2398
22A8
22A8
22A8
22A8
2248
2248
ENDCHAR
STARTCHAR Omega
ENCODING -1
SWIDTH 600 0
DWIDTH 14 0
BBX 12 17 1 0
BITMAP
1F80
3FC0
70E0
6060
E070
C030
C030
C030
C030
C030
E070
6060
6060
70E0
30C0
F9F0
F9F0
ENDCHAR
STARTCHAR estimated
ENCODING -1
SWIDTH 600 0
DWIDTH 14 0
BBX 12 13 1 0
BITMAP
0F00
30C0
6060
6060
E070
E070
FFF0
E000
E000
6020
6020
30C0
1F00
ENDCHAR
STARTCHAR oneeighth
ENCODING -1
SWIDTH 600 0
DWIDTH 14 0
BBX 14 17 0 0
BITMAP
3060
F0C0
B0C0
3180
3180
3300
3300
3200
36F8
05DC
0D8C
0DD8
18F0
198C
318C
31DC
60F8
ENDCHAR
STARTCHAR threeeighths
ENCODING -1
SWIDTH 600 0
DWIDTH 14 0
BBX 14 17 0 0
BITMAP
7860
CC60
0CC0
18C0
3980
0D80
0D00
DF00
FAF8
07DC
058C
0DD8
0CF0
198C
198C
31DC
30F8
ENDCHAR
STARTCHAR fiveeighths
ENCODING -1
SWIDTH 600 0
DWIDTH 14 0
BBX 14 17 0 0
BITMAP
FC60
C060
C0C0
F8C0
1D80
0D80
0D00
9F00
FAF8
07DC
058C
0DD8
0CF0
198C
198C
31DC
30F8
ENDCHAR
STARTCHAR seveneighths
ENCODING -1
SWIDTH 600 0
DWIDTH 14 0
BBX 14 17 0 0
BITMAP
FC60
0CC0
08C0
1980
1980
3300
3300
2200
66F8
05DC
0D8C
0DD8
18F0
198C
318C
31DC
60F8
ENDCHAR
STARTCHAR partialdiff
ENCODING -1
SWIDTH 600 0
DWIDTH 14 0
BBX 12 17 1 0
BITMAP
0F80
1FE0
1060
0070
0030
0F30
3FF0
7070
6070
E070
E060
C060
C0E0
C0C0
E180
7F00
3E00
ENDCHAR
STARTCHAR Delta
ENCODING -1
SWIDTH 600 0
DWIDTH 14 0
BBX 13 17 0 0
BITMAP
0700
0700
0500
0D80
0D80
0DC0
18C0
18C0
3060
3060
3060
6030
6030
6030
C018
FFF8
FFF8
ENDCHAR
STARTCHAR product
ENCODING -1
SWIDTH 600 0
DWIDTH 14 0
BBX 11 23 1 -6
BITMAP
FFE0
FFE0
C060
C060
C060
C060
C060
C060
C060
C060
C060
C060
C060
C060
C060
C060
C060
C060
C060
C060
C060
C060
C060
ENDCHAR
STARTCHAR summation
ENCODING -1
SWIDTH 600 0
DWIDTH 14 0
BBX 12 23 1 -6
BITMAP
FFE0
FFE0
6000
3000
3800
1800
1C00
0C00
0600
0700
0300
0300
0700
0600
0E00
0C00
1800
3800
3000
7000
6000
FFF0
FFF0
ENDCHAR
STARTCHAR minus
ENCODING -1
SWIDTH 600 0
DWIDTH 14 0
BBX 10 2 2 7
BITMAP
FFC0
FFC0
ENDCHAR
STARTCHAR radical
ENCODING -1
SWIDTH 600 0
DWIDTH 14 0
BBX 14 20 0 0
BITMAP
000C
000C
0018
0018
0010
0030
0030
0020
0060
F060
F040
30C0
18C0
1880
1D80
0D80
0D00
0700
0700
0600
ENDCHAR
STARTCHAR infinity
ENCODING -1
SWIDTH 600 0
DWIDTH 14 0
BBX 12 7 1 5
BITMAP
70E0
FBE0
CE30
C630
CE30
FBF0
71E0
ENDCHAR
STARTCHAR integral
ENCODING -1
SWIDTH 600 0
DWIDTH 14 0
BBX 8 24 3 -6
BITMAP
07
0F
18
18
18
18
18
18
18
18
18
18
18
18
18
18
18
18
18
18
18
38
F0
E0
ENDCHAR
STARTCHAR approxequal
ENCODING -1
SWIDTH 600 0
DWIDTH 14 0
BBX 10 8 2 4
BITMAP
7840
FFC0
8780
0000
0000
7840
FFC0
8780
ENDCHAR
STARTCHAR notequal
ENCODING -1
SWIDTH 600 0
DWIDTH 14 0
BBX 10 13 2 2
BITMAP
0300
0300
0600
FFC0
FFC0
0C00
0C00
0C00
FFC0
FFC0
1800
3000
3000
ENDCHAR
STARTCHAR lessequal
ENCODING -1
SWIDTH 600 0
DWIDTH 14 0
BBX 10 14 2 0
BITMAP
0040
01C0
0780
1E00
3800
E000
E000
3800
1E00
0780
01C0
0040
FFC0
FFC0
ENDCHAR
STARTCHAR greaterequal
ENCODING -1
SWIDTH 600 0
DWIDTH 14 0
BBX 10 14 2 0
BITMAP
8000
E000
7800
1E00
0700
01C0
01C0
0700
1C00
7800
E000
8000
FFC0
FFC0
ENDCHAR
STARTCHAR lozenge
ENCODING -1
SWIDTH 600 0
DWIDTH 14 0
BBX 12 17 1 0
BITMAP
0600
0600
0F00
1980
1980
30C0
6060
6060
C030
6060
6060
30C0
1980
1980
0F00
0600
0600
ENDCHAR
STARTCHAR uniFB01
ENCODING -1
SWIDTH 600 0
DWIDTH 14 0
BBX 11 18 1 0
BITMAP
1F00
3F60
3060
3060
3000
7E60
FE60
3060
3060
3060
3060
3060
3060
3060
3060
3060
3060
3060
ENDCHAR
STARTCHAR uniFB02
ENCODING -1
SWIDTH 600 0
DWIDTH 14 0
BBX 11 18 1 0
BITMAP
1F60
3F60
3060
3060
3060
7E60
FE60
3060
3060
3060
3060
3060
3060
3060
3060
3060
3060
3060
ENDCHAR
STARTCHAR glyph566
ENCODING -1
SWIDTH 600 0
DWIDTH 14 0
BBX 9 4 2 15
BITMAP
C180
C180
7F00
3E00
ENDCHAR
STARTCHAR glyph567
ENCODING -1
SWIDTH 600 0
DWIDTH 14 0
BBX 8 19 2 -6
BITMAP
7F
3F
03
03
03
03
03
03
03
03
03
03
03
03
03
03
07
FE
FC
ENDCHAR
STARTCHAR glyph568
ENCODING -1
SWIDTH 600 0
DWIDTH 14 0
BBX 3 4 5 14
BITMAP
60
E0
C0
C0
ENDCHAR
STARTCHAR glyph569
ENCODING -1
SWIDTH 600 0
DWIDTH 14 0
BBX 3 4 5 -5
BITMAP
60
60
C0
C0
ENDCHAR
STARTCHAR glyph570
ENCODING -1
SWIDTH 600 0
DWIDTH 14 0
BBX 3 4 5 15
BITMAP
60
60
C0
C0
ENDCHAR
STARTCHAR glyph571
ENCODING -1
SWIDTH 600 0
DWIDTH 14 0
BBX 7 9 4 8
BITMAP
0C
1C
3C
2C
6C
CC
FE
0C
0C
ENDCHAR
STARTCHAR glyph572
ENCODING -1
SWIDTH 600 0
DWIDTH 14 0
BBX 6 9 4 8
BITMAP
FC
C0
C0
F8
1C
0C
0C
9C
F8
ENDCHAR
STARTCHAR glyph573
ENCODING -1
SWIDTH 600 0
DWIDTH 14 0
BBX 6 9 4 8
BITMAP
FC
0C
08
18
18
30
30
20
60
ENDCHAR
STARTCHAR glyph574
ENCODING -1
SWIDTH 600 0
DWIDTH 14 0
BBX 7 9 4 8
BITMAP
7C
EE
C6
EC
78
C6
C6
EE
7C
ENDCHAR
STARTCHAR uni2000
ENCODING -1
SWIDTH 600 0
DWIDTH 14 0
BBX 1 1 0 0
BITMAP
00
ENDCHAR
STARTCHAR uni2001
ENCODING -1
SWIDTH 600 0
DWIDTH 14 0
BBX 1 1 0 0
BITMAP
00
ENDCHAR
STARTCHAR uni2002
ENCODING -1
SWIDTH 600 0
DWIDTH 14 0
BBX 1 1 0 0
BITMAP
00
ENDCHAR
STARTCHAR uni2003
ENCODING -1
SWIDTH 600 0
DWIDTH 14 0
BBX 1 1 0 0
BITMAP
00
ENDCHAR
STARTCHAR uni2004
ENCODING -1
SWIDTH 600 0
DWIDTH 14 0
BBX 1 1 0 0
BITMAP
00
ENDCHAR
STARTCHAR uni2005
ENCODING -1
SWIDTH 600 0
DWIDTH 14 0
BBX 1 1 0 0
BITMAP
00
ENDCHAR
STARTCHAR uni2006
ENCODING -1
SWIDTH 600 0
DWIDTH 14 0
BBX 1 1 0 0
BITMAP
00
ENDCHAR
STARTCHAR uni2007
ENCODING -1
SWIDTH 600 0
DWIDTH 14 0
BBX 1 1 0 0
BITMAP
00
ENDCHAR
STARTCHAR uni2008
ENCODING -1
SWIDTH 600 0
DWIDTH 14 0
BBX 1 1 0 0
BITMAP
00
ENDCHAR
STARTCHAR uni2009
ENCODING -1
SWIDTH 600 0
DWIDTH 14 0
BBX 1 1 0 0
BITMAP
00
ENDCHAR
STARTCHAR uni200A
ENCODING -1
SWIDTH 600 0
DWIDTH 14 0
BBX 1 1 0 0
BITMAP
00
ENDCHAR
STARTCHAR uni200B
ENCODING -1
SWIDTH 600 0
DWIDTH 14 0
BBX 1 1 0 0
BITMAP
00
ENDCHAR
STARTCHAR uniFEFF
ENCODING -1
SWIDTH 600 0
DWIDTH 14 0
BBX 1 1 0 0
BITMAP
00
ENDCHAR
STARTCHAR uniFFFC
ENCODING -1
SWIDTH 600 0
DWIDTH 14 0
BBX 13 22 1 -4
BITMAP
F778
8008
9C08
A208
2200
A208
9C08
8008
0000
8788
8488
8708
0480
0780
8008
80E8
8048
0040
8048
81C8
8008
F778
ENDCHAR
STARTCHAR uniFFFD
ENCODING -1
SWIDTH 600 0
DWIDTH 14 0
BBX 15 21 0 -3
BITMAP
0100
0380
0380
07C0
0FE0
0820
1010
3B98
3F98
7F1C
FE3E
7E7C
3CF8
3CF8
1FF0
0C60
0C60
0440
0380
0380
0100
ENDCHAR
STARTCHAR uni01F0
ENCODING -1
SWIDTH 600 0
DWIDTH 14 0
BBX 9 25 2 -6
BITMAP
3180
1B00
0E00
0E00
0000
0000
7F00
3F00
0300
0300
0300
0300
0300
0300
0300
0300
0300
0300
0300
0300
0300
0300
0700
FE00
FC00
ENDCHAR
STARTCHAR uni02BC
ENCODING -1
SWIDTH 600 0
DWIDTH 14 0
BBX 4 6 4 11
BITMAP
70
70
60
60
E0
C0
ENDCHAR
STARTCHAR theta1
ENCODING -1
SWIDTH 600 0
DWIDTH 14 0
BBX 14 18 0 0
BITMAP
0780
1FC0
18E0
1860
1860
1C70
0E30
07FC
F03C
F030
3030
3030
3030
3070
3060
30E0
1FC0
0F00
ENDCHAR
STARTCHAR Upsilon1
ENCODING -1
SWIDTH 600 0
DWIDTH 14 0
BBX 13 17 1 0
BITMAP
C038
6078
6060
30E0
30C0
19C0
1980
0F80
0F00
0700
0600
0600
0600
0600
0600
0600
0600
ENDCHAR
STARTCHAR omega1
ENCODING -1
SWIDTH 600 0
DWIDTH 14 0
BBX 14 13 0 0
BITMAP
7FFC
FFFC
3030
7038
6018
6018
6318
6318
6318
6318
73B8
3FF0
1CE0
ENDCHAR
STARTCHAR uni1E3E
ENCODING -1
SWIDTH 600 0
DWIDTH 14 0
BBX 11 23 1 0
BITMAP
0380
0300
0600
0C00
0000
0000
E0E0
E0E0
E0E0
E0E0
E160
D160
D160
D160
D160
D360
CA60
CA60
CA60
CA60
CE60
C460
C460
ENDCHAR
STARTCHAR uni1E3F
ENCODING -1
SWIDTH 600 0
DWIDTH 14 0
BBX 12 19 1 0
BITMAP
01C0
0180
0300
0600
0000
0000
DCE0
FFF0
E730
C630
C630
C630
C630
C630
C630
C630
C630
C630
C630
ENDCHAR
STARTCHAR uni1E00
ENCODING -1
SWIDTH 600 0
DWIDTH 14 0
BBX 14 23 0 -6
BITMAP
0300
0780
0780
0780
0CC0
0CC0
0CC0
1860
1860
1860
3FF0
3FF0
3030
6018
6018
6018
C00C
0000
0380
0440
0440
0440
0380
ENDCHAR
STARTCHAR uni1E01
ENCODING -1
SWIDTH 600 0
DWIDTH 14 0
BBX 10 19 2 -6
BITMAP
3F00
7F80
01C0
00C0
00C0
1FC0
7EC0
E0C0
C0C0
C1C0
E1C0
7FC0
3CC0
0000
0E00
1100
1100
1100
0E00
ENDCHAR
STARTCHAR uni1F4D
ENCODING -1
SWIDTH 600 0
DWIDTH 14 0
BBX 18 17 -3 0
BITMAP
267C00
C4FF00
CDC380
E98180
038180
0381C0
0300C0
0300C0
0300C0
0300C0
0300C0
0381C0
038180
018180
01C380
00FF00
007C00
ENDCHAR
STARTCHAR uni02F3
ENCODING -1
SWIDTH 600 0
DWIDTH 14 0
BBX 5 5 5 -6
BITMAP
70
88
88
88
70
ENDCHAR
STARTCHAR glyph601
ENCODING -1
SWIDTH 600 0
DWIDTH 14 0
BBX 7 4 4 13
BITMAP
26
C4
CC
E8
ENDCHAR
STARTCHAR uniFB03
ENCODING -1
SWIDTH 600 0
DWIDTH 14 0
BBX 11 18 1 0
BITMAP
1FC0
3FC0
6600
6600
6600
FFE0
6660
6660
6660
6660
6660
6660
6660
6660
6660
6660
6660
6660
ENDCHAR
STARTCHAR uniFB04
ENCODING -1
SWIDTH 600 0
DWIDTH 14 0
BBX 11 18 1 0
BITMAP
1FE0
3FE0
6660
6660
6660
FFE0
6660
6660
6660
6660
6660
6660
6660
6660
6660
6660
6660
6660
ENDCHAR
STARTCHAR Ohorn
ENCODING -1
SWIDTH 600 0
DWIDTH 14 0
BBX 13 18 1 0
BITMAP
0018
1F18
3FF0
70F0
6060
E060
E070
C030
C030
C030
C030
C030
E070
E070
6060
70E0
3FC0
0F00
ENDCHAR
STARTCHAR ohorn
ENCODING -1
SWIDTH 600 0
DWIDTH 14 0
BBX 14 15 1 0
BITMAP
001C
001C
1F98
3FF8
70F0
6060
C030
C030
C030
C030
C030
6060
70E0
3FC0
1F80
ENDCHAR
STARTCHAR Uhorn
ENCODING -1
SWIDTH 600 0
DWIDTH 14 0
BBX 14 18 1 0
BITMAP
000C
C0CC
C0D8
C0F0
C0C0
C0C0
C0C0
C0C0
C0C0
C0C0
C0C0
C0C0
C0C0
C0C0
E1C0
6180
7F80
3E00
ENDCHAR
STARTCHAR uhorn
ENCODING -1
SWIDTH 600 0
DWIDTH 14 0
BBX 13 15 2 0
BITMAP
0038
0038
C1B0
C1E0
C180
C180
C180
C180
C180
C180
C180
C380
E380
7F80
3D80
ENDCHAR
STARTCHAR gravecomb
ENCODING -1
SWIDTH 600 0
DWIDTH 14 0
BBX 5 4 4 15
BITMAP
E0
60
30
18
ENDCHAR
STARTCHAR acutecomb
ENCODING -1
SWIDTH 600 0
DWIDTH 14 0
BBX 5 4 4 15
BITMAP
38
30
60
C0
ENDCHAR
STARTCHAR tildecomb
ENCODING -1
SWIDTH 600 0
DWIDTH 14 0
BBX 8 4 3 15
BITMAP
61
FB
CE
86
ENDCHAR
STARTCHAR hookabovecomb
ENCODING -1
SWIDTH 600 0
DWIDTH 14 0
BBX 4 6 5 14
BITMAP
E0
30
30
30
60
60
ENDCHAR
STARTCHAR dotbelowcomb
ENCODING -1
SWIDTH 600 0
DWIDTH 14 0
BBX 3 3 6 -5
BITMAP
E0
E0
E0
ENDCHAR
STARTCHAR uni0400
ENCODING -1
SWIDTH 600 0
DWIDTH 14 0
BBX 10 23 2 0
BITMAP
3800
1800
0C00
0600
0000
0000
FFC0
FFC0
C000
C000
C000
C000
C000
FFC0
FFC0
C000
C000
C000
C000
C000
C000
FFC0
FFC0
ENDCHAR
STARTCHAR uni040D
ENCODING -1
SWIDTH 600 0
DWIDTH 14 0
BBX 11 23 1 0
BITMAP
3800
1800
0C00
0600
0000
0000
C0E0
C0E0
C1E0
C1E0
C360
C360
C260
C660
C460
CC60
C860
D860
D860
F060
F060
E060
E060
ENDCHAR
STARTCHAR uni0450
ENCODING -1
SWIDTH 600 0
DWIDTH 14 0
BBX 12 19 1 0
BITMAP
1C00
0C00
0600
0300
0000
0000
0F80
3FC0
7060
6030
C030
FFF0
FFF0
C000
C000
6000
7000
3FE0
0FC0
ENDCHAR
STARTCHAR uni045D
ENCODING -1
SWIDTH 600 0
DWIDTH 14 0
BBX 10 19 2 0
BITMAP
3800
1800
0C00
0600
0000
0000
C1C0
C1C0
C3C0
C2C0
C6C0
C4C0
CCC0
C8C0
D8C0
D0C0
F0C0
E0C0
E0C0
ENDCHAR
STARTCHAR uni0460
ENCODING -1
SWIDTH 600 0
DWIDTH 14 0
BBX 12 17 1 0
BITMAP
3DC0
7DE0
6060
E070
C030
C030
C030
C030
C030
C630
C630
C630
C630
E670
6660
7FE0
39C0
ENDCHAR
STARTCHAR uni0461
ENCODING -1
SWIDTH 600 0
DWIDTH 14 0
BBX 13 13 0 0
BITMAP
C618
C618
6618
6318
6318
6318
6330
3730
3730
35B0
3DE0
1DE0
18C0
ENDCHAR
STARTCHAR uni0462
ENCODING -1
SWIDTH 600 0
DWIDTH 14 0
BBX 13 18 0 0
BITMAP
1800
1800
1800
FFC0
FFC0
1800
1800
1800
1FC0
1FF0
1870
1838
1818
1818
1838
1870
1FF0
1FC0
ENDCHAR
STARTCHAR uni0463
ENCODING -1
SWIDTH 600 0
DWIDTH 14 0
BBX 13 16 0 0
BITMAP
1800
1800
1800
FF80
FF80
1800
1800
1800
1FE0
1FF0
1838
1818
1818
1838
1FF0
1FE0
ENDCHAR
STARTCHAR uni0464
ENCODING -1
SWIDTH 600 0
DWIDTH 14 0
BBX 12 17 1 0
BITMAP
C3E0
C7F0
CE00
CC00
DC00
D800
D800
FFC0
FFC0
D800
D800
D800
DC00
CC00
CE00
C7E0
C3E0
ENDCHAR
STARTCHAR uni0465
ENCODING -1
SWIDTH 600 0
DWIDTH 14 0
BBX 11 13 2 0
BITMAP
C3E0
CFE0
CC00
D800
D800
FFC0
FFC0
D800
D800
DC00
CC00
CFE0
C3C0
ENDCHAR
STARTCHAR uni0466
ENCODING -1
SWIDTH 600 0
DWIDTH 14 0
BBX 14 17 0 0
BITMAP
0300
0780
0780
0580
0CC0
0CC0
08C0
1FE0
1FE0
1B60
3330
3330
3330
6318
6318
6318
C30C
ENDCHAR
STARTCHAR uni0467
ENCODING -1
SWIDTH 600 0
DWIDTH 14 0
BBX 13 13 1 0
BITMAP
0700
0780
0D80
0DC0
0CC0
1FC0
1FE0
3360
3320
7330
6330
6330
C318
ENDCHAR
STARTCHAR uni0468
ENCODING -1
SWIDTH 600 0
DWIDTH 14 0
BBX 14 17 1 0
BITMAP
C1C0
C1C0
C1C0
C340
C360
C360
C360
FFE0
FFF0
C7B0
C7B0
CD98
CD98
CD98
CD98
D98C
D98C
ENDCHAR
STARTCHAR uni0469
ENCODING -1
SWIDTH 600 0
DWIDTH 14 0
BBX 14 13 1 0
BITMAP
C1C0
C1C0
C340
C360
C360
FFE0
FFF0
C7F0
CFD0
CDD8
CDD8
D9CC
D9CC
ENDCHAR
STARTCHAR uni046A
ENCODING -1
SWIDTH 600 0
DWIDTH 14 0
BBX 14 17 0 0
BITMAP
7FF8
7FF8
3030
3870
1860
0CC0
0780
1FE0
3FF0
3330
3330
6318
6318
6318
6318
C30C
C30C
ENDCHAR
STARTCHAR uni046B
ENCODING -1
SWIDTH 600 0
DWIDTH 14 0
BBX 14 13 0 0
BITMAP
3FF8
3FF8
1830
0CE0
07C0
1FE0
3FF0
3330
3318
6318
6318
631C
C30C
ENDCHAR
STARTCHAR uni046C
ENCODING -1
SWIDTH 600 0
DWIDTH 14 0
BBX 14 17 1 0
BITMAP
CFFC
CFFC
CC18
C618
C630
C760
C3E0
FFE0
FFF0
CD98
CD98
CD98
CD98
D99C
D99C
D98C
D98C
ENDCHAR
STARTCHAR uni046D
ENCODING -1
SWIDTH 600 0
DWIDTH 14 0
BBX 14 13 1 0
BITMAP
CFF8
CFF8
C630
C330
C360
FFE0
FED0
CCD8
CCD8
CCD8
DCD8
D8CC
D8CC
ENDCHAR
STARTCHAR uni046E
ENCODING -1
SWIDTH 600 0
DWIDTH 14 0
BBX 11 24 1 -4
BITMAP
61C0
3B00
1E00
3F80
FFC0
60E0
0060
0060
00E0
01C0
3F00
3F80
01C0
00E0
0060
0060
00E0
01C0
3FC0
7F00
E000
C000
FFE0
7FE0
ENDCHAR
STARTCHAR uni046F
ENCODING -1
SWIDTH 600 0
DWIDTH 14 0
BBX 10 20 2 -4
BITMAP
31C0
1B80
1F00
3F00
7FC0
00C0
00C0
01C0
1F00
1F80
01C0
00C0
00C0
01C0
1F80
7F00
C000
C000
FFC0
7FC0
ENDCHAR
STARTCHAR uni0470
ENCODING -1
SWIDTH 600 0
DWIDTH 14 0
BBX 12 17 1 0
BITMAP
C630
C630
C630
C630
C630
C630
C630
C630
C630
6660
7FE0
3FC0
0600
0600
0600
0600
0600
ENDCHAR
STARTCHAR uni0471
ENCODING -1
SWIDTH 600 0
DWIDTH 14 0
BBX 12 24 1 -6
BITMAP
0600
0600
0600
0600
0600
C660
C660
C660
C630
C630
C630
C630
C630
C630
E670
6660
7FE0
1F80
0600
0600
0600
0600
0600
0600
ENDCHAR
STARTCHAR uni0472
ENCODING -1
SWIDTH 600 0
DWIDTH 14 0
BBX 12 17 1 0
BITMAP
0F00
3FC0
70E0
6060
E060
C030
C030
FFF0
FFF0
C030
C030
E070
E070
6060
70E0
3FC0
0F00
ENDCHAR
STARTCHAR uni0473
ENCODING -1
SWIDTH 600 0
DWIDTH 14 0
BBX 12 13 1 0
BITMAP
1F80
3FC0
60E0
6060
C030
FFF0
FFF0
C030
C070
6060
70E0
3FC0
1F80
ENDCHAR
STARTCHAR uni0474
ENCODING -1
SWIDTH 600 0
DWIDTH 14 0
BBX 14 17 1 0
BITMAP
C01C
E03C
6070
6060
7060
30E0
30C0
30C0
38C0
19C0
1980
1980
0D80
0F00
0F00
0700
0700
ENDCHAR
STARTCHAR uni0475
ENCODING -1
SWIDTH 600 0
DWIDTH 14 0
BBX 13 13 1 0
BITMAP
C038
6078
6060
6060
30C0
30C0
38C0
1980
1980
0D80
0F00
0F00
0700
ENDCHAR
STARTCHAR uni0476
ENCODING -1
SWIDTH 600 0
DWIDTH 14 0
BBX 14 23 1 0
BITMAP
3300
1980
1980
0CC0
0000
0000
C01C
E03C
6070
6060
7060
30E0
30C0
30C0
38C0
19C0
1980
1980
0D80
0F00
0F00
0700
0700
ENDCHAR
STARTCHAR uni0477
ENCODING -1
SWIDTH 600 0
DWIDTH 14 0
BBX 13 19 1 0
BITMAP
6600
3300
3300
1980
0000
0000
C038
6078
6060
6060
30C0
30C0
38C0
1980
1980
0D80
0F00
0F00
0700
ENDCHAR
STARTCHAR uni0478
ENCODING -1
SWIDTH 600 0
DWIDTH 14 0
BBX 13 23 1 -6
BITMAP
7000
7800
FC00
CC00
CF18
CF18
CF38
CDB0
CDB0
CDB0
CDB0
CDB0
CCA0
CCA0
FCE0
78E0
78E0
00E0
00C0
00C0
00C0
03C0
0380
ENDCHAR
STARTCHAR uni0479
ENCODING -1
SWIDTH 600 0
DWIDTH 14 0
BBX 13 19 1 -6
BITMAP
3318
7998
CD98
CDB0
CDB0
CDB0
CDB0
CCB0
CCA0
CCE0
CCE0
78E0
3860
0060
0040
00C0
00C0
03C0
0380
ENDCHAR
STARTCHAR uni047A
ENCODING -1
SWIDTH 600 0
DWIDTH 14 0
BBX 12 19 1 -1
BITMAP
0600
1F80
3FC0
76E0
6060
E070
E070
C030
C030
C030
C030
C030
E070
E070
6060
76E0
3FC0
1F80
0600
ENDCHAR
STARTCHAR uni047B
ENCODING -1
SWIDTH 600 0
DWIDTH 14 0
BBX 12 15 1 -1
BITMAP
0600
1F80
3FC0
6660
E060
C030
C030
C030
C030
C030
6060
6660
3FC0
1F80
0600
ENDCHAR
STARTCHAR uni047C
ENCODING -1
SWIDTH 600 0
DWIDTH 14 0
BBX 12 25 1 0
BITMAP
1C00
3FC0
31C0
0700
0300
0300
0400
0000
3DC0
7DE0
6060
E070
C030
C030
C030
C030
C030
C030
C030
C030
C030
E070
6660
7FE0
39C0
ENDCHAR
STARTCHAR uni047D
ENCODING -1
SWIDTH 600 0
DWIDTH 14 0
BBX 12 21 1 0
BITMAP
1E00
3FC0
31C0
0700
0300
0300
0400
0000
39C0
79E0
E070
C030
C030
C030
C030
C030
C030
C030
6060
7FE0
3FC0
ENDCHAR
STARTCHAR uni047E
ENCODING -1
SWIDTH 600 0
DWIDTH 14 0
BBX 12 20 1 0
BITMAP
3FC0
1480
0000
39C0
79E0
6060
E070
C030
C030
C030
C030
C030
C630
C630
C630
C630
E670
6660
7FE0
39C0
ENDCHAR
STARTCHAR uni047F
ENCODING -1
SWIDTH 600 0
DWIDTH 14 0
BBX 13 17 0 0
BITMAP
1FE0
0940
0000
0000
C618
C618
6318
6318
6318
6318
2310
3330
37B0
35B0
15E0
1CE0
1CC0
ENDCHAR
STARTCHAR uni0480
ENCODING -1
SWIDTH 600 0
DWIDTH 14 0
BBX 11 23 2 -6
BITMAP
0FC0
1FE0
3840
7000
6000
E000
C000
C000
C000
C000
C000
E000
6000
7000
3800
3F80
0F80
0180
0180
0180
0180
0180
0180
ENDCHAR
STARTCHAR uni0481
ENCODING -1
SWIDTH 600 0
DWIDTH 14 0
BBX 10 19 2 -6
BITMAP
1F80
3FC0
7000
E000
C000
C000
C000
C000
C000
E000
7000
3F00
1F00
0300
0300
0300
0300
0300
0300
ENDCHAR
STARTCHAR uni0482
ENCODING -1
SWIDTH 600 0
DWIDTH 14 0
BBX 12 15 1 0
BITMAP
0040
0060
08C0
1EC0
0780
03C0
0370
0620
4600
EC00
3C00
1E00
3780
7100
2000
ENDCHAR
STARTCHAR uni0483
ENCODING -1
SWIDTH 600 0
DWIDTH 14 0
BBX 9 3 3 14
BITMAP
0180
FF80
C000
ENDCHAR
STARTCHAR uni0484
ENCODING -1
SWIDTH 600 0
DWIDTH 14 0
BBX 9 3 3 15
BITMAP
0F00
FF80
E180
ENDCHAR
STARTCHAR uni0485
ENCODING -1
SWIDTH 600 0
DWIDTH 14 0
BBX 3 4 6 15
BITMAP
E0
C0
C0
60
ENDCHAR
STARTCHAR uni0486
ENCODING -1
SWIDTH 600 0
DWIDTH 14 0
BBX 3 4 5 15
BITMAP
E0
60
60
C0
ENDCHAR
STARTCHAR uni0488
ENCODING -1
SWIDTH 600 0
DWIDTH 14 0
BBX 13 11 1 1
BITMAP
0700
2060
50D0
0000
0000
C038
0000
0000
6060
5090
0600
ENDCHAR
STARTCHAR uni0489
ENCODING -1
SWIDTH 600 0
DWIDTH 14 0
BBX 14 13 0 0
BITMAP
0100
1300
1330
1060
1000
E018
601C
0000
0020
1820
3330
0310
0200
ENDCHAR
STARTCHAR uni048A
ENCODING -1
SWIDTH 600 0
DWIDTH 14 0
BBX 13 27 1 -5
BITMAP
60C0
61C0
3F80
1F00
0000
C0E0
C0E0
C1E0
C1E0
C360
C360
C660
C660
C460
CC60
CC60
D860
D860
F060
F060
E078
E078
0010
0030
0030
0070
0060
ENDCHAR
STARTCHAR uni048B
ENCODING -1
SWIDTH 600 0
DWIDTH 14 0
BBX 12 23 2 -4
BITMAP
60C0
61C0
3F80
1F00
0000
0000
C1C0
C1C0
C3C0
C2C0
C6C0
C4C0
CCC0
C8C0
D8C0
D0C0
F0C0
E0F0
E0F0
0030
0060
0060
0060
ENDCHAR
STARTCHAR uni048C
ENCODING -1
SWIDTH 600 0
DWIDTH 14 0
BBX 12 17 0 0
BITMAP
3000
3000
FF00
FF00
3000
3000
3000
3F80
3FE0
3060
3070
3030
3030
3070
3060
3FE0
3F80
ENDCHAR
STARTCHAR uni048D
ENCODING -1
SWIDTH 600 0
DWIDTH 14 0
BBX 11 18 1 0
BITMAP
3000
3000
3000
FE00
FE00
3000
3000
3000
3000
3000
3F80
3FC0
3060
3060
3060
30E0
3FC0
3F80
ENDCHAR
STARTCHAR uni048E
ENCODING -1
SWIDTH 600 0
DWIDTH 14 0
BBX 11 17 2 0
BITMAP
FF00
FFC0
C1C0
C0E0
C060
C060
C4E0
CCE0
C7C0
FF80
FF80
C0C0
C080
C000
C000
C000
C000
ENDCHAR
STARTCHAR uni048F
ENCODING -1
SWIDTH 600 0
DWIDTH 14 0
BBX 11 19 2 -6
BITMAP
CF00
FF80
E0C0
E0E0
C060
C060
C060
C060
C260
E6E0
E3C0
FF80
CF80
C0C0
C080
C000
C000
C000
C000
ENDCHAR
STARTCHAR uni0492
ENCODING -1
SWIDTH 600 0
DWIDTH 14 0
BBX 11 17 2 0
BITMAP
3FE0
3FE0
3000
3000
3000
3000
3000
3000
FF00
FF00
3000
3000
3000
3000
3000
3000
3000
ENDCHAR
STARTCHAR uni0493
ENCODING -1
SWIDTH 600 0
DWIDTH 14 0
BBX 11 13 1 0
BITMAP
3FE0
3FE0
3000
3000
3000
3000
FF00
FF00
3000
3000
3000
3000
3000
ENDCHAR
STARTCHAR uni0494
ENCODING -1
SWIDTH 600 0
DWIDTH 14 0
BBX 11 23 2 -6
BITMAP
FF00
FF00
C000
C000
C000
C000
C000
C000
FE00
FF80
C3C0
C1C0
C0E0
C0E0
C060
C060
C060
0060
00E0
00C0
01C0
3F80
3F00
ENDCHAR
STARTCHAR uni0495
ENCODING -1
SWIDTH 600 0
DWIDTH 14 0
BBX 10 19 3 -6
BITMAP
FE00
FE00
C000
C000
C000
FE00
FF00
C380
C180
C1C0
C0C0
C0C0
C0C0
00C0
00C0
0180
0380
3F00
3E00
ENDCHAR
STARTCHAR uni0496
ENCODING -1
SWIDTH 600 0
DWIDTH 14 0
BBX 14 22 0 -5
BITMAP
C30C
6318
6318
3330
3330
1B60
1B60
0F40
0FC0
1F60
1B60
1B60
3330
3330
6318
631C
C30C
000C
000C
000C
000C
000C
ENDCHAR
STARTCHAR uni0497
ENCODING -1
SWIDTH 600 0
DWIDTH 14 0
BBX 14 17 0 -4
BITMAP
C318
6318
3330
3330
1B60
0FC0
0FC0
1B60
1B60
3330
7338
631C
E30C
000C
000C
000C
000C
ENDCHAR
STARTCHAR uni0498
ENCODING -1
SWIDTH 600 0
DWIDTH 14 0
BBX 10 22 2 -5
BITMAP
3F00
FF80
41C0
00C0
00C0
01C0
0380
3E00
3F00
0180
01C0
00C0
00C0
01C0
8380
FF80
7E00
0800
0400
0600
0E00
1C00
ENDCHAR
STARTCHAR uni0499
ENCODING -1
SWIDTH 600 0
DWIDTH 14 0
BBX 10 18 2 -5
BITMAP
7F00
FF80
00C0
00C0
01C0
3F00
3F80
01C0
00C0
00C0
81C0
FF80
7E00
0800
0400
0600
0E00
1C00
ENDCHAR
STARTCHAR uni049A
ENCODING -1
SWIDTH 600 0
DWIDTH 14 0
BBX 12 22 2 -5
BITMAP
C070
C0E0
C1C0
C380
C300
C600
CC00
D800
F800
DC00
CC00
C600
C700
C380
C1C0
C0F0
C070
0030
0030
0030
0030
0030
ENDCHAR
STARTCHAR uni049B
ENCODING -1
SWIDTH 600 0
DWIDTH 14 0
BBX 11 17 3 -4
BITMAP
C1C0
C380
C700
CE00
CC00
D800
F800
DC00
CE00
C700
C300
C1E0
C0E0
0060
0060
0060
0060
ENDCHAR
STARTCHAR uni049C
ENCODING -1
SWIDTH 600 0
DWIDTH 14 0
BBX 11 17 2 0
BITMAP
C0E0
C1C0
C380
DB00
DE00
DE00
DC00
D800
F800
FC00
DE00
DE00
DB00
DB80
C180
C0C0
C0E0
ENDCHAR
STARTCHAR uni049D
ENCODING -1
SWIDTH 600 0
DWIDTH 14 0
BBX 11 13 3 0
BITMAP
C0E0
CDC0
CD80
CF00
CE00
DC00
FC00
DE00
CE00
CF00
CD80
CDC0
C0E0
ENDCHAR
STARTCHAR uni049E
ENCODING -1
SWIDTH 600 0
DWIDTH 14 0
BBX 13 17 0 0
BITMAP
3038
3070
FE60
FEC0
3180
3380
3300
3600
3F00
3B00
3180
31C0
30C0
3060
3070
3030
3038
ENDCHAR
STARTCHAR uni049F
ENCODING -1
SWIDTH 600 0
DWIDTH 14 0
BBX 13 18 1 0
BITMAP
3000
3000
FF80
FF80
3000
3038
3070
30C0
3180
3300
3600
3F00
3B80
31C0
30C0
3060
3070
3038
ENDCHAR
STARTCHAR uni04A0
ENCODING -1
SWIDTH 600 0
DWIDTH 14 0
BBX 14 17 0 0
BITMAP
FC0C
FC18
0C30
0C30
0C60
0CC0
0CC0
0D80
0FC0
0EC0
0C60
0C60
0C30
0C30
0C18
0C18
0C0C
ENDCHAR
STARTCHAR uni04A1
ENCODING -1
SWIDTH 600 0
DWIDTH 14 0
BBX 13 13 1 0
BITMAP
FC18
FC30
0C60
0CE0
0DC0
0D80
0F80
0D80
0CC0
0CE0
0C60
0C30
0C38
ENDCHAR
STARTCHAR uni04A2
ENCODING -1
SWIDTH 600 0
DWIDTH 14 0
BBX 13 22 1 -5
BITMAP
C060
C060
C060
C060
C060
C060
C060
FFE0
FFE0
C060
C060
C060
C060
C060
C060
C078
C078
0018
0018
0018
0018
0018
ENDCHAR
STARTCHAR uni04A3
ENCODING -1
SWIDTH 600 0
DWIDTH 14 0
BBX 12 17 2 -4
BITMAP
C0C0
C0C0
C0C0
C0C0
C0C0
FFC0
FFC0
C0C0
C0C0
C0C0
C0C0
C0F0
C0F0
0030
0030
0030
0030
ENDCHAR
STARTCHAR uni04A4
ENCODING -1
SWIDTH 600 0
DWIDTH 14 0
BBX 13 17 1 0
BITMAP
C0F8
C0F8
C0C0
C0C0
C0C0
C0C0
C0C0
FFC0
FFC0
C0C0
C0C0
C0C0
C0C0
C0C0
C0C0
C0C0
C0C0
ENDCHAR
STARTCHAR uni04A5
ENCODING -1
SWIDTH 600 0
DWIDTH 14 0
BBX 12 13 2 0
BITMAP
C1F0
C1F0
C180
C180
C180
FF80
FF80
C180
C180
C180
C180
C180
C180
ENDCHAR
STARTCHAR uni04A6
ENCODING -1
SWIDTH 600 0
DWIDTH 14 0
BBX 12 23 1 -6
BITMAP
FE00
FE00
C600
C600
C600
C600
C600
C600
C7C0
C7E0
C660
C670
C630
C630
C630
C630
C630
0030
0030
0070
0060
03E0
03C0
ENDCHAR
STARTCHAR uni04A7
ENCODING -1
SWIDTH 600 0
DWIDTH 14 0
BBX 12 19 1 -6
BITMAP
FE00
FE00
C600
C600
C600
C7C0
C7E0
C660
C630
C630
C630
C630
C630
0030
0030
0030
0060
03E0
03C0
ENDCHAR
STARTCHAR uni04A8
ENCODING -1
SWIDTH 600 0
DWIDTH 14 0
BBX 13 18 1 -1
BITMAP
0F80
3F80
7800
61E0
63F0
E738
C718
C618
C618
C618
C618
E738
E330
6370
71E0
3FC0
0FF8
0038
ENDCHAR
STARTCHAR uni04A9
ENCODING -1
SWIDTH 600 0
DWIDTH 14 0
BBX 12 13 1 0
BITMAP
1F00
3F00
7000
61E0
C3E0
C630
C630
C630
C630
6760
7360
3FF0
1FF0
ENDCHAR
STARTCHAR uni04AA
ENCODING -1
SWIDTH 600 0
DWIDTH 14 0
BBX 12 22 1 -5
BITMAP
07E0
1FF0
3820
7000
6000
E000
C000
C000
C000
C000
C000
E000
6000
7000
3800
1FF0
0FE0
0100
0080
00C0
01C0
0380
ENDCHAR
STARTCHAR uni04AB
ENCODING -1
SWIDTH 600 0
DWIDTH 14 0
BBX 10 18 2 -5
BITMAP
1F80
3FC0
7000
E000
C000
C000
C000
C000
C000
E000
7000
3FC0
1FC0
0400
0200
0300
0700
0E00
ENDCHAR
STARTCHAR uni04AC
ENCODING -1
SWIDTH 600 0
DWIDTH 14 0
BBX 12 22 1 -5
BITMAP
FFF0
FFF0
0600
0600
0600
0600
0600
0600
0600
0600
0600
0600
0600
0600
0600
0780
0780
0180
0180
0180
0180
0180
ENDCHAR
STARTCHAR uni04AD
ENCODING -1
SWIDTH 600 0
DWIDTH 14 0
BBX 12 17 1 -4
BITMAP
FFF0
FFF0
0600
0600
0600
0600
0600
0600
0600
0600
0600
0780
0780
0180
0180
0180
0180
ENDCHAR
STARTCHAR uni04AE
ENCODING -1
SWIDTH 600 0
DWIDTH 14 0
BBX 12 17 1 0
BITMAP
C030
6060
6060
30C0
30C0
1980
1980
0F00
0F00
0600
0600
0600
0600
0600
0600
0600
0600
ENDCHAR
STARTCHAR uni04AF
ENCODING -1
SWIDTH 600 0
DWIDTH 14 0
BBX 12 19 1 -6
BITMAP
C030
6060
6060
6060
30C0
30C0
38C0
1980
1980
0D00
0F00
0F00
0600
0600
0600
0600
0600
0600
0600
ENDCHAR
STARTCHAR uni04B0
ENCODING -1
SWIDTH 600 0
DWIDTH 14 0
BBX 12 17 1 0
BITMAP
C030
6060
6060
30C0
30C0
1980
1980
0F80
0F00
0700
0600
3FE0
3FE0
0600
0600
0600
0600
ENDCHAR
STARTCHAR uni04B1
ENCODING -1
SWIDTH 600 0
DWIDTH 14 0
BBX 12 19 1 -6
BITMAP
C030
6060
6060
6060
30C0
30C0
19C0
1980
1980
0D00
0F00
0F00
0600
3FC0
3FC0
0600
0600
0600
0600
ENDCHAR
STARTCHAR uni04B2
ENCODING -1
SWIDTH 600 0
DWIDTH 14 0
BBX 13 22 1 -5
BITMAP
E070
6060
70E0
30C0
1980
1980
0F00
0F00
0700
0F00
1F80
1980
38C0
30C0
7060
6078
C038
0018
0018
0018
0018
0018
ENDCHAR
STARTCHAR uni04B3
ENCODING -1
SWIDTH 600 0
DWIDTH 14 0
BBX 13 17 1 -4
BITMAP
E070
70E0
30C0
1980
1F80
0F00
0600
0F00
1D80
39C0
30E0
6078
E038
0018
0018
0018
0018
ENDCHAR
STARTCHAR uni04B4
ENCODING -1
SWIDTH 600 0
DWIDTH 14 0
BBX 14 22 0 -5
BITMAP
FF30
FF30
1830
1830
1830
1830
1830
1830
1830
1830
1830
1830
1830
1830
1830
1FFC
1FFC
000C
000C
000C
000C
000C
ENDCHAR
STARTCHAR uni04B5
ENCODING -1
SWIDTH 600 0
DWIDTH 14 0
BBX 14 17 0 -4
BITMAP
FF30
FF30
1830
1830
1830
1830
1830
1830
1830
1830
1830
1FFC
1FFC
000C
000C
000C
000C
ENDCHAR
STARTCHAR uni04B6
ENCODING -1
SWIDTH 600 0
DWIDTH 14 0
BBX 12 22 2 -5
BITMAP
C0C0
C0C0
C0C0
C0C0
C0C0
C0C0
C0C0
C0C0
E1C0
7FC0
3EC0
00C0
00C0
00C0
00C0
00F0
00F0
0030
0030
0030
0030
0030
ENDCHAR
STARTCHAR uni04B7
ENCODING -1
SWIDTH 600 0
DWIDTH 14 0
BBX 12 17 2 -4
BITMAP
C0C0
C0C0
C0C0
C0C0
C0C0
C0C0
E1C0
7FC0
3EC0
00C0
00C0
00F0
00F0
0030
0030
0030
0030
ENDCHAR
STARTCHAR uni04B8
ENCODING -1
SWIDTH 600 0
DWIDTH 14 0
BBX 10 17 2 0
BITMAP
C0C0
C0C0
C0C0
C0C0
C0C0
CCC0
CCC0
CCC0
EDC0
7FC0
3EC0
0CC0
0CC0
0CC0
00C0
00C0
00C0
ENDCHAR
STARTCHAR uni04B9
ENCODING -1
SWIDTH 600 0
DWIDTH 14 0
BBX 10 13 2 0
BITMAP
C0C0
C0C0
C0C0
CCC0
CCC0
CCC0
CDC0
7FC0
3EC0
0CC0
0CC0
0CC0
00C0
ENDCHAR
STARTCHAR uni04BA
ENCODING -1
SWIDTH 600 0
DWIDTH 14 0
BBX 10 17 2 0
BITMAP
C000
C000
C000
C000
C000
C000
CF00
FF80
E1C0
C0C0
C0C0
C0C0
C0C0
C0C0
C0C0
C0C0
C0C0
ENDCHAR
STARTCHAR uni04BB
ENCODING -1
SWIDTH 600 0
DWIDTH 14 0
BBX 10 13 2 0
BITMAP
C000
C000
C000
C000
CF00
FF80
E1C0
C0C0
C0C0
C0C0
C0C0
C0C0
C0C0
ENDCHAR
STARTCHAR uni04BC
ENCODING -1
SWIDTH 600 0
DWIDTH 14 0
BBX 13 17 0 0
BITMAP
03E0
07F0
0E30
0C38
1C18
D818
D818
FFF8
7FF8
1800
1800
1C00
1C00
0C00
0E10
07F0
03E0
ENDCHAR
STARTCHAR uni04BD
ENCODING -1
SWIDTH 600 0
DWIDTH 14 0
BBX 13 13 0 0
BITMAP
03C0
07F0
0C30
DC18
D818
FFF8
7FF8
1800
1800
1C00
0C00
07F0
03E0
ENDCHAR
STARTCHAR uni04BE
ENCODING -1
SWIDTH 600 0
DWIDTH 14 0
BBX 13 21 0 -4
BITMAP
03E0
07F0
0E30
0C38
1C18
D818
D818
FFF8
7FF8
1800
1800
1C00
1C00
0C00
0E10
07F0
03E0
0180
0180
0180
0180
ENDCHAR
STARTCHAR uni04BF
ENCODING -1
SWIDTH 600 0
DWIDTH 14 0
BBX 13 17 0 -4
BITMAP
03C0
07F0
0C30
DC18
D818
FFF8
7FF8
1800
1800
1C00
0C00
07F0
03E0
0180
0180
0180
0180
ENDCHAR
STARTCHAR uni04C0
ENCODING -1
SWIDTH 600 0
DWIDTH 14 0
BBX 9 17 3 0
BITMAP
FF80
FF80
1800
1800
1800
1800
1800
1800
1800
1800
1800
1800
1800
1800
1800
FF80
FF80
ENDCHAR
STARTCHAR uni04C1
ENCODING -1
SWIDTH 600 0
DWIDTH 14 0
BBX 14 23 0 0
BITMAP
1830
1830
0FE0
07C0
0000
0000
C30C
6318
6318
3330
3330
1B60
1B60
0FC0
0FC0
1BE0
1B60
3B70
3330
7338
6318
E31C
C30C
ENDCHAR
STARTCHAR uni04C2
ENCODING -1
SWIDTH 600 0
DWIDTH 14 0
BBX 14 19 0 0
BITMAP
1830
1830
0FE0
07C0
0000
0000
C30C
6318
7338
3330
1B60
1B60
0FC0
1B60
1B60
3330
7338
6318
C30C
ENDCHAR
STARTCHAR uni04C3
ENCODING -1
SWIDTH 600 0
DWIDTH 14 0
BBX 11 23 2 -6
BITMAP
C0E0
C1C0
C180
C300
C700
CE00
CC00
D800
FE00
FF80
C3C0
C1C0
C0E0
C0E0
C060
C060
C060
0060
00E0
00C0
01C0
3F80
3F00
ENDCHAR
STARTCHAR uni04C4
ENCODING -1
SWIDTH 600 0
DWIDTH 14 0
BBX 10 19 3 -6
BITMAP
C1C0
C380
C700
CE00
DC00
FC00
FF00
C380
C180
C1C0
C0C0
C0C0
C0C0
00C0
00C0
0180
0380
3F00
3E00
ENDCHAR
STARTCHAR uni04C5
ENCODING -1
SWIDTH 600 0
DWIDTH 14 0
BBX 14 22 0 -5
BITMAP
07F0
07F0
0630
0630
0E30
0E30
0E30
0C30
0C30
0C30
1C30
1C30
1C30
1830
3830
F03C
E03C
0008
0018
0018
0030
0030
ENDCHAR
STARTCHAR uni04C6
ENCODING -1
SWIDTH 600 0
DWIDTH 14 0
BBX 14 17 0 -4
BITMAP
0FF0
0FF0
0C30
0C30
0C30
1C30
1C30
1830
1830
3830
3030
F03C
E03C
000C
0018
0018
0018
ENDCHAR
STARTCHAR uni04C7
ENCODING -1
SWIDTH 600 0
DWIDTH 14 0
BBX 11 23 1 -6
BITMAP
C060
C060
C060
C060
C060
C060
C060
FFE0
FFE0
C060
C060
C060
C060
C060
C060
C060
C060
0060
00E0
00C0
01C0
3F80
3F00
ENDCHAR
STARTCHAR uni04C8
ENCODING -1
SWIDTH 600 0
DWIDTH 14 0
BBX 10 19 2 -6
BITMAP
C0C0
C0C0
C0C0
C0C0
C0C0
FFC0
FFC0
C0C0
C0C0
C0C0
C0C0
C0C0
C0C0
00C0
00C0
01C0
0180
1F80
1E00
ENDCHAR
STARTCHAR uni04C9
ENCODING -1
SWIDTH 600 0
DWIDTH 14 0
BBX 13 22 1 -5
BITMAP
C060
C060
C060
C060
C060
C060
C060
FFE0
FFE0
C060
C060
C060
C060
C060
C060
C078
C078
0010
0030
0030
0060
0060
ENDCHAR
STARTCHAR uni04CA
ENCODING -1
SWIDTH 600 0
DWIDTH 14 0
BBX 12 17 2 -4
BITMAP
C0C0
C0C0
C0C0
C0C0
C0C0
FFC0
FFC0
C0C0
C0C0
C0C0
C0C0
C0F0
C0F0
0030
0020
0060
0060
ENDCHAR
STARTCHAR uni04CB
ENCODING -1
SWIDTH 600 0
DWIDTH 14 0
BBX 10 22 2 -5
BITMAP
C0C0
C0C0
C0C0
C0C0
C0C0
C0C0
C0C0
C0C0
E1C0
7FC0
3CC0
00C0
00C0
00C0
00C0
03C0
03C0
0300
0300
0300
0300
0300
ENDCHAR
STARTCHAR uni04CC
ENCODING -1
SWIDTH 600 0
DWIDTH 14 0
BBX 10 17 2 -4
BITMAP
C0C0
C0C0
C0C0
C0C0
C0C0
C0C0
E3C0
7FC0
3CC0
00C0
00C0
03C0
03C0
0300
0300
0300
0300
ENDCHAR
STARTCHAR uni04CD
ENCODING -1
SWIDTH 600 0
DWIDTH 14 0
BBX 13 22 1 -5
BITMAP
C0E0
E0E0
E0E0
E0E0
E1E0
D160
D160
D160
D160
D360
DB60
CA60
CA60
CA60
CE60
CE78
CC78
0030
0030
0030
0060
0060
ENDCHAR
STARTCHAR uni04CE
ENCODING -1
SWIDTH 600 0
DWIDTH 14 0
BBX 13 17 1 -4
BITMAP
E0E0
E0E0
E0E0
F1E0
D160
D160
D160
DB60
CA60
CA60
CA60
CE78
C478
0018
0010
0030
0030
ENDCHAR
STARTCHAR uni04CF
ENCODING -1
SWIDTH 600 0
DWIDTH 14 0
BBX 9 17 3 0
BITMAP
FF80
FF80
1800
1800
1800
1800
1800
1800
1800
1800
1800
1800
1800
1800
1800
FF80
FF80
ENDCHAR
STARTCHAR uni04D0
ENCODING -1
SWIDTH 600 0
DWIDTH 14 0
BBX 14 23 0 0
BITMAP
1830
1830
0FE0
07C0
0000
0000
0300
0780
0780
0780
0CC0
0CC0
0CC0
1860
1860
1860
3FF0
3FF0
3030
6018
6018
6018
C00C
ENDCHAR
STARTCHAR uni04D1
ENCODING -1
SWIDTH 600 0
DWIDTH 14 0
BBX 10 19 2 0
BITMAP
60C0
60C0
3F80
1F00
0000
0000
3F00
7F80
01C0
00C0
00C0
1FC0
7EC0
E0C0
C0C0
C1C0
E1C0
7FC0
3CC0
ENDCHAR
STARTCHAR uni04D2
ENCODING -1
SWIDTH 600 0
DWIDTH 14 0
BBX 14 22 0 0
BITMAP
0C60
0C60
0C60
0000
0000
0300
0780
0780
0780
0CC0
0CC0
0CC0
1860
1860
1860
3FF0
3FF0
3030
6018
6018
6018
C00C
ENDCHAR
STARTCHAR uni04D3
ENCODING -1
SWIDTH 600 0
DWIDTH 14 0
BBX 10 18 2 0
BITMAP
3180
3180
3180
0000
0000
3F00
7F80
01C0
00C0
00C0
1FC0
7EC0
E0C0
C0C0
C1C0
E1C0
7FC0
3CC0
ENDCHAR
STARTCHAR uni04D4
ENCODING -1
SWIDTH 600 0
DWIDTH 14 0
BBX 13 17 0 0
BITMAP
0FF8
0FF8
1980
1980
1980
1980
3180
31F8
31F8
3180
3F80
7F80
6180
6180
6180
C1F8
C1F8
ENDCHAR
STARTCHAR uni04D5
ENCODING -1
SWIDTH 600 0
DWIDTH 14 0
BBX 13 13 0 0
BITMAP
38E0
7DF0
4730
0618
0618
3FF8
7FF8
E600
C600
C700
CF08
F9F8
70F0
ENDCHAR
STARTCHAR uni04D6
ENCODING -1
SWIDTH 600 0
DWIDTH 14 0
BBX 10 23 2 0
BITMAP
60C0
60C0
3F80
1F00
0000
0000
FFC0
FFC0
C000
C000
C000
C000
C000
FFC0
FFC0
C000
C000
C000
C000
C000
C000
FFC0
FFC0
ENDCHAR
STARTCHAR uni04D7
ENCODING -1
SWIDTH 600 0
DWIDTH 14 0
BBX 12 19 1 0
BITMAP
3060
3060
1FC0
0F80
0000
0000
0F80
3FC0
7060
6030
C030
FFF0
FFF0
C000
C000
6000
7000
3FE0
0FC0
ENDCHAR
STARTCHAR uni04D8
ENCODING -1
SWIDTH 600 0
DWIDTH 14 0
BBX 12 17 1 0
BITMAP
3F00
7FC0
41C0
00E0
0060
0070
0030
0030
FFF0
FFF0
C030
C070
E060
6060
70E0
3FC0
1F00
ENDCHAR
STARTCHAR uni04D9
ENCODING -1
SWIDTH 600 0
DWIDTH 14 0
BBX 12 13 1 0
BITMAP
3F00
7FC0
00E0
0060
0030
0030
FFF0
FFF0
C030
E060
60E0
3FC0
1F00
ENDCHAR
STARTCHAR uni04DA
ENCODING -1
SWIDTH 600 0
DWIDTH 14 0
BBX 12 22 1 0
BITMAP
18C0
18C0
18C0
0000
0000
3F00
7FC0
41C0
00E0
0060
0070
0030
0030
FFF0
FFF0
C030
C070
E060
6060
70E0
3FC0
1F00
ENDCHAR
STARTCHAR uni04DB
ENCODING -1
SWIDTH 600 0
DWIDTH 14 0
BBX 12 18 1 0
BITMAP
18C0
18C0
18C0
0000
0000
3F00
7FC0
00E0
0060
0030
0030
FFF0
FFF0
C030
E060
60E0
3FC0
1F00
ENDCHAR
STARTCHAR uni04DC
ENCODING -1
SWIDTH 600 0
DWIDTH 14 0
BBX 14 22 0 0
BITMAP
0C60
0C60
0C60
0000
0000
C30C
6318
6318
3330
3330
1B60
1B60
0FC0
0FC0
1BE0
1B60
3B70
3330
7338
6318
E31C
C30C
ENDCHAR
STARTCHAR uni04DD
ENCODING -1
SWIDTH 600 0
DWIDTH 14 0
BBX 14 18 0 0
BITMAP
0C60
0C60
0C60
0000
0000
C30C
6318
7338
3330
1B60
1B60
0FC0
1B60
1B60
3330
7338
6318
C30C
ENDCHAR
STARTCHAR uni04DE
ENCODING -1
SWIDTH 600 0
DWIDTH 14 0
BBX 10 22 2 0
BITMAP
3180
3180
3180
0000
0000
3F00
FF80
41C0
00C0
00C0
01C0
0380
3E00
3F00
0180
01C0
00C0
00C0
01C0
8380
FF80
7E00
ENDCHAR
STARTCHAR uni04DF
ENCODING -1
SWIDTH 600 0
DWIDTH 14 0
BBX 10 18 2 0
BITMAP
3180
3180
3180
0000
0000
7F00
FF80
00C0
00C0
01C0
3F00
3F80
01C0
00C0
00C0
81C0
FF80
7E00
ENDCHAR
STARTCHAR uni04E0
ENCODING -1
SWIDTH 600 0
DWIDTH 14 0
BBX 10 17 2 0
BITMAP
FF80
FF80
0300
0600
0E00
0C00
1800
3E00
3F80
0380
01C0
00C0
00C0
01C0
8180
FF80
7E00
ENDCHAR
STARTCHAR uni04E1
ENCODING -1
SWIDTH 600 0
DWIDTH 14 0
BBX 10 19 2 -6
BITMAP
FF80
FF80
0300
0700
0E00
0C00
1800
3800
3F00
0380
01C0
00C0
00C0
00C0
00C0
01C0
8380
FF00
7E00
ENDCHAR
STARTCHAR uni04E2
ENCODING -1
SWIDTH 600 0
DWIDTH 14 0
BBX 11 22 1 0
BITMAP
3FC0
3FC0
0000
0000
0000
C0E0
C0E0
C1E0
C1E0
C360
C360
C260
C660
C460
CC60
C860
D860
D860
F060
F060
E060
E060
ENDCHAR
STARTCHAR uni04E3
ENCODING -1
SWIDTH 600 0
DWIDTH 14 0
BBX 10 18 2 0
BITMAP
7F80
7F80
0000
0000
0000
C1C0
C1C0
C3C0
C2C0
C6C0
C4C0
CCC0
C8C0
D8C0
D0C0
F0C0
E0C0
E0C0
ENDCHAR
STARTCHAR uni04E4
ENCODING -1
SWIDTH 600 0
DWIDTH 14 0
BBX 11 22 1 0
BITMAP
3180
3180
3180
0000
0000
C0E0
C0E0
C1E0
C1E0
C360
C360
C260
C660
C460
CC60
C860
D860
D860
F060
F060
E060
E060
ENDCHAR
STARTCHAR uni04E5
ENCODING -1
SWIDTH 600 0
DWIDTH 14 0
BBX 10 18 2 0
BITMAP
3180
3180
3180
0000
0000
C1C0
C1C0
C3C0
C2C0
C6C0
C4C0
CCC0
C8C0
D8C0
D0C0
F0C0
E0C0
E0C0
ENDCHAR
STARTCHAR uni04E6
ENCODING -1
SWIDTH 600 0
DWIDTH 14 0
BBX 12 22 1 0
BITMAP
18C0
18C0
18C0
0000
0000
1F00
3FC0
70E0
6060
E060
E070
C030
C030
C030
C030
C030
E070
E060
6060
70E0
3FC0
1F00
ENDCHAR
STARTCHAR uni04E7
ENCODING -1
SWIDTH 600 0
DWIDTH 14 0
BBX 12 18 1 0
BITMAP
18C0
18C0
18C0
0000
0000
1F80
3FC0
70E0
E060
C030
C030
C030
C030
C030
6060
70E0
3FC0
1F80
ENDCHAR
STARTCHAR uni04E8
ENCODING -1
SWIDTH 600 0
DWIDTH 14 0
BBX 12 17 1 0
BITMAP
0F00
3FC0
70E0
6060
E060
C030
C030
FFF0
FFF0
C030
C030
E070
E070
6060
70E0
3FC0
0F00
ENDCHAR
STARTCHAR uni04E9
ENCODING -1
SWIDTH 600 0
DWIDTH 14 0
BBX 12 13 1 0
BITMAP
1F80
3FC0
60E0
6060
C030
FFF0
FFF0
C030
C070
6060
70E0
3FC0
1F80
ENDCHAR
STARTCHAR uni04EA
ENCODING -1
SWIDTH 600 0
DWIDTH 14 0
BBX 12 22 1 0
BITMAP
18C0
18C0
18C0
0000
0000
0F00
3FC0
70E0
6060
E060
C030
C030
FFF0
FFF0
C030
C030
E070
E070
6060
70E0
3FC0
0F00
ENDCHAR
STARTCHAR uni04EB
ENCODING -1
SWIDTH 600 0
DWIDTH 14 0
BBX 12 18 1 0
BITMAP
18C0
18C0
18C0
0000
0000
1F80
3FC0
60E0
6060
C030
FFF0
FFF0
C030
C070
6060
70E0
3FC0
1F80
ENDCHAR
STARTCHAR uni04EC
ENCODING -1
SWIDTH 600 0
DWIDTH 14 0
BBX 12 22 1 0
BITMAP
3180
3180
3180
0000
0000
7E00
FF80
01C0
00E0
0060
0070
0030
3FF0
3FF0
0030
0030
0070
0060
00E0
01C0
FF80
FE00
ENDCHAR
STARTCHAR uni04ED
ENCODING -1
SWIDTH 600 0
DWIDTH 14 0
BBX 10 18 2 0
BITMAP
6300
6300
6300
0000
0000
FE00
FF00
0380
01C0
00C0
3FC0
3FC0
00C0
00C0
01C0
0380
FF00
7E00
ENDCHAR
STARTCHAR uni04EE
ENCODING -1
SWIDTH 600 0
DWIDTH 14 0
BBX 14 22 0 0
BITMAP
1FE0
1FE0
0000
0000
0000
E01C
6018
7018
3030
3030
1860
1860
0CC0
0CC0
0FC0
0780
0780
0300
0700
0600
7C00
7800
ENDCHAR
STARTCHAR uni04EF
ENCODING -1
SWIDTH 600 0
DWIDTH 14 0
BBX 12 24 1 -6
BITMAP
3FC0
3FC0
0000
0000
0000
C030
6060
6060
6060
30C0
30C0
19C0
1980
1980
0F80
0F00
0F00
0600
0600
0E00
0C00
1C00
F800
F000
ENDCHAR
STARTCHAR uni04F0
ENCODING -1
SWIDTH 600 0
DWIDTH 14 0
BBX 14 22 0 0
BITMAP
0C60
0C60
0C60
0000
0000
E01C
6018
7018
3030
3030
1860
1860
0CC0
0CC0
0FC0
0780
0780
0300
0700
0600
7C00
7800
ENDCHAR
STARTCHAR uni04F1
ENCODING -1
SWIDTH 600 0
DWIDTH 14 0
BBX 12 24 1 -6
BITMAP
18C0
18C0
18C0
0000
0000
C030
6060
6060
6060
30C0
30C0
19C0
1980
1980
0F80
0F00
0F00
0600
0600
0E00
0C00
1C00
F800
F000
ENDCHAR
STARTCHAR uni04F2
ENCODING -1
SWIDTH 600 0
DWIDTH 14 0
BBX 14 23 0 0
BITMAP
03B8
0330
0660
0CC0
0000
0000
E01C
6018
7018
3030
3030
1860
1860
0CC0
0CC0
0FC0
0780
0780
0300
0700
0600
7C00
7800
ENDCHAR
STARTCHAR uni04F3
ENCODING -1
SWIDTH 600 0
DWIDTH 14 0
BBX 12 25 1 -6
BITMAP
0770
0660
0CC0
1980
0000
0000
C030
6060
6060
6060
30C0
30C0
19C0
1980
1980
0F80
0F00
0F00
0600
0600
0E00
0C00
1C00
F800
F000
ENDCHAR
STARTCHAR uni04F4
ENCODING -1
SWIDTH 600 0
DWIDTH 14 0
BBX 11 22 1 0
BITMAP
3180
3180
3180
0000
0000
C060
C060
C060
C060
C060
C060
C060
C060
E0E0
7FE0
3E60
0060
0060
0060
0060
0060
0060
ENDCHAR
STARTCHAR uni04F5
ENCODING -1
SWIDTH 600 0
DWIDTH 14 0
BBX 10 18 2 0
BITMAP
3180
3180
3180
0000
0000
C0C0
C0C0
C0C0
C0C0
C0C0
C0C0
E1C0
7FC0
3CC0
00C0
00C0
00C0
00C0
ENDCHAR
STARTCHAR uni04F6
ENCODING -1
SWIDTH 600 0
DWIDTH 14 0
BBX 10 22 3 -5
BITMAP
FFC0
FFC0
C000
C000
C000
C000
C000
C000
C000
C000
C000
C000
C000
C000
C000
F000
F000
3000
3000
3000
3000
3000
ENDCHAR
STARTCHAR uni04F7
ENCODING -1
SWIDTH 600 0
DWIDTH 14 0
BBX 9 17 3 -4
BITMAP
FF80
FF80
C000
C000
C000
C000
C000
C000
C000
C000
C000
F000
F000
3000
3000
3000
3000
ENDCHAR
STARTCHAR uni04F8
ENCODING -1
SWIDTH 600 0
DWIDTH 14 0
BBX 12 22 1 0
BITMAP
18C0
18C0
18C0
0000
0000
C030
C030
C030
C030
C030
C030
C030
F830
FE30
C730
C330
C330
C330
C330
C630
FE30
F830
ENDCHAR
STARTCHAR uni04F9
ENCODING -1
SWIDTH 600 0
DWIDTH 14 0
BBX 12 18 1 0
BITMAP
18C0
18C0
18C0
0000
0000
C030
C030
C030
C030
C030
FC30
FE30
C730
C330
C330
C730
FE30
FC30
ENDCHAR
STARTCHAR uni04FA
ENCODING -1
SWIDTH 600 0
DWIDTH 14 0
BBX 11 22 2 -5
BITMAP
3FE0
3FE0
3000
3000
3000
3000
3000
3000
FF00
FF00
3000
3000
3000
3000
3000
3C00
3C00
0C00
0C00
0C00
3C00
3800
ENDCHAR
STARTCHAR uni04FB
ENCODING -1
SWIDTH 600 0
DWIDTH 14 0
BBX 11 18 1 -5
BITMAP
3FE0
3FE0
3000
3000
3000
3000
FF00
FF00
3000
3000
3000
3C00
3C00
0C00
0C00
0C00
3C00
3800
ENDCHAR
STARTCHAR uni04FC
ENCODING -1
SWIDTH 600 0
DWIDTH 14 0
BBX 13 22 1 -5
BITMAP
E070
6060
70E0
30C0
1980
1980
0F00
0F00
0600
0F00
0F00
1980
39C0
30C0
70E0
6078
E078
0018
0018
0018
0078
0070
ENDCHAR
STARTCHAR uni04FD
ENCODING -1
SWIDTH 600 0
DWIDTH 14 0
BBX 12 18 1 -5
BITMAP
6060
70E0
30C0
1980
1F80
0F00
0600
0F00
1F80
1980
30C0
6070
E070
0030
0030
0030
00F0
00E0
ENDCHAR
STARTCHAR uni04FE
ENCODING -1
SWIDTH 600 0
DWIDTH 14 0
BBX 13 17 1 0
BITMAP
C018
6030
7060
3860
18C0
0D80
0F80
7FF0
7FF0
0F80
0D80
18C0
18C0
3060
6070
6030
C038
ENDCHAR
STARTCHAR uni04FF
ENCODING -1
SWIDTH 600 0
DWIDTH 14 0
BBX 12 13 1 0
BITMAP
E070
70E0
30C0
1980
0F00
7FE0
7FE0
0F00
1980
39C0
30C0
6060
E070
ENDCHAR
STARTCHAR uni0500
ENCODING -1
SWIDTH 600 0
DWIDTH 14 0
BBX 9 17 2 0
BITMAP
0180
0180
0180
0180
0180
0180
0180
1F80
7F80
E180
E180
C180
C180
E180
E180
7F80
1F80
ENDCHAR
STARTCHAR uni0501
ENCODING -1
SWIDTH 600 0
DWIDTH 14 0
BBX 11 18 1 0
BITMAP
0060
0060
0060
0060
0060
1E60
3FE0
60E0
E0E0
C060
C060
C060
C060
C060
E0E0
60E0
3FE0
1E60
ENDCHAR
STARTCHAR uni0502
ENCODING -1
SWIDTH 600 0
DWIDTH 14 0
BBX 12 17 1 0
BITMAP
0600
0600
0600
0600
0600
0600
0600
3E30
7E30
E630
C630
C630
C630
C630
E630
7FE0
39E0
ENDCHAR
STARTCHAR uni0503
ENCODING -1
SWIDTH 600 0
DWIDTH 14 0
BBX 12 18 1 0
BITMAP
0600
0600
0600
0600
0600
3600
7E00
EE00
C600
C600
C630
C630
C630
C630
C630
E630
7BE0
31E0
ENDCHAR
STARTCHAR uni0504
ENCODING -1
SWIDTH 600 0
DWIDTH 14 0
BBX 13 17 0 0
BITMAP
7C00
FE00
0700
0300
0300
0300
0600
3C18
3E18
0718
0318
0318
0318
0318
03B8
01F0
00E0
ENDCHAR
STARTCHAR uni0505
ENCODING -1
SWIDTH 600 0
DWIDTH 14 0
BBX 12 13 1 0
BITMAP
7C00
FE00
0600
0600
0630
3830
3C30
0630
0630
0630
0630
03E0
03C0
ENDCHAR
STARTCHAR uni0506
ENCODING -1
SWIDTH 600 0
DWIDTH 14 0
BBX 13 22 0 -5
BITMAP
1F80
FFC0
E0E0
0060
0060
00E0
01C0
3F00
3F80
01C0
00E0
0060
0060
0060
0060
0078
0078
0018
0018
0018
0018
0018
ENDCHAR
STARTCHAR uni0507
ENCODING -1
SWIDTH 600 0
DWIDTH 14 0
BBX 12 17 1 -4
BITMAP
7F00
FF80
00C0
00C0
01C0
3F00
3F80
01C0
00C0
00C0
00C0
00F0
00F0
0030
0030
0030
0030
ENDCHAR
STARTCHAR uni0508
ENCODING -1
SWIDTH 600 0
DWIDTH 14 0
BBX 13 17 0 0
BITMAP
3F00
3F00
3300
3300
3300
3300
3300
3318
7318
6318
6318
6318
6318
6318
63B8
E1F0
C0E0
ENDCHAR
STARTCHAR uni0509
ENCODING -1
SWIDTH 600 0
DWIDTH 14 0
BBX 13 13 0 0
BITMAP
3F00
3F00
3300
3300
3300
3318
7318
7318
6318
6318
6318
E1F0
C1F0
ENDCHAR
STARTCHAR uni050A
ENCODING -1
SWIDTH 600 0
DWIDTH 14 0
BBX 12 17 1 0
BITMAP
C600
C600
C600
C600
C600
C600
C600
FE30
FE30
C630
C630
C630
C630
C630
C770
C3E0
C3C0
ENDCHAR
STARTCHAR uni050B
ENCODING -1
SWIDTH 600 0
DWIDTH 14 0
BBX 12 13 1 0
BITMAP
C600
C600
C600
C600
C630
FE30
FE30
C630
C630
C630
C630
C3E0
C3C0
ENDCHAR
STARTCHAR uni050C
ENCODING -1
SWIDTH 600 0
DWIDTH 14 0
BBX 12 17 1 0
BITMAP
0FC0
1FE0
3840
7000
6000
E000
C000
C1F0
C1F0
C030
C030
E030
6070
7060
78E0
3FC0
0F80
ENDCHAR
STARTCHAR uni050D
ENCODING -1
SWIDTH 600 0
DWIDTH 14 0
BBX 12 13 1 0
BITMAP
0FC0
3FE0
7000
6000
C000
C000
C3F0
C3F0
C030
E030
7060
3FE0
1F80
ENDCHAR
STARTCHAR uni050E
ENCODING -1
SWIDTH 600 0
DWIDTH 14 0
BBX 13 17 0 0
BITMAP
FFF0
FFF0
0600
0600
0600
0600
0600
0618
0618
0618
0618
0618
0618
0618
0738
03F0
01E0
ENDCHAR
STARTCHAR uni050F
ENCODING -1
SWIDTH 600 0
DWIDTH 14 0
BBX 13 13 0 0
BITMAP
FFC0
FFC0
0C00
0C00
0C00
0C18
0C18
0C18
0C18
0C18
0E38
07F0
03E0
ENDCHAR
STARTCHAR uni0510
ENCODING -1
SWIDTH 600 0
DWIDTH 14 0
BBX 10 17 2 0
BITMAP
1F00
3FC0
7080
6000
6000
6000
3000
0F00
1F00
7000
6000
C000
C000
E000
6040
7FC0
1F80
ENDCHAR
STARTCHAR uni0511
ENCODING -1
SWIDTH 600 0
DWIDTH 14 0
BBX 10 13 2 0
BITMAP
3F80
7FC0
E000
C000
E000
3F00
7F00
E000
C000
C000
E040
7FC0
3F80
ENDCHAR
STARTCHAR uni0512
ENCODING -1
SWIDTH 600 0
DWIDTH 14 0
BBX 12 17 0 0
BITMAP
0FF0
0FF0
0C30
0C30
0C30
0C30
0C30
0C30
0C30
0830
1830
1830
1830
1830
3030
F030
E030
ENDCHAR
STARTCHAR uni0513
ENCODING -1
SWIDTH 600 0
DWIDTH 14 0
BBX 12 13 0 0
BITMAP
0FF0
0FF0
0C30
0C30
0C30
0C30
0C30
0830
1830
1830
1030
F030
E030
ENDCHAR
STARTCHAR uni1EA0
ENCODING -1
SWIDTH 600 0
DWIDTH 14 0
BBX 14 22 0 -5
BITMAP
0300
0780
0780
0780
0CC0
0CC0
0CC0
1860
1860
1860
3FF0
3FF0
3030
6018
6018
6018
C00C
0000
0000
0380
0380
0380
ENDCHAR
STARTCHAR uni1EA1
ENCODING -1
SWIDTH 600 0
DWIDTH 14 0
BBX 10 18 2 -5
BITMAP
3F00
7F80
01C0
00C0
00C0
1FC0
7EC0
E0C0
C0C0
C1C0
E1C0
7FC0
3CC0
0000
0000
0E00
0E00
0E00
ENDCHAR
STARTCHAR uni1EA2
ENCODING -1
SWIDTH 600 0
DWIDTH 14 0
BBX 14 24 0 0
BITMAP
0380
00C0
00C0
00C0
0180
0180
0000
0300
0780
0780
0780
0CC0
0CC0
0CC0
1860
1860
1860
3FF0
3FF0
3030
6018
6018
6018
C00C
ENDCHAR
STARTCHAR uni1EA3
ENCODING -1
SWIDTH 600 0
DWIDTH 14 0
BBX 10 21 2 0
BITMAP
0E00
0300
0300
0300
0600
0600
0000
0000
3F00
7F80
01C0
00C0
00C0
1FC0
7EC0
E0C0
C0C0
C1C0
E1C0
7FC0
3CC0
ENDCHAR
STARTCHAR uni1EA4
ENCODING -1
SWIDTH 600 0
DWIDTH 14 0
BBX 14 24 0 0
BITMAP
000C
0018
03B0
06C0
0C60
0000
0000
0300
0780
0780
0780
0CC0
0CC0
0CC0
1860
1860
1860
3FF0
3FF0
3030
6018
6018
6018
C00C
ENDCHAR
STARTCHAR uni1EA5
ENCODING -1
SWIDTH 600 0
DWIDTH 14 0
BBX 12 20 2 0
BITMAP
0030
0060
0EC0
1B00
3180
0000
0000
3F00
7F80
01C0
00C0
00C0
1FC0
7EC0
E0C0
C0C0
C1C0
E1C0
7FC0
3CC0
ENDCHAR
STARTCHAR uni1EA6
ENCODING -1
SWIDTH 600 0
DWIDTH 14 0
BBX 14 24 0 0
BITMAP
6000
3000
1B80
06C0
0C60
0000
0000
0300
0780
0780
0780
0CC0
0CC0
0CC0
1860
1860
1860
3FF0
3FF0
3030
6018
6018
6018
C00C
ENDCHAR
STARTCHAR uni1EA7
ENCODING -1
SWIDTH 600 0
DWIDTH 14 0
BBX 11 20 1 0
BITMAP
C000
6000
3700
0D80
18C0
0000
0000
1F80
3FC0
00E0
0060
0060
0FE0
3F60
7060
6060
60E0
70E0
3FE0
1E60
ENDCHAR
STARTCHAR uni1EA8
ENCODING -1
SWIDTH 600 0
DWIDTH 14 0
BBX 14 25 0 0
BITMAP
0030
0008
0008
0390
06C0
0C60
0000
0000
0300
0780
0780
0780
0CC0
0CC0
0CC0
1860
1860
1860
3FF0
3FF0
3030
6018
6018
6018
C00C
ENDCHAR
STARTCHAR uni1EA9
ENCODING -1
SWIDTH 600 0
DWIDTH 14 0
BBX 11 21 2 0
BITMAP
00C0
0020
0020
0E40
1B00
3180
0000
0000
3F00
7F80
01C0
00C0
00C0
1FC0
7EC0
E0C0
C0C0
C1C0
E1C0
7FC0
3CC0
ENDCHAR
STARTCHAR uni1EAA
ENCODING -1
SWIDTH 600 0
DWIDTH 14 0
BBX 14 26 0 0
BITMAP
0E20
1FE0
11C0
0000
0780
0FC0
1860
0000
0000
0300
0780
0780
0780
0CC0
0CC0
0CC0
1860
1860
1860
3FF0
3FF0
3030
6018
6018
6018
C00C
ENDCHAR
STARTCHAR uni1EAB
ENCODING -1
SWIDTH 600 0
DWIDTH 14 0
BBX 10 22 2 0
BITMAP
1C40
3FC0
2380
0000
0F00
1F80
30C0
0000
0000
3F00
7F80
01C0
00C0
00C0
1FC0
7EC0
E0C0
C0C0
C1C0
E1C0
7FC0
3CC0
ENDCHAR
STARTCHAR uni1EAC
ENCODING -1
SWIDTH 600 0
DWIDTH 14 0
BBX 14 28 0 -5
BITMAP
0380
0380
06C0
0C60
0000
0000
0300
0780
0780
0780
0CC0
0CC0
0CC0
1860
1860
1860
3FF0
3FF0
3030
6018
6018
6018
C00C
0000
0000
0380
0380
0380
ENDCHAR
STARTCHAR uni1EAD
ENCODING -1
SWIDTH 600 0
DWIDTH 14 0
BBX 10 24 2 -5
BITMAP
0E00
0E00
1B00
3180
0000
0000
3F00
7F80
01C0
00C0
00C0
1FC0
7EC0
E0C0
C0C0
C1C0
E1C0
7FC0
3CC0
0000
0000
0E00
0E00
0E00
ENDCHAR
STARTCHAR uni1EAE
ENCODING -1
SWIDTH 600 0
DWIDTH 14 0
BBX 14 25 0 0
BITMAP
01C0
0180
0300
0860
0FE0
07C0
0000
0000
0300
0780
0780
0780
0CC0
0CC0
0CC0
1860
1860
1860
3FF0
3FF0
3030
6018
6018
6018
C00C
ENDCHAR
STARTCHAR uni1EAF
ENCODING -1
SWIDTH 600 0
DWIDTH 14 0
BBX 10 21 2 0
BITMAP
0700
0600
0C00
2180
3F80
1F00
0000
0000
3F00
7F80
01C0
00C0
00C0
1FC0
7EC0
E0C0
C0C0
C1C0
E1C0
7FC0
3CC0
ENDCHAR
STARTCHAR uni1EB0
ENCODING -1
SWIDTH 600 0
DWIDTH 14 0
BBX 14 25 0 0
BITMAP
0700
0300
0180
0860
0FE0
07C0
0000
0000
0300
0780
0780
0780
0CC0
0CC0
0CC0
1860
1860
1860
3FF0
3FF0
3030
6018
6018
6018
C00C
ENDCHAR
STARTCHAR uni1EB1
ENCODING -1
SWIDTH 600 0
DWIDTH 14 0
BBX 10 21 2 0
BITMAP
1C00
0C00
0600
2180
3F80
1F00
0000
0000
3F00
7F80
01C0
00C0
00C0
1FC0
7EC0
E0C0
C0C0
C1C0
E1C0
7FC0
3CC0
ENDCHAR
STARTCHAR uni1EB2
ENCODING -1
SWIDTH 600 0
DWIDTH 14 0
BBX 14 26 0 0
BITMAP
0380
0080
0080
0100
0820
0FE0
07C0
0000
0000
0300
0780
0780
0780
0CC0
0CC0
0CC0
1860
1860
1860
3FF0
3FF0
3030
6018
6018
6018
C00C
ENDCHAR
STARTCHAR uni1EB3
ENCODING -1
SWIDTH 600 0
DWIDTH 14 0
BBX 10 22 2 0
BITMAP
0E00
0200
0200
0400
2080
3F80
1F00
0000
0000
3F00
7F80
01C0
00C0
00C0
1FC0
7EC0
E0C0
C0C0
C1C0
E1C0
7FC0
3CC0
ENDCHAR
STARTCHAR uni1EB4
ENCODING -1
SWIDTH 600 0
DWIDTH 14 0
BBX 14 26 0 0
BITMAP
0720
0FE0
09C0
0000
0860
0FE0
07C0
0000
0000
0300
0780
0780
0780
0CC0
0CC0
0CC0
1860
1860
1860
3FF0
3FF0
3030
6018
6018
6018
C00C
ENDCHAR
STARTCHAR uni1EB5
ENCODING -1
SWIDTH 600 0
DWIDTH 14 0
BBX 10 22 2 0
BITMAP
1C80
3F80
2700
0000
2180
3F80
1F00
0000
0000
3F00
7F80
01C0
00C0
00C0
1FC0
7EC0
E0C0
C0C0
C1C0
E1C0
7FC0
3CC0
ENDCHAR
STARTCHAR uni1EB6
ENCODING -1
SWIDTH 600 0
DWIDTH 14 0
BBX 14 28 0 -5
BITMAP
1020
1860
0FC0
0780
0000
0000
0300
0780
0780
0780
0CC0
0CC0
0CC0
1860
1860
1860
3FF0
3FF0
3030
6018
6018
6018
C00C
0000
0000
0380
0380
0380
ENDCHAR
STARTCHAR uni1EB7
ENCODING -1
SWIDTH 600 0
DWIDTH 14 0
BBX 10 24 2 -5
BITMAP
2040
30C0
1F80
0F00
0000
0000
3F00
7F80
01C0
00C0
00C0
1FC0
7EC0
E0C0
C0C0
C1C0
E1C0
7FC0
3CC0
0000
0000
0E00
0E00
0E00
ENDCHAR
STARTCHAR uni1EB8
ENCODING -1
SWIDTH 600 0
DWIDTH 14 0
BBX 10 22 2 -5
BITMAP
FFC0
FFC0
C000
C000
C000
C000
C000
FFC0
FFC0
C000
C000
C000
C000
C000
C000
FFC0
FFC0
0000
0000
0E00
0E00
0E00
ENDCHAR
STARTCHAR uni1EB9
ENCODING -1
SWIDTH 600 0
DWIDTH 14 0
BBX 12 18 1 -5
BITMAP
0F80
3FC0
7060
6030
C030
FFF0
FFF0
C000
C000
6000
7000
3FE0
0FC0
0000
0000
0700
0700
0700
ENDCHAR
STARTCHAR uni1EBA
ENCODING -1
SWIDTH 600 0
DWIDTH 14 0
BBX 10 24 2 0
BITMAP
1C00
0600
0600
0600
0C00
0C00
0000
FFC0
FFC0
C000
C000
C000
C000
C000
FFC0
FFC0
C000
C000
C000
C000
C000
C000
FFC0
FFC0
ENDCHAR
STARTCHAR uni1EBB
ENCODING -1
SWIDTH 600 0
DWIDTH 14 0
BBX 12 21 1 0
BITMAP
0700
0180
0180
0180
0300
0300
0000
0000
0F80
3FC0
7060
6030
C030
FFF0
FFF0
C000
C000
6000
7000
3FE0
0FC0
ENDCHAR
STARTCHAR uni1EBC
ENCODING -1
SWIDTH 600 0
DWIDTH 14 0
BBX 10 23 2 0
BITMAP
3080
7D80
6700
4300
0000
0000
FFC0
FFC0
C000
C000
C000
C000
C000
FFC0
FFC0
C000
C000
C000
C000
C000
C000
FFC0
FFC0
ENDCHAR
STARTCHAR uni1EBD
ENCODING -1
SWIDTH 600 0
DWIDTH 14 0
BBX 12 19 1 0
BITMAP
0C20
1F60
19C0
10C0
0000
0000
0F80
3FC0
7060
6030
C030
FFF0
FFF0
C000
C000
6000
7000
3FE0
0FC0
ENDCHAR
STARTCHAR uni1EBE
ENCODING -1
SWIDTH 600 0
DWIDTH 14 0
BBX 11 24 2 0
BITMAP
0060
00C0
1D80
3600
6300
0000
0000
FFC0
FFC0
C000
C000
C000
C000
C000
FFC0
FFC0
C000
C000
C000
C000
C000
C000
FFC0
FFC0
ENDCHAR
STARTCHAR uni1EBF
ENCODING -1
SWIDTH 600 0
DWIDTH 14 0
BBX 13 20 1 0
BITMAP
0018
0030
0760
0D80
18C0
0000
0000
0F80
3FC0
7060
6030
C030
FFF0
FFF0
C000
C000
6000
7000
3FE0
0FC0
ENDCHAR
STARTCHAR uni1EC0
ENCODING -1
SWIDTH 600 0
DWIDTH 14 0
BBX 11 24 1 0
BITMAP
C000
6000
3700
0D80
18C0
0000
0000
7FE0
7FE0
6000
6000
6000
6000
6000
7FE0
7FE0
6000
6000
6000
6000
6000
6000
7FE0
7FE0
ENDCHAR
STARTCHAR uni1EC1
ENCODING -1
SWIDTH 600 0
DWIDTH 14 0
BBX 12 20 1 0
BITMAP
C000
6000
3700
0D80
18C0
0000
0000
0F80
3FC0
7060
6030
C030
FFF0
FFF0
C000
C000
6000
7000
3FE0
0FC0
ENDCHAR
STARTCHAR uni1EC2
ENCODING -1
SWIDTH 600 0
DWIDTH 14 0
BBX 11 25 2 0
BITMAP
00C0
0020
0020
0E40
1B00
3180
0000
0000
FFC0
FFC0
C000
C000
C000
C000
C000
FFC0
FFC0
C000
C000
C000
C000
C000
C000
FFC0
FFC0
ENDCHAR
STARTCHAR uni1EC3
ENCODING -1
SWIDTH 600 0
DWIDTH 14 0
BBX 12 21 1 0
BITMAP
0060
0010
0010
0720
0D80
18C0
0000
0000
0F80
3FC0
7060
6030
C030
FFF0
FFF0
C000
C000
6000
7000
3FE0
0FC0
ENDCHAR
STARTCHAR uni1EC4
ENCODING -1
SWIDTH 600 0
DWIDTH 14 0
BBX 10 26 2 0
BITMAP
3880
7F80
4700
0000
1E00
3F00
6180
0000
0000
FFC0
FFC0
C000
C000
C000
C000
C000
FFC0
FFC0
C000
C000
C000
C000
C000
C000
FFC0
FFC0
ENDCHAR
STARTCHAR uni1EC5
ENCODING -1
SWIDTH 600 0
DWIDTH 14 0
BBX 12 22 1 0
BITMAP
1C40
3FC0
2380
0000
0F00
1F80
30C0
0000
0000
0F80
3FC0
7060
6030
C030
FFF0
FFF0
C000
C000
6000
7000
3FE0
0FC0
ENDCHAR
STARTCHAR uni1EC6
ENCODING -1
SWIDTH 600 0
DWIDTH 14 0
BBX 10 28 2 -5
BITMAP
0E00
0E00
1B00
3180
0000
0000
FFC0
FFC0
C000
C000
C000
C000
C000
FFC0
FFC0
C000
C000
C000
C000
C000
C000
FFC0
FFC0
0000
0000
0E00
0E00
0E00
ENDCHAR
STARTCHAR uni1EC7
ENCODING -1
SWIDTH 600 0
DWIDTH 14 0
BBX 12 24 1 -5
BITMAP
0700
0700
0D80
18C0
0000
0000
0F80
3FC0
7060
6030
C030
FFF0
FFF0
C000
C000
6000
7000
3FE0
0FC0
0000
0000
0700
0700
0700
ENDCHAR
STARTCHAR uni1EC8
ENCODING -1
SWIDTH 600 0
DWIDTH 14 0
BBX 9 24 3 0
BITMAP
1C00
0600
0600
0600
0C00
0C00
0000
FF80
FF80
1800
1800
1800
1800
1800
1800
1800
1800
1800
1800
1800
1800
1800
FF80
FF80
ENDCHAR
STARTCHAR uni1EC9
ENCODING -1
SWIDTH 600 0
DWIDTH 14 0
BBX 10 21 2 0
BITMAP
0E00
0300
0300
0300
0600
0600
0000
0000
7C00
3C00
0C00
0C00
0C00
0C00
0C00
0C00
0C00
0C00
0C00
7FC0
FFC0
ENDCHAR
STARTCHAR uni1ECA
ENCODING -1
SWIDTH 600 0
DWIDTH 14 0
BBX 9 22 3 -5
BITMAP
FF80
FF80
1800
1800
1800
1800
1800
1800
1800
1800
1800
1800
1800
1800
1800
FF80
FF80
0000
0000
1C00
1C00
1C00
ENDCHAR
STARTCHAR uni1ECB
ENCODING -1
SWIDTH 600 0
DWIDTH 14 0
BBX 10 23 2 -5
BITMAP
0C00
0C00
0C00
0000
0000
7C00
3C00
0C00
0C00
0C00
0C00
0C00
0C00
0C00
0C00
0C00
7FC0
FFC0
0000
0000
0E00
0E00
0E00
ENDCHAR
STARTCHAR uni1ECC
ENCODING -1
SWIDTH 600 0
DWIDTH 14 0
BBX 12 22 1 -5
BITMAP
1F00
3FC0
70E0
6060
E060
E070
C030
C030
C030
C030
C030
E070
E060
6060
70E0
3FC0
1F00
0000
0000
0700
0700
0700
ENDCHAR
STARTCHAR uni1ECD
ENCODING -1
SWIDTH 600 0
DWIDTH 14 0
BBX 12 18 1 -5
BITMAP
1F80
3FC0
70E0
E060
C030
C030
C030
C030
C030
6060
70E0
3FC0
1F80
0000
0000
0700
0700
0700
ENDCHAR
STARTCHAR uni1ECE
ENCODING -1
SWIDTH 600 0
DWIDTH 14 0
BBX 12 24 1 0
BITMAP
0700
0180
0180
0180
0300
0300
0000
1F00
3FC0
70E0
6060
E060
E070
C030
C030
C030
C030
C030
E070
E060
6060
70E0
3FC0
1F00
ENDCHAR
STARTCHAR uni1ECF
ENCODING -1
SWIDTH 600 0
DWIDTH 14 0
BBX 12 21 1 0
BITMAP
0700
0180
0180
0180
0300
0300
0000
0000
1F80
3FC0
70E0
E060
C030
C030
C030
C030
C030
6060
70E0
3FC0
1F80
ENDCHAR
STARTCHAR uni1ED0
ENCODING -1
SWIDTH 600 0
DWIDTH 14 0
BBX 13 24 1 0
BITMAP
0018
0030
0760
0D80
18C0
0000
0000
1F00
3FC0
70E0
6060
E060
E070
C030
C030
C030
C030
C030
E070
E060
6060
70E0
3FC0
1F00
ENDCHAR
STARTCHAR uni1ED1
ENCODING -1
SWIDTH 600 0
DWIDTH 14 0
BBX 13 20 1 0
BITMAP
0018
0030
0760
0D80
18C0
0000
0000
1F80
3FC0
70E0
E060
C030
C030
C030
C030
C030
6060
70E0
3FC0
1F80
ENDCHAR
STARTCHAR uni1ED2
ENCODING -1
SWIDTH 600 0
DWIDTH 14 0
BBX 12 24 1 0
BITMAP
C000
6000
3700
0D80
18C0
0000
0000
1F00
3FC0
70E0
6060
E060
E070
C030
C030
C030
C030
C030
E070
E060
6060
70E0
3FC0
1F00
ENDCHAR
STARTCHAR uni1ED3
ENCODING -1
SWIDTH 600 0
DWIDTH 14 0
BBX 12 20 1 0
BITMAP
C000
6000
3700
0D80
18C0
0000
0000
1F80
3FC0
70E0
E060
C030
C030
C030
C030
C030
6060
70E0
3FC0
1F80
ENDCHAR
STARTCHAR uni1ED4
ENCODING -1
SWIDTH 600 0
DWIDTH 14 0
BBX 12 25 1 0
BITMAP
0060
0010
0010
0720
0D80
18C0
0000
0000
1F00
3FC0
70E0
6060
E060
E070
C030
C030
C030
C030
C030
E070
E060
6060
70E0
3FC0
1F00
ENDCHAR
STARTCHAR uni1ED5
ENCODING -1
SWIDTH 600 0
DWIDTH 14 0
BBX 12 21 1 0
BITMAP
0060
0010
0010
0720
0D80
18C0
0000
0000
1F80
3FC0
70E0
E060
C030
C030
C030
C030
C030
6060
70E0
3FC0
1F80
ENDCHAR
STARTCHAR uni1ED6
ENCODING -1
SWIDTH 600 0
DWIDTH 14 0
BBX 12 26 1 0
BITMAP
1C40
3FC0
2380
0000
0F00
1F80
30C0
0000
0000
1F00
3FC0
70E0
6060
E060
E070
C030
C030
C030
C030
C030
E070
E060
6060
70E0
3FC0
1F00
ENDCHAR
STARTCHAR uni1ED7
ENCODING -1
SWIDTH 600 0
DWIDTH 14 0
BBX 12 22 1 0
BITMAP
1C40
3FC0
2380
0000
0F00
1F80
30C0
0000
0000
1F80
3FC0
70E0
E060
C030
C030
C030
C030
C030
6060
70E0
3FC0
1F80
ENDCHAR
STARTCHAR uni1ED8
ENCODING -1
SWIDTH 600 0
DWIDTH 14 0
BBX 12 28 1 -5
BITMAP
0700
0700
0D80
18C0
0000
0000
1F00
3FC0
70E0
6060
E060
E070
C030
C030
C030
C030
C030
E070
E060
6060
70E0
3FC0
1F00
0000
0000
0700
0700
0700
ENDCHAR
STARTCHAR uni1ED9
ENCODING -1
SWIDTH 600 0
DWIDTH 14 0
BBX 12 24 1 -5
BITMAP
0700
0700
0D80
18C0
0000
0000
1F80
3FC0
70E0
E060
C030
C030
C030
C030
C030
6060
70E0
3FC0
1F80
0000
0000
0700
0700
0700
ENDCHAR
STARTCHAR uni1EDA
ENCODING -1
SWIDTH 600 0
DWIDTH 14 0
BBX 13 23 1 0
BITMAP
01C0
0180
0300
0600
0000
0018
1F18
3FF0
70F0
6060
E060
E070
C030
C030
C030
C030
C030
E070
E070
6060
70E0
3FC0
0F00
ENDCHAR
STARTCHAR uni1EDB
ENCODING -1
SWIDTH 600 0
DWIDTH 14 0
BBX 14 19 1 0
BITMAP
01C0
0180
0300
0600
001C
001C
1F98
3FF8
70F0
6060
C030
C030
C030
C030
C030
6060
70E0
3FC0
1F80
ENDCHAR
STARTCHAR uni1EDC
ENCODING -1
SWIDTH 600 0
DWIDTH 14 0
BBX 13 23 1 0
BITMAP
1C00
0C00
0600
0300
0000
0018
1F18
3FF0
70F0
6060
E060
E070
C030
C030
C030
C030
C030
E070
E070
6060
70E0
3FC0
0F00
ENDCHAR
STARTCHAR uni1EDD
ENCODING -1
SWIDTH 600 0
DWIDTH 14 0
BBX 14 19 1 0
BITMAP
1C00
0C00
0600
0300
001C
001C
1F98
3FF8
70F0
6060
C030
C030
C030
C030
C030
6060
70E0
3FC0
1F80
ENDCHAR
STARTCHAR uni1EDE
ENCODING -1
SWIDTH 600 0
DWIDTH 14 0
BBX 13 24 1 0
BITMAP
0E00
0300
0300
0300
0600
0600
0018
1F18
3FF0
70F0
6060
E060
E070
C030
C030
C030
C030
C030
E070
E070
6060
70E0
3FC0
0F00
ENDCHAR
STARTCHAR uni1EDF
ENCODING -1
SWIDTH 600 0
DWIDTH 14 0
BBX 14 21 1 0
BITMAP
0700
0180
0180
0180
0300
0300
001C
001C
1F98
3FF8
70F0
6060
C030
C030
C030
C030
C030
6060
70E0
3FC0
1F80
ENDCHAR
STARTCHAR uni1EE0
ENCODING -1
SWIDTH 600 0
DWIDTH 14 0
BBX 13 23 1 0
BITMAP
1840
3EC0
3380
2180
0000
0018
1F18
3FF0
70F0
6060
E060
E070
C030
C030
C030
C030
C030
E070
E070
6060
70E0
3FC0
0F00
ENDCHAR
STARTCHAR uni1EE1
ENCODING -1
SWIDTH 600 0
DWIDTH 14 0
BBX 14 19 1 0
BITMAP
1840
3EC0
3380
2180
001C
001C
1F98
3FF8
70F0
6060
C030
C030
C030
C030
C030
6060
70E0
3FC0
1F80
ENDCHAR
STARTCHAR uni1EE2
ENCODING -1
SWIDTH 600 0
DWIDTH 14 0
BBX 13 23 1 -5
BITMAP
0018
1F18
3FF0
70F0
6060
E060
E070
C030
C030
C030
C030
C030
E070
E070
6060
70E0
3FC0
0F00
0000
0000
0E00
0E00
0E00
ENDCHAR
STARTCHAR uni1EE3
ENCODING -1
SWIDTH 600 0
DWIDTH 14 0
BBX 14 20 1 -5
BITMAP
001C
001C
1F98
3FF8
70F0
6060
C030
C030
C030
C030
C030
6060
70E0
3FC0
1F80
0000
0000
0700
0700
0700
ENDCHAR
STARTCHAR uni1EE4
ENCODING -1
SWIDTH 600 0
DWIDTH 14 0
BBX 11 22 1 -5
BITMAP
C060
C060
C060
C060
C060
C060
C060
C060
C060
C060
C060
C060
C060
E0E0
71C0
7FC0
1F00
0000
0000
0E00
0E00
0E00
ENDCHAR
STARTCHAR uni1EE5
ENCODING -1
SWIDTH 600 0
DWIDTH 14 0
BBX 10 18 2 -5
BITMAP
C0C0
C0C0
C0C0
C0C0
C0C0
C0C0
C0C0
C0C0
C0C0
C1C0
E1C0
7FC0
3CC0
0000
0000
0E00
0E00
0E00
ENDCHAR
STARTCHAR uni1EE6
ENCODING -1
SWIDTH 600 0
DWIDTH 14 0
BBX 11 24 1 0
BITMAP
0E00
0300
0300
0300
0600
0600
0000
C060
C060
C060
C060
C060
C060
C060
C060
C060
C060
C060
C060
C060
E0E0
71C0
7FC0
1F00
ENDCHAR
STARTCHAR uni1EE7
ENCODING -1
SWIDTH 600 0
DWIDTH 14 0
BBX 10 21 2 0
BITMAP
0E00
0300
0300
0300
0600
0600
0000
0000
C0C0
C0C0
C0C0
C0C0
C0C0
C0C0
C0C0
C0C0
C0C0
C1C0
E1C0
7FC0
3CC0
ENDCHAR
STARTCHAR uni1EE8
ENCODING -1
SWIDTH 600 0
DWIDTH 14 0
BBX 14 23 1 0
BITMAP
0380
0300
0600
0C00
0000
000C
C0CC
C0D8
C0F0
C0C0
C0C0
C0C0
C0C0
C0C0
C0C0
C0C0
C0C0
C0C0
C0C0
E1C0
6180
7F80
3E00
ENDCHAR
STARTCHAR uni1EE9
ENCODING -1
SWIDTH 600 0
DWIDTH 14 0
BBX 13 19 2 0
BITMAP
0700
0600
0C00
1800
0038
0038
C1B0
C1E0
C180
C180
C180
C180
C180
C180
C180
C380
E380
7F80
3D80
ENDCHAR
STARTCHAR uni1EEA
ENCODING -1
SWIDTH 600 0
DWIDTH 14 0
BBX 14 23 1 0
BITMAP
3800
1800
0C00
0600
0000
000C
C0CC
C0D8
C0F0
C0C0
C0C0
C0C0
C0C0
C0C0
C0C0
C0C0
C0C0
C0C0
C0C0
E1C0
6180
7F80
3E00
ENDCHAR
STARTCHAR uni1EEB
ENCODING -1
SWIDTH 600 0
DWIDTH 14 0
BBX 13 19 2 0
BITMAP
7000
3000
1800
0C00
0038
0038
C1B0
C1E0
C180
C180
C180
C180
C180
C180
C180
C380
E380
7F80
3D80
ENDCHAR
STARTCHAR uni1EEC
ENCODING -1
SWIDTH 600 0
DWIDTH 14 0
BBX 14 24 1 0
BITMAP
0E00
0300
0300
0300
0600
0600
000C
C0CC
C0D8
C0F0
C0C0
C0C0
C0C0
C0C0
C0C0
C0C0
C0C0
C0C0
C0C0
C0C0
E1C0
6180
7F80
3E00
ENDCHAR
STARTCHAR uni1EED
ENCODING -1
SWIDTH 600 0
DWIDTH 14 0
BBX 13 21 2 0
BITMAP
1C00
0600
0600
0600
0C00
0C00
0038
0038
C1B0
C1E0
C180
C180
C180
C180
C180
C180
C180
C380
E380
7F80
3D80
ENDCHAR
STARTCHAR uni1EEE
ENCODING -1
SWIDTH 600 0
DWIDTH 14 0
BBX 14 23 1 0
BITMAP
1840
3EC0
3380
2180
0000
000C
C0CC
C0D8
C0F0
C0C0
C0C0
C0C0
C0C0
C0C0
C0C0
C0C0
C0C0
C0C0
C0C0
E1C0
6180
7F80
3E00
ENDCHAR
STARTCHAR uni1EEF
ENCODING -1
SWIDTH 600 0
DWIDTH 14 0
BBX 13 19 2 0
BITMAP
3080
7D80
6700
4300
0038
0038
C1B0
C1E0
C180
C180
C180
C180
C180
C180
C180
C380
E380
7F80
3D80
ENDCHAR
STARTCHAR uni1EF0
ENCODING -1
SWIDTH 600 0
DWIDTH 14 0
BBX 14 23 1 -5
BITMAP
000C
C0CC
C0D8
C0F0
C0C0
C0C0
C0C0
C0C0
C0C0
C0C0
C0C0
C0C0
C0C0
C0C0
E1C0
6180
7F80
3F00
0000
0000
0E00
0E00
0E00
ENDCHAR
STARTCHAR uni1EF1
ENCODING -1
SWIDTH 600 0
DWIDTH 14 0
BBX 13 20 2 -5
BITMAP
0038
0038
C1B0
C1E0
C180
C180
C180
C180
C180
C180
C180
C380
E380
7F80
3D80
0000
0000
1C00
1C00
1C00
ENDCHAR
STARTCHAR uni1EF4
ENCODING -1
SWIDTH 600 0
DWIDTH 14 0
BBX 12 22 1 -5
BITMAP
C030
6060
6060
30C0
30C0
1980
1980
0F00
0F00
0600
0600
0600
0600
0600
0600
0600
0600
0000
0000
0700
0700
0700
ENDCHAR
STARTCHAR uni1EF5
ENCODING -1
SWIDTH 600 0
DWIDTH 14 0
BBX 12 19 1 -6
BITMAP
C030
6060
6060
6060
30C0
30C0
19C0
1980
1980
0F80
0F00
0F00
0600
0600
0E00
0CE0
1CE0
F8E0
F000
ENDCHAR
STARTCHAR uni1EF6
ENCODING -1
SWIDTH 600 0
DWIDTH 14 0
BBX 12 24 1 0
BITMAP
0700
0180
0180
0180
0300
0300
0000
C030
6060
6060
30C0
30C0
1980
1980
0F00
0F00
0600
0600
0600
0600
0600
0600
0600
0600
ENDCHAR
STARTCHAR uni1EF7
ENCODING -1
SWIDTH 600 0
DWIDTH 14 0
BBX 12 27 1 -6
BITMAP
0700
0180
0180
0180
0300
0300
0000
0000
C030
6060
6060
6060
30C0
30C0
19C0
1980
1980
0F80
0F00
0F00
0600
0600
0E00
0C00
1C00
F800
F000
ENDCHAR
STARTCHAR uni1EF8
ENCODING -1
SWIDTH 600 0
DWIDTH 14 0
BBX 12 23 1 0
BITMAP
1840
3EC0
3380
2180
0000
0000
C030
6060
6060
30C0
30C0
1980
1980
0F00
0F00
0600
0600
0600
0600
0600
0600
0600
0600
ENDCHAR
STARTCHAR uni1EF9
ENCODING -1
SWIDTH 600 0
DWIDTH 14 0
BBX 12 25 1 -6
BITMAP
1840
3EC0
3380
2180
0000
0000
C030
6060
6060
6060
30C0
30C0
19C0
1980
1980
0F80
0F00
0F00
0600
0600
0E00
0C00
1C00
F800
F000
ENDCHAR
STARTCHAR dong
ENCODING -1
SWIDTH 600 0
DWIDTH 14 0
BBX 13 22 1 -4
BITMAP
0060
0060
0FF8
0FF8
0060
1E60
3FE0
60E0
E0E0
C060
C060
C060
C060
C060
E0E0
60E0
3FE0
1E60
0000
0000
7FE0
7FE0
ENDCHAR
STARTCHAR uni030F
ENCODING -1
SWIDTH 600 0
DWIDTH 14 0
BBX 8 4 2 15
BITMAP
CC
66
66
33
ENDCHAR
STARTCHAR glyph884
ENCODING -1
SWIDTH 600 0
DWIDTH 14 0
BBX 10 5 2 15
BITMAP
00C0
0180
3B00
6C00
C600
ENDCHAR
STARTCHAR glyph885
ENCODING -1
SWIDTH 600 0
DWIDTH 14 0
BBX 10 5 2 15
BITMAP
C000
6000
3700
0D80
18C0
ENDCHAR
STARTCHAR glyph886
ENCODING -1
SWIDTH 600 0
DWIDTH 14 0
BBX 9 6 3 15
BITMAP
0300
0080
0080
3900
6C00
C600
ENDCHAR
STARTCHAR glyph887
ENCODING -1
SWIDTH 600 0
DWIDTH 14 0
BBX 8 7 3 15
BITMAP
71
FF
8E
00
3C
7E
C3
ENDCHAR
STARTCHAR glyph888
ENCODING -1
SWIDTH 600 0
DWIDTH 14 0
BBX 7 6 4 15
BITMAP
1C
18
30
86
FE
7C
ENDCHAR
STARTCHAR glyph889
ENCODING -1
SWIDTH 600 0
DWIDTH 14 0
BBX 7 6 4 15
BITMAP
70
30
18
86
FE
7C
ENDCHAR
STARTCHAR glyph890
ENCODING -1
SWIDTH 600 0
DWIDTH 14 0
BBX 7 7 4 15
BITMAP
38
08
08
10
82
FE
7C
ENDCHAR
STARTCHAR glyph891
ENCODING -1
SWIDTH 600 0
DWIDTH 14 0
BBX 7 7 4 15
BITMAP
72
FE
9C
00
86
FE
7C
ENDCHAR
STARTCHAR glyph892
ENCODING -1
SWIDTH 600 0
DWIDTH 14 0
BBX 4 5 5 -5
BITMAP
40
20
30
70
E0
ENDCHAR
STARTCHAR glyph893
ENCODING -1
SWIDTH 600 0
DWIDTH 14 0
BBX 4 7 5 -5
BITMAP
30
30
30
30
30
F0
E0
ENDCHAR
STARTCHAR glyph894
ENCODING -1
SWIDTH 600 0
DWIDTH 14 0
BBX 4 7 5 -5
BITMAP
30
30
30
30
30
F0
E0
ENDCHAR
STARTCHAR uni0162
ENCODING -1
SWIDTH 600 0
DWIDTH 14 0
BBX 12 23 1 -6
BITMAP
FFF0
FFF0
0600
0600
0600
0600
0600
0600
0600
0600
0600
0600
0600
0600
0600
0600
0600
0600
0400
0700
0300
0300
0E00
ENDCHAR
STARTCHAR uni0163
ENCODING -1
SWIDTH 600 0
DWIDTH 14 0
BBX 10 22 2 -6
BITMAP
0800
1800
1800
FFC0
FFC0
1800
1800
1800
1800
1800
1800
1800
1800
1C00
0FC0
07C0
0600
0400
0700
0300
0300
0E00
ENDCHAR
ENDFONT
